<?xml version="1.0" encoding="utf-8"?>
<!-- Generator: Adobe Illustrator 24.0.1, SVG Export Plug-In . SVG Version: 6.00 Build 0)  -->
<svg version="1.1" id="Layer_1" xmlns="http://www.w3.org/2000/svg" x="0px"
     y="0px"
     viewBox="0 0 378.72 378.72" style="enable-background:new 0 0 378.72 378.72;" xml:space="preserve">
<style type="text/css">
	.st0{fill:#FFFFFF;}
	.st1{fill:#020202;}
	.st2{fill:#030303;}
	.st3{fill:#141414;}
	.st4{fill:#101110;}
	.st5{fill:#558F54;}
</style>
  <g>
	<g>
		<path class="st0" d="M378.72,378.72c-126.24,0-252.48,0-378.72,0C0,252.48,0,126.24,0,0c126.24,0,252.48,0,378.72,0
			C378.72,126.24,378.72,252.48,378.72,378.72z M98.56,226.06c0.06,2.44,0.11,4.7,0.16,6.97c0.1,5.1,0.19,10.21,0.3,15.31
			c0.06,3.15,0.15,6.29,0.21,9.44c0.19,9.71,0.37,19.42,0.56,29.13c0.06,3.07,0.11,6.14,0.16,9.21c0,0.11,0,0.24,0.05,0.34
			c0.04,0.09,0.14,0.19,0.23,0.21c0.18,0.04,0.38,0.05,0.57,0.04c1.23,0,2.46-0.02,3.69-0.02c1.11,0,2.23-0.02,3.34,0.03
			c1.84,0.08,3.68,0.09,5.52,0.04c0.34-0.01,0.69-0.05,1.03-0.07c0.15-0.01,0.28-0.14,0.3-0.3c0.02-0.19,0.04-0.38,0.04-0.57
			c0.02-1.15,0.04-2.3,0.03-3.45c-0.06-11.29-0.13-22.57-0.21-33.86c-0.08-11.59-0.18-23.19-0.26-34.78
			c-0.05-6.33-0.07-12.67-0.11-19c-0.06-9.18-0.14-18.35-0.19-27.53c-0.01-1.73-0.06-3.45-0.16-5.18c-0.02-0.28-0.1-0.51-0.3-0.72
			c-1.08-1.14-2.16-2.29-3.22-3.45c-2.45-2.7-4.88-5.42-7.32-8.13c-0.87-0.97-1.75-1.93-2.62-2.9c-0.52-0.58-1.14-1.03-1.79-1.43
			c-0.13-0.08-0.28-0.13-0.42-0.18c-0.28-0.09-0.66,0.07-0.78,0.34c-0.06,0.14-0.13,0.29-0.14,0.43c-0.02,0.34-0.02,0.69-0.02,1.04
			c0.05,2.53,0.11,5.07,0.16,7.6c0.06,3.3,0.1,6.6,0.17,9.9c0.1,4.84,0.22,9.67,0.32,14.51c0.07,3.11,0.13,6.22,0.19,9.33
			C98.22,207.66,98.39,216.95,98.56,226.06z M150.39,269.69C150.39,269.69,150.39,269.7,150.39,269.69c0.69,0,1.38,0,2.07,0
			c0.31,0,0.61,0,0.92-0.01c0.26-0.01,0.39-0.12,0.48-0.41c0.09-0.33,0.18-0.67,0.27-1c2.41-8.56,4.82-17.12,7.23-25.68
			c2.2-7.82,4.4-15.64,6.6-23.47c0.61-2.18,1.23-4.35,1.84-6.53c0.03-0.11,0.08-0.2,0.2-0.25c0.1-0.04,0.15-0.01,0.21,0.19
			c0.23,0.81,0.47,1.62,0.69,2.43c2.11,7.45,4.21,14.9,6.32,22.35c2.65,9.37,5.31,18.73,7.97,28.1c0.36,1.25,0.71,2.51,1.07,3.76
			c0.14,0.47,0.18,0.51,0.62,0.51c1.84,0,3.69,0,5.53,0c0.08,0,0.16,0.01,0.23-0.02c0.1-0.05,0.21-0.11,0.26-0.2
			c0.07-0.13,0.11-0.28,0.15-0.43c2.14-7.76,4.29-15.52,6.43-23.28c2.26-8.2,4.52-16.41,6.78-24.61c1.39-5.03,2.77-10.05,4.16-15.07
			c0.03-0.11,0.06-0.22,0.09-0.33c0.03-0.14-0.1-0.29-0.26-0.29c-1.8,0-3.61-0.01-5.41-0.01c-0.04,0-0.08,0.01-0.11,0.01
			c-0.14,0.01-0.29,0.14-0.33,0.28c-0.09,0.33-0.19,0.66-0.27,1c-2.49,9.57-4.97,19.14-7.47,28.71c-2.21,8.49-4.43,16.99-6.65,25.48
			c-0.04,0.15-0.09,0.29-0.16,0.43c-0.03,0.05-0.11,0.08-0.18,0.1c-0.01,0-0.06-0.05-0.07-0.09c-0.08-0.21-0.17-0.43-0.23-0.65
			c-2.23-7.97-4.46-15.95-6.69-23.92c-2.85-10.19-5.7-20.38-8.55-30.56c-0.06-0.22-0.15-0.44-0.24-0.65
			c-0.02-0.06-0.11-0.11-0.17-0.13c-0.11-0.03-0.23-0.04-0.34-0.04c-2.23,0-4.45,0-6.68,0c-0.08,0-0.15,0.01-0.23,0.02
			c-0.14,0.01-0.29,0.13-0.33,0.28c-0.1,0.37-0.2,0.74-0.31,1.11c-2.04,7.31-4.07,14.62-6.11,21.93
			c-1.87,6.72-3.75,13.44-5.62,20.16c-1.1,3.95-2.19,7.91-3.29,11.86c-0.06,0.22-0.17,0.42-0.26,0.63
			c-0.01,0.02-0.06,0.04-0.08,0.03c-0.03-0.01-0.08-0.03-0.09-0.06c-0.07-0.17-0.16-0.35-0.2-0.53c-1.91-7.35-3.82-14.69-5.72-22.04
			c-2.64-10.21-5.28-20.41-7.92-30.62c-0.22-0.85-0.46-1.7-0.69-2.55c-0.04-0.14-0.15-0.17-0.26-0.19
			c-0.11-0.03-0.23-0.02-0.34-0.02c-1.8,0-3.61,0-5.41,0c-0.08,0-0.15,0.01-0.23,0.01c-0.19,0.01-0.29,0.12-0.26,0.28
			c0.06,0.26,0.12,0.52,0.19,0.78c0.8,2.88,1.6,5.76,2.4,8.64c2.26,8.16,4.51,16.33,6.77,24.49c2.28,8.24,4.57,16.47,6.85,24.71
			c0.45,1.63,0.91,3.25,1.36,4.87c0.1,0.37,0.21,0.46,0.55,0.46C148.47,269.7,149.43,269.69,150.39,269.69z M321.2,237.54
			c0-10.17,0-20.35,0-30.52c0-0.38,0-0.77,0-1.15c0-0.08,0-0.16-0.03-0.23c-0.03-0.06-0.09-0.13-0.15-0.16
			c-0.06-0.03-0.15-0.04-0.22-0.04c-1.77,0-3.53,0-5.3,0c-0.08,0-0.16,0-0.22,0.03c-0.06,0.03-0.14,0.11-0.14,0.17
			c-0.02,0.38-0.03,0.77-0.03,1.15c0,17.08,0,34.17,0,51.25c0,0.35,0,0.69,0,1.04c0,0.12,0.01,0.23-0.02,0.34
			c-0.01,0.06-0.08,0.13-0.13,0.15c-0.06,0.02-0.17,0-0.2-0.05c-0.25-0.34-0.49-0.69-0.73-1.04
			c-11.93-17.32-23.85-34.64-35.78-51.96c-0.2-0.28-0.4-0.56-0.6-0.85c-0.12-0.18-0.29-0.24-0.49-0.24c-2.07,0-4.15,0.01-6.22,0.01
			c-0.04,0-0.09-0.01-0.11,0.01c-0.06,0.05-0.15,0.1-0.16,0.16c-0.02,0.34-0.03,0.69-0.03,1.04c0,20.58,0,41.16,0,61.73
			c0,0.19,0,0.38,0,0.58c0,0.12,0,0.23,0.01,0.35c0.01,0.2,0.16,0.36,0.36,0.36c1.77,0,3.53,0,5.3,0.01c0.04,0,0.08,0,0.11-0.01
			c0.13-0.01,0.29-0.17,0.3-0.3c0.01-0.38,0.02-0.77,0.02-1.15c0-9.06,0-18.12,0-27.18c0-8.14,0-16.28,0-24.42
			c0-0.35,0.01-0.69,0.02-1.04c0-0.03,0.05-0.07,0.07-0.07c0.07-0.01,0.17-0.03,0.2,0c0.23,0.3,0.46,0.61,0.68,0.92
			c11.95,17.35,23.9,34.7,35.85,52.05c0.2,0.28,0.4,0.56,0.59,0.85c0.16,0.25,0.38,0.35,0.68,0.35c1.96-0.01,3.92,0,5.87-0.01
			c0.37,0,0.48-0.12,0.49-0.47c0.01-0.35,0-0.69,0-1.04C321.2,257.97,321.2,247.76,321.2,237.54z M217.38,237.49
			c0,10.21,0,20.42,0,30.64c0,0.35,0,0.69,0,1.04c0,0.11,0.02,0.23,0.06,0.33c0.02,0.06,0.09,0.15,0.15,0.15
			c0.34,0.03,0.69,0.04,1.03,0.04c14.09,0,28.18,0,42.27,0c0.23,0,0.46,0,0.69,0c0.08,0,0.15-0.01,0.23-0.01
			c0.21-0.01,0.36-0.16,0.36-0.36c0-1.5,0-2.99,0-4.49c0-0.23-0.13-0.36-0.34-0.37c-0.38-0.01-0.77-0.01-1.15-0.01
			c-11.98,0-23.96,0-35.93,0c-1.44,0-1.26,0.15-1.26-1.31c0-7.6,0-15.2,0-22.8c0-0.31,0.01-0.61,0.01-0.92c0-0.15,0.13-0.3,0.28-0.3
			c0.38-0.01,0.77-0.02,1.15-0.02c10.98,0,21.96,0,32.94,0c0.38,0,0.77-0.01,1.15-0.02c0.14,0,0.28-0.15,0.29-0.3
			c0-0.04,0.02-0.08,0.02-0.11c0-1.46,0-2.92,0-4.38c0-0.04-0.01-0.08-0.02-0.11c-0.01-0.15-0.15-0.3-0.29-0.3
			c-0.38-0.01-0.77-0.02-1.15-0.02c-10.98,0-21.96,0-32.94,0c-0.35,0-0.69,0-1.04-0.01c-0.08,0-0.16-0.01-0.22-0.04
			c-0.06-0.03-0.14-0.1-0.15-0.16c-0.03-0.23-0.03-0.46-0.03-0.69c0-7.1,0-14.2,0-21.31c0-0.23,0.01-0.46,0.01-0.69
			c0-0.13,0.17-0.3,0.3-0.3c0.38-0.01,0.77-0.02,1.15-0.02c11.75,0,23.5,0,35.24,0c0.31,0,0.61,0,0.92,0c0.12,0,0.23-0.01,0.35-0.01
			c0.12-0.01,0.27-0.17,0.27-0.32c0-1.5,0-2.99,0-4.49c0-0.24-0.11-0.35-0.34-0.36c-0.31-0.01-0.61-0.01-0.92-0.01
			c-13.94,0-27.87,0-41.81,0c-1.44,0-1.26-0.19-1.26,1.3C217.38,216.99,217.38,227.24,217.38,237.49z M2.89,48.77
			c-0.49-0.02-0.85,0.47-0.69,0.95C2.25,49.86,2.31,50,2.4,50.13c0.13,0.19,0.29,0.35,0.45,0.53c0.51,0.57,1.03,1.14,1.55,1.71
			c1.7,1.88,3.4,3.76,5.1,5.64c1.72,1.91,3.45,3.82,5.16,5.73c1.46,1.63,2.91,3.27,4.37,4.89c1.93,2.14,3.87,4.26,5.8,6.4
			c2.01,2.22,4.01,4.44,6.01,6.67c2.95,3.28,5.9,6.56,8.86,9.84c2.34,2.6,4.68,5.19,7.02,7.78c2.42,2.68,4.84,5.36,7.25,8.04
			c1.8,2,3.59,4,5.39,5.99c2,2.22,4.02,4.44,6.02,6.67c1,1.11,1.99,2.24,2.99,3.35c2.62,2.91,5.25,5.81,7.87,8.72
			c1.77,1.97,3.53,3.95,5.3,5.92c2.6,2.88,5.2,5.75,7.8,8.63c0.49,0.54,0.97,1.09,1.46,1.63c0.21,0.23,0.43,0.44,0.71,0.57
			c0.4,0.18,0.89-0.03,1.03-0.45c0.08-0.23,0.05-0.47-0.09-0.66c-0.25-0.34-0.52-0.66-0.8-0.98c-1.16-1.28-2.34-2.54-3.49-3.83
			c-2.85-3.17-5.68-6.35-8.53-9.52c-1.87-2.08-3.77-4.15-5.64-6.23c-3.11-3.45-6.21-6.91-9.32-10.36
			c-3.52-3.91-7.04-7.82-10.56-11.72c-3.03-3.37-6.06-6.73-9.1-10.1c-1.18-1.31-2.38-2.61-3.56-3.92c-2.16-2.4-4.31-4.8-6.46-7.2
			c-1.72-1.91-3.46-3.81-5.18-5.72c-1.75-1.94-3.48-3.89-5.22-5.84c-0.08-0.09-0.16-0.17-0.22-0.27c-0.05-0.09-0.14-0.2-0.03-0.31
			c0.05-0.05,0.11-0.11,0.18-0.12c0.23-0.03,0.46-0.04,0.69-0.05c2.72-0.08,5.45-0.16,8.17-0.24c5.6-0.17,11.21-0.34,16.81-0.51
			c4.14-0.12,8.29-0.22,12.43-0.35c6.56-0.2,13.12-0.42,19.69-0.61c7.1-0.21,14.2-0.41,21.3-0.62c4.07-0.12,8.14-0.24,12.2-0.35
			c3.53-0.1,7.06-0.18,10.59-0.28c7.37-0.22,14.74-0.45,22.1-0.67c1.57-0.05,3.15-0.1,4.72-0.16c0.27-0.01,0.54-0.04,0.8-0.1
			c0.3-0.06,0.54-0.37,0.56-0.66c0.03-0.33-0.23-0.68-0.57-0.77c-0.18-0.05-0.38-0.07-0.57-0.07c-0.46,0-0.92,0.01-1.38,0.03
			c-3.53,0.11-7.06,0.22-10.59,0.33c-5.68,0.17-11.36,0.32-17.04,0.49c-4.8,0.14-9.59,0.3-14.39,0.44
			c-6.14,0.18-12.28,0.36-18.42,0.54c-8.17,0.24-16.35,0.5-24.52,0.74c-5.45,0.16-10.9,0.29-16.35,0.44
			c-3.57,0.1-7.14,0.23-10.71,0.34c-5.3,0.16-10.59,0.3-15.89,0.46c-0.38,0.01-0.76,0.06-1.14,0.12c-0.25,0.04-0.45-0.04-0.62-0.22
			c-0.52-0.56-1.04-1.13-1.56-1.7c-2.15-2.4-4.29-4.81-6.45-7.21c-2.62-2.91-5.26-5.8-7.88-8.7c-0.33-0.37-0.67-0.74-1-1.12
			c-0.1-0.11-0.17-0.25-0.25-0.38c-0.04-0.06,0.06-0.27,0.13-0.28c0.27-0.03,0.53-0.06,0.8-0.07c6.52-0.2,13.05-0.4,19.57-0.6
			c2.65-0.08,5.3-0.13,7.94-0.21c5.49-0.16,10.97-0.34,16.46-0.51c4.07-0.12,8.14-0.22,12.2-0.34c8.4-0.25,16.81-0.51,25.21-0.76
			c4.53-0.14,9.06-0.25,13.59-0.39c4.41-0.13,8.83-0.26,13.24-0.4c4.34-0.13,8.67-0.28,13.01-0.4c4.53-0.13,9.06-0.25,13.59-0.38
			c3.3-0.1,6.6-0.22,9.9-0.31c4.61-0.13,9.21-0.25,13.82-0.39c6.37-0.19,12.74-0.38,19.11-0.58c0.27-0.01,0.54-0.01,0.8-0.06
			c0.18-0.04,0.36-0.13,0.51-0.24c0.33-0.24,0.34-0.74,0.04-1.01c-0.18-0.16-0.38-0.27-0.62-0.27c-0.38-0.01-0.77-0.01-1.15,0
			c-3.91,0.12-7.83,0.24-11.74,0.35c-2.07,0.06-4.15,0.09-6.22,0.15c-3.07,0.09-6.14,0.19-9.21,0.28
			c-6.72,0.19-13.43,0.38-20.15,0.57c-3.68,0.11-7.37,0.24-11.05,0.35c-10.25,0.31-20.49,0.61-30.74,0.91
			c-8.06,0.24-16.12,0.47-24.18,0.7c-4.57,0.13-9.13,0.28-13.7,0.41c-5.03,0.14-10.06,0.28-15.08,0.42
			c-3.26,0.1-6.52,0.22-9.78,0.32c-7.48,0.23-14.96,0.45-22.45,0.67C8.07,48.75,7.03,48.79,6,48.8C4.96,48.8,3.93,48.94,2.89,48.77z
			 M355.68,240.24c0-9.44,0-18.88,0-28.33c0-1.47-0.16-1.28,1.29-1.28c6.49-0.01,12.97,0,19.46,0c0.31,0,0.61,0,0.92,0
			c0.12,0,0.23,0,0.35-0.01c0.24-0.01,0.37-0.12,0.37-0.34c0-1.19,0.01-2.38,0.01-3.57c-0.01-1.47,0.19-1.27-1.28-1.27
			c-16.08,0-32.17,0-48.25,0c-0.19,0-0.38,0-0.58,0c-0.12,0-0.23,0-0.35,0.01c-0.22,0.01-0.36,0.13-0.36,0.35
			c-0.01,1.27-0.01,2.53-0.01,3.8c0,1.12-0.08,1.03,1.07,1.03c6.56,0,13.13,0,19.69,0c0.38,0,0.77,0,1.15,0.01
			c0.21,0,0.36,0.15,0.37,0.35c0.01,0.38,0.02,0.77,0.02,1.15c0,13.86,0,27.71,0,41.57c0,4.91,0,9.83,0,14.74
			c0,0.34,0.02,0.69,0.05,1.03c0,0.06,0.09,0.13,0.15,0.16c0.06,0.04,0.15,0.05,0.22,0.05c1.77,0,3.53,0,5.3,0
			c0.07,0,0.16-0.01,0.22-0.05c0.06-0.03,0.14-0.1,0.15-0.16c0.03-0.38,0.05-0.76,0.05-1.15
			C355.68,258.97,355.68,249.61,355.68,240.24z M105.55,131.66c2.19,0,3.57-0.16,5.25-0.59c1.04-0.27,2.06-0.6,3.04-1.04
			c2.7-1.21,5.07-2.84,6.98-5.14c2.23-2.68,3.77-5.68,4.47-9.1c0.34-1.66,0.47-3.34,0.34-5.04c-0.1-1.31-0.28-2.6-0.58-3.87
			c-0.37-1.54-0.87-3.02-1.69-4.39c-0.56-0.92-1.15-1.81-1.8-2.67c-0.14-0.18-0.25-0.38-0.36-0.58c-0.03-0.05-0.01-0.16,0.03-0.21
			c0.13-0.14,0.26-0.28,0.42-0.38c1.57-1.11,3.13-2.22,4.7-3.32c2.55-1.78,5.1-3.56,7.64-5.35c3.27-2.29,6.54-4.58,9.8-6.88
			c3.77-2.64,7.55-5.28,11.32-7.93c3.14-2.2,6.29-4.41,9.43-6.61c2.95-2.08,5.89-4.16,8.85-6.24c2.92-2.05,5.86-4.08,8.78-6.13
			c2.01-1.41,4.01-2.84,6.02-4.25c2.1-1.48,4.21-2.96,6.31-4.44c1.82-1.28,3.65-2.55,5.47-3.82c3.11-2.18,6.22-4.37,9.33-6.55
			c0.38-0.26,0.76-0.52,1.13-0.8c0.18-0.14,0.34-0.31,0.47-0.49c0.18-0.25,0.15-0.6-0.05-0.86c-0.19-0.24-0.45-0.3-0.72-0.24
			c-0.18,0.04-0.37,0.12-0.52,0.22c-0.54,0.36-1.08,0.74-1.61,1.11c-3.96,2.78-7.92,5.55-11.88,8.33
			c-3.46,2.43-6.91,4.86-10.36,7.28c-2.61,1.83-5.22,3.65-7.83,5.48c-2.26,1.59-4.51,3.19-6.78,4.78
			c-3.62,2.53-7.24,5.05-10.85,7.58c-1.98,1.39-3.95,2.79-5.93,4.18c-3.04,2.14-6.09,4.29-9.14,6.42c-2.42,1.7-4.85,3.38-7.26,5.08
			c-3.05,2.14-6.09,4.29-9.13,6.43c-2.17,1.52-4.34,3.04-6.51,4.56c-0.69,0.48-1.38,0.97-2.08,1.45c-0.27,0.19-0.37,0.15-0.62-0.06
			c-0.12-0.1-0.22-0.21-0.32-0.33c-0.76-0.82-1.67-1.48-2.61-2.07c-2.09-1.33-4.37-2.24-6.8-2.74c-2.75-0.56-5.49-0.51-8.24,0.03
			c-1.09,0.22-2.16,0.55-3.19,0.98c-1.99,0.84-3.83,1.94-5.45,3.39c-1.07,0.94-2.09,1.92-2.94,3.07c-1.59,2.16-2.72,4.54-3.42,7.12
			c-0.5,1.83-0.62,3.7-0.57,5.59c0.04,1.5,0.27,2.98,0.67,4.43c0.23,0.85,0.53,1.68,0.86,2.5c0.19,0.47,0.16,0.59-0.22,0.88
			c-0.15,0.12-0.31,0.23-0.46,0.34c-1.9,1.36-3.81,2.73-5.71,4.09c-0.5,0.36-0.99,0.72-1.49,1.08c-0.25,0.18-0.47,0.39-0.63,0.66
			c-0.21,0.37,0.02,0.91,0.44,1.01c0.24,0.05,0.47,0.03,0.67-0.07c0.2-0.1,0.39-0.25,0.57-0.38c2.4-1.72,4.8-3.45,7.2-5.18
			c0.09-0.07,0.19-0.12,0.29-0.18c0.2-0.12,0.38-0.09,0.5,0.08c0.09,0.13,0.16,0.26,0.24,0.39c0.39,0.57,0.77,1.15,1.19,1.7
			c1.04,1.39,2.31,2.56,3.67,3.64c1.61,1.28,3.41,2.21,5.33,2.91C101.38,131.33,103.61,131.69,105.55,131.66z M108.89,334.96
			c2.28-0.04,5.58-0.11,8.88-0.16c8.64-0.14,17.27-0.27,25.91-0.41c11.13-0.17,22.26-0.35,33.39-0.52
			c9.1-0.14,18.19-0.29,27.29-0.43c1.96-0.03,3.91-0.05,5.87-0.09c0.34-0.01,0.69-0.02,1.03-0.08c0.47-0.08,0.71-0.65,0.49-1.09
			c-0.13-0.27-0.37-0.39-0.65-0.42c-0.34-0.04-0.69-0.03-1.03-0.03c-2.3,0.04-4.61,0.08-6.91,0.12c-9.06,0.14-18.11,0.29-27.17,0.43
			c-5.64,0.09-11.28,0.17-16.93,0.26c-6.87,0.1-13.74,0.2-20.61,0.31c-13.16,0.21-26.33,0.42-39.49,0.63
			c-9.33,0.15-18.65,0.3-27.98,0.44c-7.68,0.12-15.35,0.22-23.03,0.34c-6.95,0.11-13.89,0.23-20.84,0.34
			c-7.1,0.11-14.2,0.22-21.3,0.33c-0.35,0.01-0.69,0-1.03,0.03c-0.19,0.02-0.38,0.08-0.55,0.16c-0.44,0.2-0.52,0.84-0.15,1.16
			c0.18,0.16,0.39,0.26,0.62,0.27c0.27,0.01,0.54,0.01,0.81,0.01c6.26-0.1,12.51-0.21,18.77-0.31c11.55-0.18,23.1-0.36,34.66-0.54
			c8.37-0.13,16.73-0.27,25.1-0.39C91.97,335.2,99.92,335.09,108.89,334.96z M18.34,329.24c0.28,0.02,0.53-0.08,0.78-0.17
			c1.58-0.6,3.16-1.19,4.73-1.8c2.18-0.84,4.36-1.71,6.54-2.55c3.47-1.33,6.95-2.65,10.43-3.98c2.76-1.05,5.52-2.11,8.28-3.17
			c3.08-1.18,6.16-2.36,9.24-3.54c3.15-1.21,6.3-2.44,9.45-3.65c4.3-1.65,8.6-3.29,12.9-4.93c2.47-0.95,4.95-1.89,7.42-2.83
			c1.43-0.55,2.86-1.11,4.29-1.67c0.21-0.08,0.42-0.19,0.61-0.31c0.3-0.2,0.4-0.59,0.27-0.92c-0.12-0.31-0.51-0.53-0.85-0.45
			c-0.3,0.07-0.59,0.17-0.88,0.28c-1.11,0.42-2.22,0.86-3.33,1.28c-3.69,1.42-7.38,2.83-11.07,4.24c-1.4,0.53-2.8,1.06-4.2,1.59
			c-1.72,0.66-3.44,1.32-5.16,1.98c-2.18,0.84-4.37,1.69-6.55,2.53c-2.29,0.88-4.59,1.76-6.88,2.64c-1.97,0.76-3.94,1.51-5.91,2.27
			c-1.94,0.74-3.88,1.47-5.81,2.21c-1.47,0.56-2.93,1.14-4.4,1.7c-2.94,1.13-5.87,2.26-8.81,3.38c-2.26,0.87-4.51,1.73-6.77,2.6
			c-1.4,0.54-2.8,1.07-4.19,1.62c-0.21,0.08-0.42,0.2-0.6,0.33c-0.24,0.16-0.34,0.55-0.24,0.83
			C17.74,329.03,18.03,329.24,18.34,329.24z"/>
    <path class="st1" d="M98.56,226.06c-0.17-9.11-0.35-18.4-0.52-27.69c-0.06-3.11-0.12-6.22-0.19-9.33
			c-0.1-4.84-0.22-9.67-0.32-14.51c-0.07-3.3-0.11-6.6-0.17-9.9c-0.05-2.53-0.11-5.07-0.16-7.6c-0.01-0.35-0.01-0.69,0.02-1.04
			c0.01-0.15,0.08-0.3,0.14-0.43c0.13-0.27,0.5-0.43,0.78-0.34c0.15,0.05,0.29,0.1,0.42,0.18c0.66,0.4,1.27,0.85,1.79,1.43
			c0.87,0.97,1.75,1.93,2.62,2.9c2.44,2.71,4.87,5.42,7.32,8.13c1.06,1.17,2.14,2.31,3.22,3.45c0.2,0.21,0.29,0.44,0.3,0.72
			c0.1,1.72,0.15,3.45,0.16,5.18c0.06,9.18,0.13,18.35,0.19,27.53c0.04,6.33,0.07,12.67,0.11,19c0.08,11.59,0.18,23.19,0.26,34.78
			c0.08,11.29,0.14,22.57,0.21,33.86c0.01,1.15-0.02,2.3-0.03,3.45c0,0.19-0.03,0.38-0.04,0.57c-0.02,0.16-0.14,0.29-0.3,0.3
			c-0.34,0.03-0.69,0.06-1.03,0.07c-1.84,0.05-3.68,0.05-5.52-0.04c-1.11-0.05-2.23-0.03-3.34-0.03c-1.23,0-2.46,0.01-3.69,0.02
			c-0.19,0-0.39,0-0.57-0.04c-0.09-0.02-0.19-0.12-0.23-0.21c-0.05-0.1-0.05-0.22-0.05-0.34c-0.06-3.07-0.1-6.14-0.16-9.21
			c-0.18-9.71-0.37-19.42-0.56-29.13c-0.06-3.15-0.15-6.29-0.21-9.44c-0.1-5.1-0.19-10.21-0.3-15.31
			C98.68,230.77,98.62,228.5,98.56,226.06z"/>
    <path class="st2" d="M150.39,269.69c-0.96,0-1.92,0-2.88,0c-0.34,0-0.44-0.09-0.55-0.46c-0.46-1.62-0.91-3.25-1.36-4.87
			c-2.28-8.24-4.57-16.47-6.85-24.71c-2.26-8.16-4.52-16.33-6.77-24.49c-0.8-2.88-1.6-5.76-2.4-8.64c-0.07-0.26-0.13-0.52-0.19-0.78
			c-0.04-0.17,0.06-0.27,0.26-0.28c0.08,0,0.15-0.01,0.23-0.01c1.8,0,3.61,0,5.41,0c0.11,0,0.23,0,0.34,0.02
			c0.11,0.02,0.22,0.05,0.26,0.19c0.23,0.85,0.47,1.7,0.69,2.55c2.64,10.21,5.27,20.41,7.92,30.62c1.9,7.35,3.81,14.69,5.72,22.04
			c0.05,0.18,0.13,0.35,0.2,0.53c0.01,0.03,0.06,0.05,0.09,0.06c0.02,0.01,0.07-0.01,0.08-0.03c0.09-0.21,0.2-0.41,0.26-0.63
			c1.1-3.95,2.19-7.91,3.29-11.86c1.87-6.72,3.74-13.44,5.62-20.16c2.04-7.31,4.07-14.62,6.11-21.93c0.1-0.37,0.2-0.74,0.31-1.11
			c0.04-0.15,0.19-0.26,0.33-0.28c0.08-0.01,0.15-0.02,0.23-0.02c2.23,0,4.45,0,6.68,0c0.11,0,0.23,0.01,0.34,0.04
			c0.06,0.02,0.15,0.07,0.17,0.13c0.09,0.21,0.17,0.43,0.24,0.65c2.85,10.19,5.7,20.38,8.55,30.56c2.23,7.97,4.46,15.95,6.69,23.92
			c0.06,0.22,0.15,0.43,0.23,0.65c0.01,0.03,0.06,0.09,0.07,0.09c0.06-0.03,0.15-0.05,0.18-0.1c0.07-0.13,0.12-0.28,0.16-0.43
			c2.22-8.49,4.44-16.98,6.65-25.48c2.49-9.57,4.98-19.14,7.47-28.71c0.09-0.33,0.18-0.67,0.27-1c0.04-0.15,0.19-0.27,0.33-0.28
			c0.04,0,0.08-0.01,0.11-0.01c1.8,0,3.61,0,5.41,0.01c0.16,0,0.29,0.16,0.26,0.29c-0.03,0.11-0.06,0.22-0.09,0.33
			c-1.39,5.02-2.78,10.05-4.16,15.07c-2.26,8.2-4.52,16.41-6.78,24.61c-2.14,7.76-4.29,15.52-6.43,23.28
			c-0.04,0.15-0.07,0.3-0.15,0.43c-0.05,0.09-0.16,0.15-0.26,0.2c-0.06,0.03-0.15,0.02-0.23,0.02c-1.84,0-3.69,0-5.53,0
			c-0.44,0-0.49-0.04-0.62-0.51c-0.36-1.25-0.72-2.51-1.07-3.76c-2.66-9.37-5.31-18.73-7.97-28.1c-2.11-7.45-4.21-14.9-6.32-22.35
			c-0.23-0.81-0.46-1.62-0.69-2.43c-0.05-0.19-0.11-0.22-0.21-0.19c-0.13,0.05-0.17,0.14-0.2,0.25c-0.62,2.18-1.23,4.35-1.84,6.53
			c-2.2,7.82-4.4,15.64-6.6,23.47c-2.41,8.56-4.82,17.12-7.23,25.68c-0.09,0.33-0.18,0.67-0.27,1c-0.08,0.29-0.22,0.4-0.48,0.41
			c-0.31,0.01-0.61,0-0.92,0.01C151.78,269.7,151.08,269.7,150.39,269.69C150.39,269.7,150.39,269.69,150.39,269.69z"/>
    <path class="st1" d="M321.2,237.54c0,10.21,0,20.42,0,30.64c0,0.35,0,0.69,0,1.04c-0.01,0.36-0.12,0.47-0.49,0.47
			c-1.96,0-3.92,0-5.87,0.01c-0.3,0-0.51-0.1-0.68-0.35c-0.19-0.29-0.4-0.57-0.59-0.85c-11.95-17.35-23.9-34.7-35.85-52.05
			c-0.22-0.31-0.44-0.62-0.68-0.92c-0.03-0.03-0.13-0.01-0.2,0c-0.03,0-0.07,0.05-0.07,0.07c-0.01,0.35-0.02,0.69-0.02,1.04
			c0,8.14,0,16.28,0,24.42c0,9.06,0,18.12,0,27.18c0,0.38-0.01,0.77-0.02,1.15c0,0.13-0.17,0.29-0.3,0.3
			c-0.04,0-0.08,0.01-0.11,0.01c-1.77,0-3.53,0-5.3-0.01c-0.2,0-0.35-0.16-0.36-0.36c0-0.12,0-0.23-0.01-0.35c0-0.19,0-0.38,0-0.58
			c0-20.58,0-41.16,0-61.73c0-0.35,0.01-0.69,0.03-1.04c0-0.06,0.1-0.11,0.16-0.16c0.03-0.02,0.07-0.01,0.11-0.01
			c2.07,0,4.15-0.01,6.22-0.01c0.2,0,0.37,0.07,0.49,0.24c0.19,0.29,0.4,0.56,0.6,0.85c11.93,17.32,23.85,34.64,35.78,51.96
			c0.24,0.35,0.48,0.7,0.73,1.04c0.03,0.04,0.14,0.07,0.2,0.05c0.06-0.01,0.12-0.09,0.13-0.15c0.02-0.11,0.02-0.23,0.02-0.34
			c0-0.35,0-0.69,0-1.04c0-17.08,0-34.17,0-51.25c0-0.38,0.01-0.77,0.03-1.15c0-0.06,0.08-0.13,0.14-0.17
			c0.06-0.03,0.15-0.03,0.22-0.03c1.77,0,3.53,0,5.3,0c0.07,0,0.16,0,0.22,0.04c0.06,0.03,0.12,0.1,0.15,0.16
			c0.03,0.07,0.02,0.15,0.03,0.23c0,0.38,0,0.77,0,1.15C321.2,217.2,321.2,227.37,321.2,237.54z"/>
    <path class="st2" d="M217.38,237.49c0-10.25,0-20.5,0-30.75c0-1.49-0.17-1.3,1.26-1.3c13.94,0,27.87,0,41.81,0
			c0.31,0,0.61,0,0.92,0.01c0.23,0.01,0.34,0.12,0.34,0.36c0,1.5,0,2.99,0,4.49c0,0.14-0.15,0.31-0.27,0.32
			c-0.11,0.01-0.23,0.01-0.35,0.01c-0.31,0-0.61,0-0.92,0c-11.75,0-23.5,0-35.24,0c-0.38,0-0.77,0.01-1.15,0.02
			c-0.13,0-0.3,0.17-0.3,0.3c-0.01,0.23-0.01,0.46-0.01,0.69c0,7.1,0,14.2,0,21.31c0,0.23,0.01,0.46,0.03,0.69
			c0.01,0.06,0.09,0.13,0.15,0.16c0.06,0.03,0.15,0.04,0.22,0.04c0.35,0.01,0.69,0.01,1.04,0.01c10.98,0,21.96,0,32.94,0
			c0.38,0,0.77,0.01,1.15,0.02c0.14,0,0.28,0.15,0.29,0.3c0,0.04,0.02,0.08,0.02,0.11c0,1.46,0,2.92,0,4.38
			c0,0.04-0.01,0.08-0.02,0.11c-0.01,0.15-0.15,0.29-0.29,0.3c-0.38,0.01-0.77,0.02-1.15,0.02c-10.98,0-21.96,0-32.94,0
			c-0.38,0-0.77,0.01-1.15,0.02c-0.14,0-0.27,0.15-0.28,0.3c-0.01,0.31-0.01,0.61-0.01,0.92c0,7.6,0,15.2,0,22.8
			c0,1.46-0.17,1.31,1.26,1.31c11.98,0,23.96,0,35.93,0c0.38,0,0.77,0,1.15,0.01c0.21,0,0.34,0.14,0.34,0.37c0,1.5,0,2.99,0,4.49
			c0,0.2-0.16,0.35-0.36,0.36c-0.08,0-0.15,0.01-0.23,0.01c-0.23,0-0.46,0-0.69,0c-14.09,0-28.18,0-42.27,0
			c-0.34,0-0.69-0.02-1.03-0.04c-0.05,0-0.13-0.09-0.15-0.15c-0.04-0.11-0.05-0.22-0.06-0.33c-0.01-0.35,0-0.69,0-1.04
			C217.38,257.92,217.38,247.71,217.38,237.49z"/>
    <path class="st3" d="M2.89,48.77C3.93,48.94,4.96,48.8,6,48.8c1.04,0,2.07-0.05,3.11-0.08c7.48-0.22,14.97-0.44,22.45-0.67
			c3.26-0.1,6.52-0.22,9.78-0.32c5.03-0.15,10.05-0.28,15.08-0.42c4.57-0.13,9.13-0.28,13.7-0.41c8.06-0.24,16.12-0.47,24.18-0.7
			c10.25-0.3,20.49-0.61,30.74-0.91c3.68-0.11,7.37-0.24,11.05-0.35c6.72-0.2,13.43-0.38,20.15-0.57c3.07-0.09,6.14-0.19,9.21-0.28
			c2.07-0.06,4.15-0.09,6.22-0.15c3.91-0.11,7.83-0.24,11.74-0.35c0.38-0.01,0.77-0.01,1.15,0c0.24,0.01,0.44,0.12,0.62,0.27
			c0.3,0.27,0.29,0.77-0.04,1.01c-0.15,0.11-0.33,0.2-0.51,0.24c-0.26,0.05-0.53,0.05-0.8,0.06c-6.37,0.19-12.74,0.39-19.11,0.58
			c-4.61,0.14-9.21,0.25-13.82,0.39c-3.3,0.1-6.6,0.22-9.9,0.31c-4.53,0.13-9.06,0.25-13.59,0.38c-4.34,0.13-8.67,0.27-13.01,0.4
			c-4.41,0.13-8.83,0.27-13.24,0.4c-4.53,0.13-9.06,0.25-13.59,0.39c-8.4,0.25-16.81,0.51-25.21,0.76
			c-4.07,0.12-8.14,0.22-12.2,0.34c-5.49,0.16-10.97,0.34-16.46,0.51c-2.65,0.08-5.3,0.13-7.94,0.21
			c-6.52,0.19-13.05,0.39-19.57,0.6c-0.27,0.01-0.53,0.04-0.8,0.07c-0.07,0.01-0.17,0.22-0.13,0.28c0.08,0.13,0.15,0.27,0.25,0.38
			c0.33,0.38,0.66,0.75,1,1.12c2.63,2.9,5.26,5.8,7.88,8.7c2.16,2.39,4.3,4.81,6.45,7.21c0.51,0.57,1.04,1.13,1.56,1.7
			c0.17,0.18,0.36,0.26,0.62,0.22c0.38-0.06,0.76-0.11,1.14-0.12c5.3-0.16,10.59-0.3,15.89-0.46c3.57-0.11,7.14-0.24,10.71-0.34
			c5.45-0.16,10.9-0.28,16.35-0.44c8.17-0.24,16.35-0.49,24.52-0.74c6.14-0.18,12.28-0.36,18.42-0.54c4.8-0.14,9.59-0.3,14.39-0.44
			c5.68-0.17,11.36-0.32,17.04-0.49c3.53-0.1,7.06-0.22,10.59-0.33c0.46-0.01,0.92-0.03,1.38-0.03c0.19,0,0.38,0.03,0.57,0.07
			c0.34,0.08,0.6,0.44,0.57,0.77c-0.02,0.29-0.26,0.6-0.56,0.66c-0.26,0.06-0.53,0.09-0.8,0.1c-1.57,0.06-3.15,0.11-4.72,0.16
			c-7.37,0.23-14.74,0.45-22.1,0.67c-3.53,0.1-7.06,0.18-10.59,0.28c-4.07,0.11-8.14,0.24-12.2,0.35c-7.1,0.21-14.2,0.41-21.3,0.62
			c-6.56,0.2-13.12,0.42-19.69,0.61c-4.14,0.13-8.29,0.22-12.43,0.35c-5.6,0.16-11.21,0.34-16.81,0.51
			c-2.72,0.08-5.45,0.16-8.17,0.24c-0.23,0.01-0.46,0.02-0.69,0.05c-0.06,0.01-0.13,0.07-0.18,0.12c-0.11,0.11-0.02,0.22,0.03,0.31
			c0.06,0.1,0.14,0.18,0.22,0.27c1.74,1.95,3.47,3.9,5.22,5.84c1.72,1.91,3.46,3.81,5.18,5.72c2.16,2.4,4.31,4.8,6.46,7.2
			c1.18,1.31,2.38,2.61,3.56,3.92c3.03,3.36,6.06,6.73,9.1,10.1c3.52,3.91,7.04,7.81,10.56,11.72c3.11,3.45,6.21,6.91,9.32,10.36
			c1.88,2.08,3.77,4.15,5.64,6.23c2.85,3.17,5.68,6.35,8.53,9.52c1.15,1.28,2.33,2.55,3.49,3.83c0.28,0.31,0.55,0.64,0.8,0.98
			c0.14,0.19,0.17,0.43,0.09,0.66c-0.14,0.42-0.63,0.63-1.03,0.45c-0.29-0.13-0.51-0.34-0.71-0.57c-0.48-0.55-0.97-1.09-1.46-1.63
			c-2.6-2.88-5.2-5.75-7.8-8.63c-1.77-1.97-3.53-3.95-5.3-5.92c-2.62-2.91-5.25-5.81-7.87-8.72c-1-1.11-1.99-2.24-2.99-3.35
			c-2-2.22-4.01-4.44-6.02-6.67c-1.8-2-3.59-4-5.39-5.99c-2.41-2.68-4.83-5.36-7.25-8.04c-2.34-2.59-4.68-5.19-7.02-7.78
			c-2.95-3.28-5.9-6.56-8.86-9.84c-2-2.22-4.01-4.45-6.01-6.67c-1.93-2.13-3.87-4.26-5.8-6.4c-1.46-1.62-2.91-3.27-4.37-4.89
			c-1.72-1.91-3.44-3.82-5.16-5.73c-1.7-1.88-3.4-3.76-5.1-5.64c-0.51-0.57-1.03-1.14-1.55-1.71c-0.15-0.17-0.31-0.34-0.45-0.53
			C2.31,50,2.25,49.86,2.2,49.71C2.04,49.24,2.4,48.75,2.89,48.77z"/>
    <path class="st2" d="M355.68,240.24c0,9.37,0,18.73,0,28.1c0,0.38-0.02,0.77-0.05,1.15c0,0.06-0.09,0.12-0.15,0.16
			c-0.06,0.03-0.15,0.05-0.22,0.05c-1.77,0-3.53,0-5.3,0c-0.08,0-0.16-0.01-0.22-0.05c-0.06-0.03-0.14-0.1-0.15-0.16
			c-0.03-0.34-0.05-0.69-0.05-1.03c0-4.91,0-9.83,0-14.74c0-13.86,0-27.71,0-41.57c0-0.38-0.01-0.77-0.02-1.15
			c0-0.2-0.16-0.34-0.37-0.35c-0.38-0.01-0.77-0.01-1.15-0.01c-6.56,0-13.13,0-19.69,0c-1.15,0-1.07,0.09-1.07-1.03
			c0-1.27,0-2.53,0.01-3.8c0-0.22,0.14-0.34,0.36-0.35c0.12,0,0.23-0.01,0.35-0.01c0.19,0,0.38,0,0.58,0c16.08,0,32.17,0,48.25,0
			c1.47,0,1.27-0.2,1.28,1.27c0.01,1.19,0,2.38-0.01,3.57c0,0.22-0.13,0.33-0.37,0.34c-0.11,0-0.23,0.01-0.35,0.01
			c-0.31,0-0.61,0-0.92,0c-6.49,0-12.97,0-19.46,0c-1.45,0-1.29-0.19-1.29,1.28C355.68,221.36,355.68,230.8,355.68,240.24z"/>
    <path class="st4" d="M105.55,131.66c-1.94,0.02-4.17-0.33-6.32-1.11c-1.92-0.7-3.73-1.62-5.33-2.91
			c-1.35-1.08-2.62-2.25-3.67-3.64c-0.41-0.55-0.79-1.13-1.19-1.7c-0.09-0.13-0.16-0.26-0.24-0.39c-0.11-0.17-0.3-0.2-0.5-0.08
			c-0.1,0.06-0.2,0.12-0.29,0.18c-2.4,1.73-4.8,3.45-7.2,5.18c-0.19,0.13-0.37,0.28-0.57,0.38c-0.21,0.11-0.44,0.13-0.67,0.07
			c-0.42-0.1-0.66-0.64-0.44-1.01c0.16-0.27,0.38-0.48,0.63-0.66c0.5-0.36,0.99-0.72,1.49-1.08c1.9-1.36,3.81-2.73,5.71-4.09
			c0.16-0.11,0.31-0.23,0.46-0.34c0.38-0.29,0.42-0.41,0.22-0.88c-0.34-0.82-0.63-1.65-0.86-2.5c-0.4-1.45-0.63-2.92-0.67-4.43
			c-0.05-1.89,0.07-3.76,0.57-5.59c0.7-2.58,1.83-4.96,3.42-7.12c0.85-1.15,1.87-2.13,2.94-3.07c1.63-1.44,3.46-2.55,5.45-3.39
			c1.02-0.43,2.09-0.76,3.19-0.98c2.74-0.55,5.49-0.6,8.24-0.03c2.43,0.5,4.7,1.41,6.8,2.74c0.94,0.6,1.84,1.25,2.61,2.07
			c0.1,0.11,0.21,0.23,0.32,0.33c0.25,0.21,0.34,0.24,0.62,0.06c0.7-0.48,1.39-0.96,2.08-1.45c2.17-1.52,4.34-3.04,6.51-4.56
			c3.05-2.14,6.09-4.29,9.13-6.43c2.42-1.7,4.84-3.39,7.26-5.08c3.05-2.14,6.09-4.28,9.14-6.42c1.98-1.39,3.95-2.79,5.93-4.18
			c3.62-2.53,7.24-5.05,10.85-7.58c2.26-1.59,4.51-3.19,6.78-4.78c2.61-1.83,5.22-3.65,7.83-5.48c3.46-2.43,6.91-4.86,10.36-7.28
			c3.96-2.78,7.92-5.56,11.88-8.33c0.53-0.37,1.07-0.75,1.61-1.11c0.16-0.1,0.34-0.18,0.52-0.22c0.28-0.06,0.53,0.01,0.72,0.24
			c0.2,0.25,0.24,0.61,0.05,0.86c-0.14,0.18-0.29,0.36-0.47,0.49c-0.36,0.28-0.75,0.53-1.13,0.8c-3.11,2.18-6.22,4.37-9.33,6.55
			c-1.82,1.28-3.65,2.55-5.47,3.82c-2.11,1.48-4.21,2.96-6.31,4.44c-2.01,1.42-4.01,2.84-6.02,4.25c-2.92,2.05-5.86,4.08-8.78,6.13
			c-2.95,2.07-5.9,4.16-8.85,6.24c-3.14,2.21-6.28,4.41-9.43,6.61c-3.77,2.64-7.55,5.28-11.32,7.93c-3.27,2.29-6.54,4.59-9.8,6.88
			c-2.55,1.78-5.1,3.56-7.64,5.35c-1.57,1.1-3.14,2.21-4.7,3.32c-0.15,0.11-0.29,0.24-0.42,0.38c-0.04,0.04-0.06,0.16-0.03,0.21
			c0.11,0.2,0.22,0.4,0.36,0.58c0.65,0.86,1.25,1.75,1.8,2.67c0.82,1.37,1.32,2.85,1.69,4.39c0.31,1.27,0.48,2.56,0.58,3.87
			c0.13,1.7,0,3.38-0.34,5.04c-0.71,3.42-2.25,6.42-4.47,9.1c-1.91,2.3-4.28,3.93-6.98,5.14c-0.99,0.44-2,0.78-3.04,1.04
			C109.12,131.5,107.74,131.66,105.55,131.66z M105.91,129.99c0,0.01,0,0.02,0,0.03c0.84-0.04,1.69-0.02,2.53-0.13
			c1.91-0.27,3.73-0.86,5.46-1.71c1.77-0.87,3.39-1.94,4.76-3.37c0.19-0.19,0.39-0.37,0.57-0.57c0.95-1.01,1.82-2.09,2.43-3.34
			c0.67-1.38,1.33-2.76,1.7-4.26c0.32-1.27,0.62-2.53,0.61-3.85c-0.01-1.23-0.02-2.44-0.2-3.67c-0.21-1.46-0.6-2.85-1.17-4.2
			c-0.62-1.49-1.48-2.86-2.42-4.17c-0.31-0.44-0.65-0.5-1.09-0.23c-0.26,0.16-0.51,0.33-0.76,0.51c-0.63,0.44-1.24,0.9-1.87,1.33
			c-1.13,0.79-2.26,1.58-3.4,2.36c-0.25,0.17-0.52,0.33-0.79,0.47c-0.21,0.11-0.45,0.09-0.67,0.04c-0.43-0.1-0.66-0.64-0.44-1.01
			c0.06-0.1,0.12-0.2,0.2-0.28c0.26-0.23,0.51-0.47,0.79-0.67c1.22-0.86,2.46-1.71,3.68-2.56c0.63-0.44,1.26-0.87,1.88-1.32
			c0.15-0.11,0.3-0.25,0.41-0.4c0.05-0.07,0.06-0.23,0.02-0.31c-0.06-0.13-0.17-0.25-0.28-0.36c-1.05-1.04-2.3-1.77-3.56-2.5
			c-1.04-0.6-2.18-0.95-3.32-1.28c-1.7-0.5-3.44-0.74-5.22-0.76c-1.23-0.01-2.45,0.17-3.65,0.42c-2.24,0.46-4.33,1.28-6.24,2.56
			c-1.42,0.94-2.62,2.12-3.79,3.34c-0.08,0.08-0.15,0.17-0.22,0.26c-1.09,1.44-2.11,2.93-2.73,4.64c-0.32,0.86-0.61,1.73-0.89,2.61
			c-0.28,0.88-0.36,1.81-0.44,2.72c-0.16,1.68-0.06,3.37,0.27,5.04c0.21,1.05,0.52,2.08,0.88,3.09c0.13,0.36,0.29,0.71,0.57,0.99
			c0.2,0.2,0.31,0.43,0.37,0.7c0.12,0.57,0.39,1.08,0.74,1.55c0.29,0.4,0.57,0.82,0.86,1.22c1.01,1.43,2.32,2.54,3.67,3.62
			c0.63,0.51,1.33,0.9,2.05,1.27c0.89,0.46,1.77,0.91,2.72,1.23c1.75,0.58,3.54,0.99,5.41,0.96
			C105.53,129.99,105.72,129.99,105.91,129.99z"/>
    <path class="st3" d="M108.89,334.96c-8.97,0.13-16.91,0.24-24.86,0.36c-8.37,0.13-16.73,0.26-25.1,0.39
			c-11.55,0.18-23.1,0.36-34.66,0.54c-6.26,0.1-12.51,0.21-18.77,0.31c-0.27,0-0.54,0-0.81-0.01c-0.24-0.01-0.44-0.11-0.62-0.27
			c-0.37-0.32-0.3-0.96,0.15-1.16c0.17-0.08,0.36-0.14,0.55-0.16c0.34-0.03,0.69-0.03,1.03-0.03c7.1-0.11,14.2-0.22,21.3-0.33
			c6.95-0.11,13.89-0.24,20.84-0.34c7.68-0.12,15.35-0.22,23.03-0.34c9.33-0.14,18.65-0.29,27.98-0.44
			c13.16-0.21,26.33-0.42,39.49-0.63c6.87-0.11,13.74-0.21,20.61-0.31c5.64-0.09,11.28-0.17,16.93-0.26
			c9.06-0.14,18.12-0.28,27.17-0.43c2.3-0.04,4.61-0.08,6.91-0.12c0.34-0.01,0.69-0.01,1.03,0.03c0.27,0.03,0.51,0.16,0.65,0.42
			c0.22,0.44-0.02,1.01-0.49,1.09c-0.34,0.06-0.69,0.07-1.03,0.08c-1.96,0.03-3.91,0.06-5.87,0.09c-9.1,0.14-18.19,0.29-27.29,0.43
			c-11.13,0.17-22.26,0.35-33.39,0.52c-8.64,0.13-17.27,0.27-25.91,0.41C114.47,334.85,111.16,334.92,108.89,334.96z"/>
    <path class="st3" d="M18.34,329.24c-0.31,0-0.6-0.2-0.7-0.5c-0.09-0.28,0.01-0.67,0.24-0.83c0.19-0.13,0.39-0.24,0.6-0.33
			c1.39-0.54,2.79-1.08,4.19-1.62c2.26-0.87,4.51-1.73,6.77-2.6c2.94-1.13,5.88-2.25,8.81-3.38c1.47-0.56,2.93-1.14,4.4-1.7
			c1.93-0.74,3.87-1.47,5.81-2.21c1.97-0.75,3.94-1.51,5.91-2.27c2.29-0.88,4.59-1.75,6.88-2.64c2.18-0.84,4.37-1.69,6.55-2.53
			c1.72-0.66,3.44-1.32,5.16-1.98c1.4-0.53,2.8-1.06,4.2-1.59c3.69-1.41,7.38-2.83,11.07-4.24c1.11-0.43,2.22-0.86,3.33-1.28
			c0.29-0.11,0.58-0.21,0.88-0.28c0.34-0.08,0.72,0.14,0.85,0.45c0.13,0.33,0.03,0.72-0.27,0.92c-0.19,0.13-0.4,0.23-0.61,0.31
			c-1.43,0.56-2.86,1.12-4.29,1.67c-2.47,0.95-4.95,1.89-7.42,2.83c-4.3,1.64-8.6,3.28-12.9,4.93c-3.15,1.21-6.3,2.44-9.45,3.65
			c-3.08,1.18-6.16,2.36-9.24,3.54c-2.76,1.06-5.52,2.12-8.28,3.17c-3.48,1.33-6.96,2.65-10.43,3.98c-2.19,0.84-4.36,1.7-6.54,2.55
			c-1.57,0.61-3.16,1.2-4.73,1.8C18.87,329.16,18.62,329.25,18.34,329.24z"/>
    <path class="st5" d="M105.91,129.99c-0.19,0-0.38,0-0.58,0c-1.87,0.03-3.65-0.37-5.41-0.96c-0.95-0.31-1.84-0.77-2.72-1.23
			c-0.72-0.37-1.41-0.77-2.05-1.27c-1.35-1.08-2.67-2.19-3.67-3.62c-0.29-0.41-0.57-0.82-0.86-1.22c-0.34-0.47-0.61-0.97-0.74-1.55
			c-0.06-0.27-0.18-0.5-0.37-0.7c-0.28-0.28-0.44-0.63-0.57-0.99c-0.36-1.01-0.67-2.04-0.88-3.09c-0.33-1.66-0.43-3.35-0.27-5.04
			c0.09-0.91,0.17-1.84,0.44-2.72c0.27-0.88,0.57-1.75,0.89-2.61c0.63-1.71,1.64-3.2,2.73-4.64c0.07-0.09,0.14-0.18,0.22-0.26
			c1.17-1.22,2.38-2.39,3.79-3.34c1.91-1.27,4-2.1,6.24-2.56c1.2-0.25,2.42-0.43,3.65-0.42c1.77,0.01,3.52,0.25,5.22,0.76
			c1.14,0.34,2.28,0.68,3.32,1.28c1.26,0.73,2.52,1.47,3.56,2.5c0.11,0.11,0.22,0.22,0.28,0.36c0.04,0.09,0.03,0.24-0.02,0.31
			c-0.11,0.15-0.25,0.29-0.41,0.4c-0.62,0.45-1.25,0.89-1.88,1.32c-1.23,0.85-2.46,1.7-3.68,2.56c-0.28,0.2-0.53,0.44-0.79,0.67
			c-0.08,0.08-0.14,0.18-0.2,0.28c-0.22,0.37,0.01,0.91,0.44,1.01c0.23,0.06,0.46,0.07,0.67-0.04c0.27-0.14,0.54-0.29,0.79-0.47
			c1.14-0.78,2.27-1.57,3.4-2.36c0.63-0.44,1.25-0.89,1.87-1.33c0.25-0.18,0.51-0.35,0.76-0.51c0.44-0.28,0.77-0.21,1.09,0.23
			c0.94,1.31,1.8,2.68,2.42,4.17c0.56,1.35,0.96,2.74,1.17,4.2c0.18,1.22,0.18,2.44,0.2,3.67c0.01,1.32-0.29,2.58-0.61,3.85
			c-0.38,1.5-1.03,2.89-1.7,4.26c-0.61,1.25-1.48,2.33-2.43,3.34c-0.18,0.19-0.39,0.37-0.57,0.57c-1.37,1.43-3,2.5-4.76,3.37
			c-1.73,0.85-3.55,1.44-5.46,1.71c-0.83,0.12-1.68,0.09-2.53,0.13C105.91,130.01,105.91,130,105.91,129.99z"/>
	</g>
</g>
</svg>
