<?xml version="1.0" encoding="utf-8"?>
<!-- Generator: Adobe Illustrator 24.0.1, SVG Export Plug-In . SVG Version: 6.00 Build 0)  -->
<svg version="1.1" id="Layer_1" xmlns="http://www.w3.org/2000/svg" xmlns:xlink="http://www.w3.org/1999/xlink" x="0px" y="0px"
	 viewBox="0 0 680.28 334.37" style="enable-background:new 0 0 680.28 334.37;" xml:space="preserve">
<style type="text/css">
	.st0{fill:#FEFEFE;}
	.st1{fill:#040404;}
	.st2{fill:#070707;}
	.st3{fill:#050505;}
	.st4{fill:#090909;}
	.st5{fill:#201F1F;}
	.st6{fill:#0E0E0E;}
	.st7{fill:#1A1C1A;}
	.st8{fill:#212020;}
	.st9{fill:#191818;}
	.st10{fill:#1B1A1A;}
	.st11{fill:#171717;}
	.st12{fill:#558F53;}
	.st13{fill:#F9F9F9;}
	.st14{fill:#F4F5F5;}
	.st15{fill:#F2F2F2;}
</style>
<g>
	<g>
		<path class="st0" d="M0,334.37c0-0.75,0-1.51,0-2.26c0-69.84,0-139.69,0-209.53C0,81.82,0,41.06,0,0.31C0,0,0,0,0.38,0
			C1,0,1.61,0,2.23,0c223.85,0,447.69,0,671.54,0c0.61,0,1.23,0,1.84,0c0.39,0,0.39,0,0.39,0.31c0,110.68,0,221.35,0,332.03
			c0,0.68,0,1.36,0,2.03C450.65,334.37,225.34,334.37,0,334.37z M189.5,265.4c0.15-0.43,0.33-0.86,0.31-1.33
			c-0.01-0.33-0.2-0.55-0.57-0.56c-0.08,0-0.15-0.01-0.23,0c-0.42,0.01-0.77,0.26-0.84,0.63c-0.27,1.27-0.53,2.55-0.8,3.82
			c-0.68,3.14-1.36,6.28-2.04,9.42c-0.02,0.07,0.02,0.15,0.01,0.23c-0.01,0.18,0.23,0.42,0.43,0.46c0.31,0.06,0.61,0.05,0.9-0.05
			c0.13-0.04,0.29-0.17,0.32-0.29c0.21-0.74,0.4-1.48,0.56-2.22c0.34-1.57,0.65-3.15,1-4.72c0.13-0.6,0.3-1.19,0.52-1.76
			c0.34-0.86,0.78-1.66,1.45-2.32c0.84-0.84,1.81-1.4,3.03-1.47c0.38-0.02,0.76-0.04,1.14-0.1c0.13-0.02,0.27-0.14,0.36-0.26
			c0.24-0.32,0.31-0.69,0.29-1.08c-0.01-0.18-0.1-0.29-0.25-0.34c-0.45-0.16-0.91-0.08-1.36-0.06c-0.96,0.04-1.78,0.42-2.52,1.01
			c-0.36,0.29-0.69,0.61-0.95,0.99C190.01,265.39,189.75,265.39,189.5,265.4z M249.8,263.59c-0.15-0.03-0.3-0.09-0.45-0.09
			c-0.62-0.03-0.9,0.15-1.02,0.67c-0.3,1.34-0.6,2.69-0.89,4.03c-0.58,2.69-1.12,5.39-1.74,8.08c-0.07,0.3-0.11,0.6-0.15,0.91
			c-0.02,0.15,0,0.3-0.01,0.46c0,0.18,0.25,0.42,0.45,0.43c0.15,0.01,0.31,0.02,0.46,0.02c0.4,0,0.76-0.27,0.84-0.64
			c0.21-0.97,0.42-1.94,0.63-2.91c0.31-1.42,0.61-2.84,0.93-4.26c0.25-1.13,0.7-2.18,1.36-3.14c0.62-0.9,1.42-1.6,2.4-2.08
			c0.14-0.07,0.28-0.13,0.42-0.17c0.91-0.24,1.82-0.26,2.72-0.01c0.15,0.04,0.29,0.11,0.42,0.18c0.89,0.52,1.21,1.34,1.22,2.32
			c0,0.23-0.05,0.46-0.1,0.68c-0.46,2.17-0.92,4.34-1.39,6.51c-0.21,0.97-0.44,1.94-0.59,2.92c-0.05,0.29,0.22,0.58,0.55,0.58
			c0.23,0,0.46,0.01,0.68-0.04c0.22-0.04,0.43-0.16,0.5-0.41c0.57-2.14,0.97-4.33,1.43-6.5c0.23-1.05,0.48-2.09,0.64-3.15
			c0.12-0.78,0.09-1.52-0.1-2.27c-0.28-1.14-1.03-1.86-2.1-2.25c-0.43-0.16-0.88-0.26-1.34-0.33c-0.37-0.06-0.77-0.08-1.14-0.04
			c-1,0.11-1.95,0.41-2.78,0.99c-0.38,0.26-0.75,0.54-1.04,0.9c-0.28,0.02-0.55-0.05-0.79-0.19c0.05-0.26,0.1-0.53,0.16-0.79
			c0.04-0.05,0.1-0.09,0.11-0.15C250.18,263.63,250.04,263.52,249.8,263.59z M526.05,264.72c-0.17-0.19-0.35-0.38-0.52-0.57
			c-0.2-0.72-0.46-0.68-1-0.65c-0.41,0.02-0.57,0.14-0.67,0.49c-0.13,0.44-0.26,0.88-0.36,1.33c-0.74,3.45-1.48,6.89-2.21,10.34
			c-0.13,0.6-0.21,1.21-0.31,1.81c-0.05,0.3,0.2,0.59,0.53,0.61c0.15,0.01,0.31-0.01,0.46,0c0.31,0.03,0.6-0.26,0.69-0.51
			c0.07-0.22,0.17-0.43,0.21-0.66c0.21-0.97,0.4-1.95,0.61-2.92c0.29-1.35,0.53-2.71,0.9-4.04c0.29-1.04,0.73-2.01,1.33-2.91
			c0.43-0.64,0.97-1.19,1.6-1.64c0.93-0.66,1.96-0.85,3.06-0.61c0.65,0.14,1.08,0.56,1.32,1.17c0.23,0.58,0.3,1.18,0.22,1.81
			c-0.18,1.45-0.56,2.86-0.85,4.28c-0.35,1.73-0.75,3.44-1.12,5.17c-0.03,0.14-0.03,0.31,0.02,0.45c0.04,0.13,0.15,0.31,0.26,0.34
			c0.37,0.11,0.76,0.11,1.12-0.04c0.15-0.06,0.27-0.17,0.3-0.32c0.2-0.82,0.4-1.64,0.58-2.46c0.33-1.5,0.63-3,0.97-4.49
			c0.21-0.9,0.49-1.77,0.84-2.62c0.3-0.71,0.68-1.37,1.18-1.96c0.85-1,1.93-1.48,3.24-1.42c0.3,0.01,0.61,0.07,0.91,0.13
			c0.15,0.03,0.3,0.07,0.43,0.15c0.64,0.36,1.04,0.91,1.13,1.64c0.1,0.77,0.01,1.53-0.16,2.28c-0.53,2.39-1.07,4.79-1.59,7.18
			c-0.11,0.52-0.26,1.05-0.2,1.59c0.01,0.12,0.14,0.3,0.26,0.34c0.21,0.07,0.45,0.07,0.68,0.08c0.33,0.01,0.63-0.19,0.73-0.45
			c0.05-0.14,0.13-0.28,0.16-0.43c0.63-2.92,1.25-5.84,1.88-8.77c0.14-0.68,0.16-1.37,0.11-2.06c-0.05-0.79-0.36-1.48-0.86-2.09
			c-0.35-0.43-0.78-0.73-1.31-0.89c-0.37-0.11-0.74-0.22-1.12-0.27c-0.38-0.05-0.77-0.07-1.15-0.03c-1.17,0.14-2.23,0.55-3.13,1.33
			c-0.35,0.3-0.66,0.65-0.99,0.96c-0.11,0.1-0.24,0.18-0.38,0.25c-0.04,0.02-0.14,0-0.16-0.04c-0.11-0.2-0.21-0.41-0.32-0.61
			c-0.11-0.2-0.21-0.41-0.35-0.6c-0.32-0.45-0.73-0.78-1.25-0.98c-0.96-0.37-1.92-0.44-2.93-0.16c-0.67,0.19-1.3,0.44-1.88,0.83
			C526.69,264.3,526.37,264.51,526.05,264.72z M378.97,264.91c0.12-0.28,0.23-0.56,0.2-0.88c-0.02-0.23-0.17-0.46-0.39-0.49
			c-0.15-0.02-0.3-0.04-0.46-0.04c-0.43,0.02-0.75,0.27-0.84,0.64c-0.17,0.75-0.35,1.49-0.5,2.24c-0.72,3.6-1.51,7.19-2.29,10.79
			c-0.03,0.15-0.01,0.3-0.01,0.46c0,0.19,0.24,0.43,0.45,0.44c0.15,0.01,0.31,0.03,0.46,0.03c0.44-0.01,0.78-0.25,0.86-0.61
			c0.48-2.25,0.95-4.49,1.45-6.74c0.26-1.2,0.69-2.35,1.36-3.4c0.45-0.72,1.01-1.35,1.69-1.86c0.7-0.53,1.49-0.77,2.36-0.78
			c0.39,0,0.77,0.06,1.12,0.2c0.14,0.05,0.28,0.14,0.39,0.23c0.48,0.42,0.77,0.95,0.83,1.59c0.07,0.77-0.02,1.52-0.19,2.28
			c-0.54,2.39-1.05,4.79-1.57,7.18c-0.1,0.45-0.13,0.91-0.19,1.36c-0.03,0.21,0.16,0.48,0.37,0.5c0.23,0.02,0.46,0.05,0.68,0.04
			c0.24-0.01,0.44-0.12,0.55-0.34c0.1-0.2,0.21-0.41,0.26-0.63c0.37-1.72,0.72-3.45,1.09-5.17c0.24-1.12,0.53-2.23,0.91-3.32
			c0.25-0.73,0.61-1.41,1.04-2.04c0.44-0.64,1-1.16,1.7-1.52c0.14-0.07,0.27-0.14,0.42-0.18c0.83-0.22,1.67-0.27,2.5-0.03
			c0.46,0.13,0.83,0.4,1.08,0.81c0.38,0.6,0.54,1.26,0.43,1.98c-0.03,0.23-0.08,0.45-0.13,0.68c-0.44,2.1-0.89,4.2-1.34,6.29
			c-0.19,0.9-0.4,1.79-0.59,2.69c-0.02,0.07,0.01,0.15,0,0.23c-0.02,0.2,0.17,0.47,0.36,0.52c0.3,0.07,0.61,0.08,0.91-0.01
			c0.22-0.06,0.41-0.19,0.47-0.44c0.55-2.15,0.96-4.33,1.43-6.5c0.22-1.05,0.45-2.1,0.64-3.15c0.17-0.94,0.07-1.84-0.24-2.71
			c-0.27-0.74-0.78-1.34-1.5-1.67c-0.77-0.35-1.6-0.55-2.46-0.47c-1.17,0.1-2.25,0.47-3.16,1.24c-0.29,0.24-0.56,0.52-0.84,0.78
			c-0.17,0.15-0.35,0.3-0.54,0.43c-0.04,0.03-0.14-0.03-0.21-0.04c-0.16-0.04-0.26-0.14-0.32-0.3c-0.48-1.3-1.51-1.87-2.8-2.07
			c-0.3-0.05-0.62-0.06-0.92-0.02c-1,0.13-1.95,0.41-2.78,1c-0.38,0.27-0.75,0.54-1.04,0.9
			C379.44,264.97,379.21,264.94,378.97,264.91z M119.7,206.43c-0.01,0-0.01,0-0.02,0c0.14,6.37,0.27,12.73,0.41,19.1
			c0.01,0.38,0.02,0.77,0.03,1.15c0.14,7.13,0.29,14.27,0.43,21.4c0.17,8.52,0.33,17.03,0.49,25.55c0.02,0.92,0.03,1.84,0.05,2.76
			c0,0.15,0.07,0.29,0.1,0.44c0.04,0.17,0.14,0.25,0.3,0.31c0.38,0.13,0.76,0.09,1.14,0.09c2.84-0.02,5.68-0.02,8.52,0.05
			c1.07,0.03,2.15,0,3.22-0.01c0.3,0,0.61-0.06,0.91-0.09c0.26-0.03,0.55-0.35,0.55-0.64c0.03-1,0.07-1.99,0.07-2.99
			c-0.01-3.84-0.03-7.67-0.06-11.51c-0.09-10.9-0.22-21.79-0.26-32.69c-0.1-24.17-0.34-48.34-0.5-72.51
			c-0.01-1.38-0.08-2.76-0.12-4.14c-0.01-0.33-0.11-0.56-0.35-0.82c-0.73-0.79-1.46-1.57-2.18-2.37c-3.24-3.59-6.48-7.18-9.73-10.76
			c-0.51-0.57-1.04-1.12-1.57-1.68c-0.37-0.39-0.8-0.71-1.26-0.99c-0.13-0.08-0.27-0.13-0.41-0.2c-0.42-0.19-1.01,0.15-1.04,0.6
			c-0.02,0.38-0.05,0.76-0.05,1.15c0.06,3.99,0.11,7.98,0.19,11.97c0.08,4.07,0.19,8.13,0.27,12.2c0.09,4.37,0.15,8.75,0.24,13.12
			c0.1,5.37,0.22,10.74,0.33,16.11C119.48,196.15,119.59,201.29,119.7,206.43z M210.68,244.48c0.72,0,1.25,0,1.79,0
			c1.39,0.01,1.6,0.01,1.9-1.38c0.08-0.37,0.23-0.73,0.33-1.1c1.6-5.84,3.2-11.68,4.81-17.52c1.92-6.94,3.85-13.88,5.78-20.83
			c1.96-7.09,3.91-14.18,5.87-21.28c0.14-0.52,0.27-1.04,0.4-1.56c0.08-0.31-0.16-0.63-0.46-0.63c-1.54-0.01-3.07-0.02-4.61-0.02
			c-0.15,0-0.3,0.03-0.46,0.04c-0.14,0.01-0.46,0.28-0.5,0.43c-0.29,0.95-0.52,1.92-0.77,2.88c-2.16,8.23-4.29,16.46-6.44,24.7
			c-2.3,8.82-4.62,17.65-6.9,26.48c-0.08,0.29-0.21,0.57-0.33,0.85c-0.03,0.06-0.1,0.12-0.16,0.16c-0.1,0.05-0.24-0.01-0.32-0.18
			c-0.13-0.28-0.24-0.57-0.32-0.86c-0.5-1.77-0.99-3.54-1.49-5.31c-1.75-6.28-3.49-12.55-5.24-18.83
			c-2.27-8.12-4.55-16.24-6.82-24.35c-0.48-1.7-0.95-3.4-1.42-5.09c-0.02-0.07-0.04-0.15-0.06-0.22c-0.12-0.38-0.47-0.68-0.83-0.68
			c-2.15,0-4.3,0-6.45,0.01c-0.29,0-0.65,0.25-0.71,0.49c-0.25,0.88-0.49,1.77-0.74,2.65c-2.09,7.45-4.19,14.9-6.27,22.36
			c-2.67,9.6-5.32,19.2-7.99,28.8c-0.1,0.37-0.26,0.72-0.4,1.07c-0.03,0.07-0.1,0.14-0.16,0.16c-0.1,0.03-0.24-0.06-0.32-0.22
			c-0.13-0.28-0.24-0.57-0.31-0.86c-0.73-2.82-1.45-5.64-2.18-8.46c-1.15-4.45-2.3-8.91-3.45-13.36c-1.15-4.45-2.32-8.9-3.47-13.35
			c-1.15-4.45-2.3-8.91-3.45-13.36c-0.46-1.78-0.93-3.56-1.4-5.34c-0.1-0.39-0.4-0.6-0.86-0.6c-1.76,0-3.53,0.01-5.29,0.01
			c-0.16,0-0.4,0.35-0.37,0.52c0.07,0.38,0.13,0.76,0.23,1.13c0.84,3.03,1.71,6.05,2.55,9.08c1.92,6.94,3.82,13.89,5.75,20.83
			c2.88,10.41,5.77,20.83,8.67,31.24c0.1,0.37,0.24,0.73,0.39,1.08c0.09,0.21,0.27,0.37,0.52,0.38c1.84,0.01,3.68,0.01,5.53,0.02
			c0.4,0,0.73-0.26,0.84-0.65c1.39-4.94,2.79-9.88,4.18-14.83c1.79-6.34,3.57-12.69,5.35-19.03c1.62-5.75,3.23-11.51,4.86-17.26
			c0.48-1.69,0.91-3.4,1.48-5.07c0.01-0.04,0.1-0.09,0.14-0.08c0.07,0.01,0.15,0.05,0.2,0.1c0.17,0.16,0.27,0.36,0.34,0.58
			c0.99,3.54,1.98,7.09,2.98,10.63c2.13,7.52,4.26,15.04,6.39,22.56c2.01,7.08,4.01,14.16,6.02,21.24c0.15,0.51,0.34,1.02,0.52,1.52
			c0.05,0.14,0.19,0.22,0.36,0.25C208.86,244.55,209.86,244.44,210.68,244.48z M342.36,212.38c0-9.75,0-19.49,0-29.24
			c0-0.69,0-1.38-0.01-2.07c-0.01-0.58-0.28-0.88-0.8-0.89c-0.92-0.01-1.84-0.02-2.76-0.01c-0.69,0.01-1.38,0.03-2.07,0.05
			c-0.16,0-0.42,0.29-0.43,0.46c-0.02,0.77-0.04,1.53-0.04,2.3c0,16.04,0,32.08,0,48.12c0,0.77,0,1.53-0.02,2.3
			c0,0.15-0.04,0.33-0.13,0.43c-0.08,0.08-0.27,0.06-0.41,0.08c-0.36-0.49-0.74-0.98-1.08-1.49c-5.66-8.21-11.32-16.42-16.98-24.63
			c-6.05-8.78-12.1-17.56-18.15-26.35c-0.17-0.25-0.32-0.52-0.52-0.76c-0.25-0.29-0.54-0.53-0.97-0.52c-1.77,0.01-3.53,0-5.3,0
			c-0.15,0-0.3,0.04-0.46,0.06c-0.15,0.02-0.42,0.32-0.43,0.48c-0.02,0.46-0.05,0.92-0.05,1.38c0,20.11,0,40.21,0,60.32
			c0,0.46,0.02,0.92,0.03,1.38c0.01,0.39,0.33,0.67,0.76,0.68c0.84,0.01,1.69,0.02,2.53,0.01c0.77-0.01,1.53-0.03,2.3-0.05
			c0.15,0,0.43-0.29,0.45-0.45c0.11-0.76,0.06-1.53,0.06-2.3c0-16.04,0-32.08,0-48.12c0-0.77,0-1.53,0.02-2.3
			c0-0.15,0.04-0.33,0.13-0.43c0.08-0.08,0.27-0.06,0.41-0.09c0.32,0.43,0.65,0.86,0.95,1.3c6.7,9.73,13.41,19.46,20.11,29.19
			c5.05,7.33,10.1,14.65,15.15,21.98c0.22,0.31,0.44,0.63,0.69,0.91c0.14,0.17,0.31,0.33,0.58,0.33c1.92-0.01,3.84,0,5.76-0.01
			c0.38,0,0.68-0.34,0.68-0.76c0.01-0.69,0.01-1.38,0.01-2.07C342.36,231.88,342.36,222.13,342.36,212.38z M238.48,212.24
			c0,9.75,0,19.49,0,29.24c0,0.69,0,1.38,0.01,2.07c0,0.15,0.04,0.3,0.06,0.46c0.02,0.15,0.32,0.43,0.48,0.43
			c0.54,0.01,1.07,0.05,1.61,0.05c13.51,0,27.03,0,40.54,0c0.31,0,0.61,0,0.92,0c0.15,0,0.31-0.01,0.46-0.01
			c0.44-0.01,0.75-0.29,0.76-0.68c0.01-1.23,0.02-2.45,0.02-3.68c0-0.67-0.28-0.91-1.02-0.92c-0.61-0.01-1.23-0.01-1.84-0.01
			c-10.9,0-21.81,0-32.71,0c-0.77,0-1.54,0-2.3-0.01c-0.15,0-0.32,0-0.45-0.06c-0.13-0.06-0.28-0.19-0.3-0.32
			c-0.06-0.3-0.07-0.61-0.07-0.91c0-7.6,0-15.19,0-22.79c0-0.23,0.02-0.46,0.03-0.69c0.01-0.17,0.26-0.46,0.4-0.49
			c0.69-0.13,1.38-0.07,2.07-0.07c10.06,0,20.12,0,30.17,0c0.61,0,1.23,0,1.84,0c0.23,0,0.46-0.02,0.69-0.03
			c0.3-0.01,0.59-0.29,0.59-0.59c0-1.3,0-2.61-0.01-3.91c0-0.31-0.28-0.63-0.54-0.63c-0.69-0.02-1.38-0.05-2.07-0.05
			c-10.29,0-20.58,0-30.87,0c-0.61,0-1.23-0.02-1.84-0.04c-0.14,0-0.42-0.32-0.42-0.48c-0.01-0.31-0.04-0.61-0.04-0.92
			c0-6.83,0-13.66,0-20.49c0-0.23,0.02-0.46,0.03-0.69c0.01-0.18,0.26-0.48,0.41-0.48c0.77-0.02,1.53-0.05,2.3-0.05
			c10.83,0,21.65,0,32.48,0c0.69,0,1.38,0,2.07-0.01c0.15,0,0.3-0.04,0.46-0.06c0.15-0.02,0.43-0.32,0.44-0.47
			c0.11-1.38,0.07-2.76,0.02-4.13c0-0.08-0.01-0.17-0.05-0.22c-0.09-0.12-0.19-0.28-0.31-0.32c-0.6-0.17-1.22-0.09-1.83-0.09
			c-13.36,0-26.72,0-40.08,0c-0.38,0-0.77,0-1.15,0.01c-0.15,0-0.3,0.04-0.45,0.05c-0.16,0.01-0.42,0.29-0.42,0.48
			c-0.02,0.61-0.06,1.22-0.06,1.84C238.48,192.44,238.48,202.34,238.48,212.24z M115.08,26.78c-2.75,0.09-5.2,0.18-7.66,0.26
			c-5.22,0.16-10.44,0.27-15.66,0.47c-4.91,0.19-9.82,0.28-14.74,0.42c-4.14,0.12-8.29,0.24-12.43,0.36
			c-3.68,0.11-7.37,0.21-11.05,0.32c-1.3,0.04-2.61,0.07-3.91,0.12c-2.53,0.08-5.06,0.16-7.6,0.24c-2.15,0.06-4.3,0.11-6.45,0.17
			c-3.07,0.09-6.14,0.2-9.21,0.29c-0.84,0.02-1.68,0.02-2.53,0.02c-0.19,0-0.42,0.23-0.48,0.44c-0.1,0.32-0.03,0.61,0.14,0.87
			c0.17,0.25,0.38,0.48,0.58,0.71c6.94,7.7,13.87,15.39,20.81,23.09C57.41,68.4,69.9,82.25,82.39,96.11
			c8.53,9.46,17.06,18.93,25.59,28.4c1.28,1.43,2.57,2.85,3.87,4.26c0.2,0.22,0.45,0.41,0.69,0.6c0.19,0.15,0.64,0.09,0.86-0.11
			c0.24-0.22,0.33-0.59,0.2-0.83c-0.07-0.14-0.12-0.29-0.22-0.4c-0.24-0.3-0.49-0.59-0.75-0.87c-4.42-4.91-8.83-9.81-13.25-14.71
			c-5.4-5.99-10.79-11.97-16.19-17.96C75.16,85.59,67.14,76.7,59.12,67.8c-4.01-4.45-8.02-8.89-12.02-13.34
			c-0.46-0.51-0.9-1.05-1.35-1.57c-0.13-0.15,0.02-0.49,0.19-0.56c0.37-0.15,0.76-0.12,1.13-0.13c5.76-0.18,11.51-0.36,17.27-0.52
			c2.38-0.07,4.76-0.08,7.14-0.18c7.06-0.3,14.12-0.38,21.18-0.65c5.6-0.22,11.21-0.3,16.81-0.5c4.83-0.17,9.67-0.28,14.5-0.42
			c7.75-0.22,15.5-0.44,23.25-0.67c3.61-0.11,7.21-0.23,10.82-0.34c5.37-0.16,10.74-0.32,16.12-0.48c0.3-0.01,0.61-0.07,0.91-0.11
			c0.23-0.03,0.53-0.4,0.55-0.67c0.03-0.35-0.32-0.76-0.68-0.79c-0.3-0.03-0.61-0.06-0.92-0.05c-4.07,0.1-8.14,0.2-12.2,0.32
			c-6.83,0.2-13.66,0.44-20.49,0.64c-7.21,0.21-14.43,0.41-21.64,0.61c-4.45,0.13-8.9,0.28-13.35,0.41
			c-5.91,0.17-11.82,0.33-17.73,0.51c-3.76,0.11-7.52,0.24-11.28,0.36c-3.22,0.1-6.45,0.18-9.67,0.27
			c-3.84,0.11-7.67,0.21-11.51,0.33c-3.91,0.12-7.83,0.25-11.74,0.39c-0.51,0.02-0.89-0.15-1.22-0.51
			c-0.42-0.45-0.83-0.91-1.24-1.36c-4.68-5.19-9.35-10.37-14.03-15.56c-0.41-0.46-0.8-0.93-1.19-1.4c-0.05-0.06-0.11-0.15-0.09-0.2
			c0.04-0.14,0.09-0.32,0.2-0.39c0.27-0.17,0.59-0.15,0.89-0.16c4.37-0.12,8.75-0.24,13.12-0.37c1.69-0.05,3.38-0.13,5.06-0.17
			c7.67-0.21,15.35-0.42,23.02-0.63c0.31-0.01,0.61-0.03,0.92-0.03c7.06-0.22,14.12-0.45,21.18-0.66
			c5.22-0.16,10.44-0.28,15.66-0.45c5.83-0.19,11.67-0.3,17.5-0.52c2.53-0.09,5.07-0.12,7.6-0.2c7.44-0.22,14.89-0.46,22.33-0.68
			c3.3-0.1,6.6-0.14,9.9-0.27c4.83-0.19,9.67-0.27,14.5-0.42c2.15-0.06,4.3-0.17,6.45-0.23c6.68-0.2,13.35-0.39,20.03-0.58
			c0.23-0.01,0.46-0.02,0.69-0.07c0.14-0.03,0.28-0.11,0.41-0.19c0.21-0.13,0.3-0.35,0.34-0.57c0.05-0.26-0.23-0.62-0.5-0.69
			c-0.15-0.04-0.29-0.1-0.44-0.11c-0.31-0.02-0.61-0.03-0.92-0.02c-6.29,0.18-12.59,0.37-18.88,0.55
			c-4.68,0.14-9.36,0.22-14.04,0.41c-3.61,0.14-7.21,0.19-10.82,0.3c-7.06,0.21-14.12,0.44-21.18,0.66
			c-5.3,0.16-10.59,0.22-15.89,0.48c-0.69,0.03-1.38,0.04-2.07,0.05C119.4,26.68,117.1,26.73,115.08,26.78z M376.86,214.91
			c0-1.99,0-3.99,0-5.98c0-6.98,0-13.96,0-20.94c0-0.69,0.01-1.38,0.05-2.07c0.01-0.12,0.15-0.28,0.27-0.35
			c0.12-0.07,0.29-0.07,0.44-0.08c0.69-0.01,1.38-0.01,2.07-0.01c5.6,0,11.2,0,16.81,0c0.69,0,1.38-0.01,2.07-0.02
			c0.31-0.01,0.57-0.27,0.59-0.58c0.08-1.38,0.08-2.76,0-4.14c0-0.07-0.05-0.14-0.07-0.21c-0.05-0.17-0.15-0.27-0.31-0.29
			c-0.76-0.13-1.53-0.07-2.29-0.07c-15.12,0-30.24,0-45.35,0c-0.61,0-1.23,0-1.84,0.01c-0.15,0-0.3,0.03-0.46,0.05
			c-0.13,0.01-0.41,0.34-0.43,0.49c-0.1,1.38-0.06,2.76-0.02,4.13c0.01,0.3,0.29,0.59,0.58,0.6c0.61,0.02,1.23,0.04,1.84,0.04
			c5.83,0,11.66,0,17.5,0c0.61,0,1.23,0.02,1.84,0.04c0.17,0,0.46,0.28,0.46,0.43c0.02,0.84,0.05,1.69,0.05,2.53
			c0,17.56,0,35.13,0,52.69c0,0.61,0,1.23,0,1.84c0,0.23,0.01,0.46,0.02,0.69c0.02,0.42,0.31,0.77,0.69,0.77
			c1.61,0,3.22-0.01,4.83-0.02c0.3,0,0.61-0.29,0.62-0.56c0.02-0.69,0.05-1.38,0.05-2.07C376.86,232.85,376.86,223.88,376.86,214.91
			z M127.3,72.65c-1.72,0-3.01,0.13-4.02,0.31c-2.53,0.47-4.84,1.46-6.99,2.85c-1.55,1.01-3,2.16-4.2,3.57
			c-3.02,3.57-4.75,7.67-4.89,12.38c-0.07,2.48,0.24,4.9,1.07,7.24c0.15,0.43,0.3,0.87,0.45,1.3c0.05,0.14-0.07,0.55-0.18,0.63
			c-0.55,0.42-1.09,0.84-1.65,1.25c-1.87,1.35-3.75,2.68-5.61,4.03c-0.31,0.22-0.6,0.48-0.87,0.74c-0.16,0.16-0.25,0.38-0.21,0.63
			c0.08,0.5,0.62,0.81,1.04,0.59c0.34-0.18,0.67-0.37,0.99-0.59c2.13-1.51,4.24-3.04,6.37-4.55c0.25-0.18,0.52-0.33,0.78-0.49
			c0.15-0.09,0.49,0,0.61,0.17c0.31,0.44,0.62,0.87,0.94,1.31c2.12,2.93,4.83,5.12,8.14,6.57c1.7,0.74,3.46,1.24,5.3,1.49
			c1.76,0.25,3.52,0.25,5.28,0.01c1.92-0.26,3.75-0.8,5.51-1.58c2.19-0.98,4.18-2.27,5.86-4c1.95-2.01,3.46-4.3,4.48-6.91
			c0.87-2.24,1.36-4.57,1.34-6.97c-0.02-2.23-0.33-4.43-1.01-6.57c-0.33-1.03-0.74-2.02-1.28-2.95c-0.35-0.6-0.74-1.16-1.12-1.74
			c-0.3-0.45-0.6-0.89-0.9-1.33c-0.09-0.14-0.02-0.51,0.12-0.62c0.37-0.28,0.73-0.56,1.1-0.83c4.9-3.44,9.8-6.89,14.7-10.33
			c13.26-9.3,26.52-18.6,39.78-27.9c9.93-6.96,19.86-13.93,29.79-20.9c1.19-0.84,2.38-1.68,3.57-2.53c0.26-0.18,0.41-0.45,0.5-0.75
			c0.02-0.07,0.02-0.16,0.01-0.23c-0.09-0.44-0.7-0.73-1.09-0.53c-0.2,0.11-0.41,0.2-0.6,0.33c-0.45,0.3-0.88,0.61-1.32,0.92
			c-12.32,8.64-24.63,17.29-36.95,25.93c-9.43,6.61-18.85,13.23-28.28,19.84c-7.04,4.94-14.08,9.88-21.12,14.81
			c-0.44,0.31-0.9,0.59-1.35,0.88c-0.16,0.1-0.49,0.07-0.64-0.07c-0.12-0.1-0.25-0.18-0.36-0.29c-1.83-1.82-4.05-3.04-6.43-3.94
			C131.71,73.02,129.37,72.56,127.3,72.65z M129.04,315.44c0,0.02,0,0.03,0,0.05c5.22-0.1,10.44-0.21,15.66-0.29
			c6.45-0.1,12.9-0.17,19.35-0.26c5.37-0.08,10.75-0.19,16.12-0.28c4.99-0.08,9.98-0.13,14.97-0.21c6.29-0.1,12.59-0.2,18.88-0.3
			c5.53-0.09,11.05-0.18,16.58-0.27c0.46-0.01,0.92-0.03,1.38-0.06c0.15-0.01,0.29-0.09,0.44-0.13c0.34-0.1,0.56-0.63,0.41-0.94
			c-0.15-0.3-0.38-0.49-0.7-0.51c-0.61-0.03-1.23-0.04-1.84-0.03c-7.37,0.11-14.74,0.24-22.11,0.35
			c-12.36,0.19-24.72,0.37-37.08,0.55c-2.99,0.04-5.99,0.06-8.98,0.13c-14.35,0.31-28.71,0.43-43.06,0.71
			c-14.35,0.27-28.71,0.43-43.07,0.65c-5.99,0.09-11.97,0.22-17.96,0.3c-10.36,0.13-20.73,0.27-31.09,0.48
			c-0.38,0.01-0.77,0.03-1.15,0.06c-0.15,0.01-0.29,0.09-0.43,0.16c-0.43,0.21-0.49,0.87-0.11,1.15c0.12,0.09,0.26,0.2,0.4,0.22
			c0.46,0.05,0.92,0.07,1.38,0.07c8.9-0.14,17.81-0.28,26.71-0.42c4.76-0.07,9.52-0.12,14.28-0.2c5.99-0.1,11.97-0.22,17.96-0.31
			c5.45-0.09,10.9-0.14,16.35-0.22C111.24,315.74,120.14,315.58,129.04,315.44z M295.54,278.09c0.07,0,0.15,0,0.22,0
			c0.63-0.01,0.89-0.18,1.01-0.71c0.47-2.17,0.93-4.35,1.4-6.52c0.53-2.47,1.06-4.94,1.59-7.42c0.35-1.65,0.69-3.3,1.04-4.94
			c0.03-0.16-0.21-0.5-0.37-0.51c-0.61-0.02-1.23-0.04-1.84-0.04c-0.33,0-0.58,0.2-0.75,0.46c-0.26,0.38-0.49,0.78-0.73,1.17
			c-2.88,4.71-5.76,9.42-8.65,14.12c-0.28,0.46-0.58,0.91-0.87,1.35c-0.08,0.13-0.23,0.19-0.4,0.16c-0.05-0.01-0.1-0.1-0.12-0.16
			c-0.21-0.58-0.32-1.18-0.42-1.79c-0.2-1.29-0.4-2.58-0.63-3.86c-0.46-2.49-0.87-4.98-1.3-7.48c-0.18-1.06-0.4-2.11-0.55-3.17
			c-0.02-0.15-0.1-0.29-0.17-0.43c-0.11-0.22-0.3-0.37-0.53-0.38c-0.54-0.03-1.07-0.02-1.61-0.02c-0.08,0-0.15,0.02-0.23,0.03
			c-0.19,0.01-0.46,0.23-0.51,0.4c-0.72,2.82-1.26,5.69-1.9,8.53c-0.57,2.54-1.11,5.09-1.66,7.64c-0.21,0.97-0.45,1.94-0.6,2.92
			c-0.05,0.29,0.22,0.59,0.53,0.61c0.15,0.01,0.31,0.02,0.46,0.02c0.49-0.02,0.77-0.2,0.86-0.6c0.29-1.27,0.58-2.54,0.84-3.82
			c0.67-3.3,1.33-6.61,2-9.92c0.11-0.53,0.25-1.04,0.38-1.57c0.02-0.07,0.08-0.13,0.1-0.21c0.05-0.2,0.15-0.22,0.34-0.22
			c0.19,0.01,0.29,0.03,0.35,0.2c0.4,1.09,0.47,2.25,0.68,3.37c0.46,2.41,0.86,4.83,1.28,7.25c0.29,1.66,0.61,3.32,0.92,4.97
			c0.05,0.27,0.35,0.5,0.68,0.51c0.31,0.01,0.61,0,0.92-0.03c0.23-0.02,0.45-0.13,0.58-0.33c0.34-0.51,0.67-1.02,0.99-1.55
			c2.24-3.66,4.47-7.33,6.72-10.99c0.4-0.65,0.82-1.3,1.24-1.93c0.08-0.11,0.25-0.21,0.39-0.23c0.14-0.02,0.3,0.05,0.44,0.11
			c0.16,0.07,0.28,0.41,0.25,0.58c-0.71,3.45-1.56,6.88-2.31,10.32c-0.21,0.97-0.45,1.94-0.68,2.91c-0.03,0.15-0.07,0.3-0.06,0.45
			c0,0.15,0.04,0.3,0.09,0.44C295.06,278.12,295.32,278.06,295.54,278.09z M39.43,309.63c0.13,0,0.29,0.03,0.43-0.01
			c0.37-0.1,0.74-0.21,1.09-0.35c2.65-1.01,5.3-2.02,7.95-3.04c7.88-3.02,15.75-6.05,23.62-9.07c5.87-2.25,11.75-4.5,17.62-6.75
			c7.38-2.83,14.75-5.65,22.13-8.48c0.5-0.19,1.01-0.38,1.49-0.6c0.2-0.09,0.36-0.27,0.52-0.44c0.18-0.19,0.14-0.64-0.04-0.86
			c-0.16-0.18-0.37-0.27-0.6-0.27c-0.15,0-0.31,0.02-0.45,0.06c-0.37,0.11-0.73,0.23-1.09,0.37c-3.87,1.48-7.73,2.97-11.6,4.45
			c-12.82,4.91-25.64,9.82-38.46,14.74c-6.95,2.66-13.89,5.32-20.84,7.99c-0.64,0.25-1.28,0.52-1.91,0.79
			c-0.13,0.06-0.24,0.18-0.35,0.29c-0.24,0.22-0.27,0.54-0.1,0.84C38.97,309.5,39.18,309.59,39.43,309.63z M349.8,283.79
			c0.41-0.02,0.88-0.02,1.33-0.07c1.68-0.19,3.07-0.91,4.08-2.29c0.41-0.56,0.74-1.17,0.98-1.82c0.4-1.08,0.71-2.18,0.94-3.31
			c0.21-1.05,0.43-2.1,0.65-3.15c0.53-2.47,1.07-4.94,1.6-7.41c0.13-0.6,0.22-1.2,0.29-1.81c0.01-0.11-0.14-0.3-0.25-0.34
			c-0.21-0.07-0.45-0.09-0.67-0.08c-0.35,0.01-0.61,0.22-0.68,0.51c-0.1,0.37-0.18,0.74-0.3,1.1c-0.04,0.12-0.19,0.22-0.32,0.3
			c-0.03,0.02-0.15-0.04-0.2-0.09c-0.21-0.22-0.41-0.44-0.62-0.67c-0.59-0.64-1.29-1.07-2.13-1.29c-0.3-0.08-0.59-0.17-0.89-0.21
			c-0.38-0.05-0.77-0.11-1.14-0.07c-1.24,0.1-2.4,0.43-3.44,1.15c-0.77,0.53-1.42,1.17-1.96,1.93c-1.2,1.68-1.67,3.59-1.77,5.62
			c-0.01,0.23,0.01,0.46,0.04,0.69c0.05,0.38,0.12,0.76,0.19,1.13c0.45,2.27,2.31,4.06,4.84,4.14c1.1,0.03,2.13-0.18,3.11-0.67
			c0.34-0.17,0.68-0.34,1.03-0.5c0.07-0.03,0.15-0.02,0.23-0.03c0.16-0.02,0.44,0.28,0.41,0.44c-0.18,1.07-0.56,2.07-1.1,3
			c-0.31,0.54-0.72,0.99-1.21,1.37c-0.62,0.48-1.33,0.77-2.1,0.86c-0.92,0.11-1.83,0.05-2.72-0.28c-1.01-0.38-1.69-1.02-1.94-2.09
			c-0.04-0.15-0.04-0.32-0.12-0.44c-0.07-0.12-0.21-0.23-0.34-0.27c-0.29-0.09-0.6-0.08-0.91-0.04c-0.29,0.04-0.5,0.34-0.48,0.66
			c0.02,0.47,0.19,0.9,0.37,1.32c0.39,0.97,1.1,1.66,2.03,2.1c0.7,0.33,1.43,0.56,2.21,0.57
			C349.14,283.76,349.45,283.78,349.8,283.79z M209.05,278.09c0,0.01,0,0.01,0,0.02c2,0,3.99,0,5.99,0c0.23,0,0.46-0.03,0.68-0.1
			c0.13-0.04,0.25-0.17,0.32-0.3c0.14-0.28,0.18-0.58,0.17-0.89c-0.01-0.19-0.23-0.46-0.41-0.46c-1.38-0.01-2.76-0.02-4.15-0.02
			c-1.77,0-3.53,0-5.3,0c-0.38,0-0.77-0.03-1.15-0.04c-0.25-0.01-0.51-0.26-0.42-0.66c0.46-2.17,0.92-4.35,1.39-6.52
			c0.02-0.07,0.04-0.15,0.09-0.21c0.1-0.11,0.21-0.26,0.34-0.28c0.3-0.07,0.61-0.09,0.91-0.09c2.69-0.01,5.37,0,8.06-0.01
			c0.38,0,0.76-0.04,1.14-0.07c0.14-0.01,0.26-0.14,0.31-0.3c0.07-0.22,0.13-0.44,0.17-0.66c0.02-0.07-0.01-0.15-0.01-0.22
			c0-0.17-0.28-0.46-0.44-0.46c-2.46-0.01-4.91-0.02-7.37-0.03c-0.69,0-1.38-0.02-2.07-0.03c-0.18,0-0.45-0.28-0.43-0.45
			c0.03-0.3,0.03-0.61,0.08-0.91c0.1-0.53,0.24-1.05,0.35-1.57c0.23-1.13,0.45-2.25,0.69-3.38c0.13-0.6,0.44-0.73,0.99-0.75
			c0.38-0.01,0.77-0.01,1.15-0.01c2.76,0,5.53,0,8.29,0c0.3,0,0.61-0.05,0.91-0.08c0.16-0.02,0.27-0.12,0.35-0.27
			c0.15-0.28,0.19-0.57,0.2-0.88c0.01-0.19-0.21-0.51-0.37-0.51c-4.15,0-8.29,0-12.44,0.01c-0.07,0-0.15,0.05-0.22,0.05
			c-0.18,0.02-0.27,0.11-0.33,0.28c-0.46,1.39-0.67,2.83-0.98,4.25c-0.58,2.62-1.12,5.25-1.68,7.87c-0.49,2.32-0.99,4.65-1.48,6.97
			c-0.08,0.37,0.24,0.7,0.7,0.7C205.05,278.09,207.05,278.09,209.05,278.09z M461.76,263.06c-0.05-0.46-0.03-0.93-0.15-1.36
			c-0.45-1.67-1.47-2.82-3.13-3.38c-0.73-0.25-1.48-0.38-2.25-0.38c-2.37,0.01-4.75,0-7.12,0.01c-0.15,0-0.3,0.03-0.45,0.06
			c-0.16,0.02-0.27,0.11-0.34,0.26c-0.09,0.21-0.22,0.41-0.27,0.63c-0.36,1.64-0.71,3.29-1.07,4.93c-0.73,3.36-1.46,6.72-2.19,10.08
			c-0.19,0.9-0.39,1.79-0.57,2.69c-0.07,0.37-0.17,0.75-0.08,1.13c0.04,0.16,0.15,0.27,0.3,0.31c0.38,0.1,0.76,0.1,1.13-0.03
			c0.13-0.05,0.31-0.16,0.34-0.28c0.22-0.81,0.42-1.63,0.6-2.45c0.38-1.72,0.74-3.44,1.11-5.16c0.02-0.07,0.05-0.14,0.07-0.22
			c0.04-0.13,0.38-0.39,0.53-0.4c1.38-0.02,2.75-0.03,4.13-0.05c1-0.01,1.99-0.02,2.99-0.01c0.94,0.01,1.83-0.24,2.68-0.59
			c1.48-0.6,2.57-1.66,3.19-3.14C461.56,264.89,461.8,264,461.76,263.06z M474.68,264.67c0.48,0.06,0.94,0.08,1.39,0.17
			c1.01,0.19,1.62,1.02,1.65,1.93c0.02,0.55-0.09,1.06-0.3,1.56c-0.22,0.53-0.62,0.87-1.15,1.04c-0.66,0.2-1.34,0.34-2.03,0.36
			c-0.69,0.02-1.38,0.07-2.06,0.1c-1.01,0.03-1.96,0.33-2.9,0.65c-0.5,0.17-0.98,0.42-1.41,0.76c-0.55,0.44-0.97,0.96-1.22,1.63
			c-0.49,1.3-0.38,2.56,0.29,3.76c0.43,0.77,1.12,1.26,1.95,1.51c0.66,0.2,1.35,0.33,2.04,0.32c1.24-0.03,2.43-0.29,3.49-0.98
			c0.38-0.25,0.74-0.53,1.13-0.78c0.16-0.1,0.32-0.06,0.37,0.07c0.52,1.46,1.21,1.49,2.5,1.4c0.07-0.01,0.15-0.05,0.22-0.06
			c0.41-0.09,0.67-0.63,0.52-1.1c-0.02-0.07-0.07-0.17-0.13-0.19c-0.28-0.1-0.57-0.17-0.86-0.26c-0.14-0.04-0.39-0.41-0.39-0.54
			c-0.01-0.62,0.08-1.22,0.22-1.82c0.35-1.57,0.75-3.12,1.09-4.69c0.2-0.9,0.36-1.8,0.47-2.71c0.14-1.16-0.31-2.1-1.3-2.75
			c-0.45-0.29-0.92-0.55-1.46-0.65c-0.45-0.08-0.9-0.19-1.35-0.27c-0.61-0.1-1.22-0.1-1.83-0.01c-0.53,0.08-1.06,0.18-1.57,0.34
			c-1.63,0.52-2.79,1.54-3.4,3.16c-0.08,0.21-0.12,0.44-0.15,0.67c-0.03,0.28,0.2,0.63,0.53,0.62c0.15,0,0.31,0,0.46,0.01
			c0.35,0.02,0.58-0.18,0.74-0.45c0.12-0.19,0.18-0.42,0.28-0.63c0.5-1.15,1.43-1.77,2.62-2
			C473.63,264.74,474.17,264.72,474.68,264.67z M338.33,264.66c0.49,0.07,1.03,0.11,1.55,0.24c0.91,0.22,1.43,1.06,1.46,1.85
			c0.02,0.55-0.09,1.06-0.29,1.57c-0.22,0.54-0.61,0.89-1.14,1.05c-0.73,0.23-1.49,0.36-2.26,0.38c-0.76,0.02-1.53,0.07-2.29,0.13
			c-0.93,0.07-1.8,0.37-2.66,0.68c-0.58,0.21-1.1,0.53-1.55,0.97c-0.33,0.32-0.61,0.68-0.8,1.11c-0.51,1.19-0.53,2.37-0.02,3.56
			c0.45,1.07,1.27,1.7,2.36,2c0.44,0.12,0.9,0.19,1.36,0.23c0.38,0.04,0.77,0.03,1.14-0.01c1.33-0.13,2.53-0.57,3.54-1.47
			c0.06-0.05,0.12-0.09,0.19-0.13c0.32-0.23,0.57-0.2,0.69,0.14c0.31,0.95,0.98,1.31,1.93,1.25c0.15-0.01,0.31-0.01,0.46-0.03
			c0.58-0.05,0.93-0.56,0.78-1.14c-0.02-0.07-0.07-0.16-0.13-0.19c-0.21-0.08-0.43-0.12-0.64-0.19c-0.41-0.12-0.67-0.46-0.62-0.83
			c0.06-0.53,0.1-1.07,0.21-1.59c0.32-1.49,0.65-2.99,1.03-4.47c0.25-0.97,0.39-1.95,0.52-2.94c0.16-1.16-0.29-2.11-1.27-2.76
			c-0.44-0.3-0.92-0.55-1.46-0.66c-0.45-0.09-0.9-0.2-1.35-0.27c-0.69-0.11-1.37-0.1-2.06,0.02c-0.38,0.07-0.75,0.16-1.12,0.24
			c-0.76,0.17-1.44,0.53-2.05,1c-0.74,0.58-1.27,1.32-1.59,2.2c-0.08,0.21-0.11,0.45-0.16,0.67c-0.06,0.28,0.22,0.63,0.5,0.64
			c0.15,0.01,0.31,0.01,0.46,0.02c0.34,0.02,0.59-0.15,0.75-0.43c0.15-0.26,0.23-0.57,0.37-0.84c0.54-1.02,1.4-1.6,2.51-1.81
			C337.21,264.75,337.75,264.73,338.33,264.66z M300.42,274.76c0-0.06-0.01,0.17,0.03,0.4c0.2,1.41,0.96,2.44,2.29,2.91
			c1.08,0.39,2.23,0.5,3.4,0.27c0.92-0.18,1.77-0.49,2.53-1.02c0.31-0.22,0.61-0.46,0.94-0.65c0.14-0.09,0.31-0.02,0.39,0.07
			c0.04,0.06,0.06,0.14,0.07,0.22c0.08,0.39,0.28,0.71,0.6,0.95c0.32,0.24,0.7,0.3,1.09,0.28c0.3-0.01,0.61-0.06,0.91-0.09
			c0.16-0.02,0.28-0.11,0.36-0.26c0.07-0.13,0.15-0.27,0.21-0.41c0.12-0.3-0.05-0.61-0.37-0.69c-0.15-0.04-0.3-0.05-0.45-0.1
			c-0.39-0.12-0.66-0.51-0.62-0.85c0.11-0.83,0.25-1.66,0.45-2.48c0.34-1.41,0.64-2.84,0.97-4.25c0.19-0.82,0.27-1.66,0.34-2.5
			c0.1-1.19-0.45-2.07-1.47-2.65c-0.33-0.19-0.68-0.35-1.05-0.46c-0.51-0.15-1.05-0.24-1.57-0.33c-0.61-0.1-1.22-0.1-1.83,0
			c-0.53,0.09-1.05,0.21-1.57,0.34c-0.22,0.05-0.43,0.16-0.64,0.25c-1.58,0.71-2.54,1.92-2.94,3.59c-0.03,0.15,0.19,0.52,0.34,0.55
			c0.23,0.03,0.45,0.06,0.68,0.06c0.33,0.01,0.58-0.15,0.73-0.45c0.14-0.27,0.25-0.56,0.39-0.83c0.32-0.64,0.8-1.11,1.45-1.42
			c0.28-0.13,0.55-0.27,0.85-0.34c1.06-0.23,2.12-0.26,3.2-0.06c0.91,0.17,1.63,1.03,1.63,1.95c0,0.08,0.01,0.15,0,0.23
			c-0.07,0.38-0.11,0.76-0.21,1.13c-0.17,0.65-0.63,1.05-1.25,1.23c-0.73,0.22-1.49,0.35-2.26,0.36c-0.69,0.01-1.38,0.08-2.07,0.11
			c-0.93,0.04-1.8,0.35-2.67,0.64c-0.43,0.14-0.84,0.38-1.21,0.64c-1.01,0.69-1.57,1.65-1.63,2.89
			C300.42,274.16,300.42,274.32,300.42,274.76z M238.92,271.31c0-0.01,0-0.01,0-0.02c0.31,0,0.61,0,0.92,0c1.38,0,2.76,0,4.15-0.01
			c0.67,0,0.76-0.26,0.84-0.85c0.14-1.07,0.12-2.15-0.08-3.21c-0.32-1.71-1.28-2.94-2.86-3.64c-0.84-0.37-1.75-0.57-2.69-0.51
			c-1.57,0.09-3,0.57-4.25,1.55c-1.64,1.29-2.61,3.01-3.09,4.99c-0.38,1.58-0.46,3.19-0.07,4.79c0.32,1.31,1,2.4,2.16,3.14
			c0.58,0.37,1.22,0.62,1.92,0.73c0.92,0.15,1.82,0.24,2.75,0.06c0.3-0.06,0.61-0.09,0.91-0.15c0.22-0.05,0.45-0.11,0.66-0.19
			c1.92-0.76,3.09-2.19,3.69-4.13c0.04-0.14-0.06-0.32-0.2-0.39c-0.37-0.2-1.07-0.17-1.31,0.06c-0.11,0.1-0.24,0.21-0.3,0.34
			c-0.22,0.49-0.5,0.95-0.85,1.36c-0.84,0.98-1.87,1.56-3.18,1.63c-0.54,0.03-1.08,0.01-1.61-0.08c-0.23-0.04-0.46-0.09-0.66-0.18
			c-1.11-0.5-1.87-1.32-2.16-2.52c-0.07-0.3-0.13-0.6-0.19-0.9c-0.03-0.15-0.05-0.3-0.06-0.46c-0.01-0.23,0-0.46,0.01-0.69
			c0.01-0.4,0.32-0.73,0.72-0.73C235.7,271.31,237.31,271.31,238.92,271.31z M368.2,271.32c0-0.01,0-0.02,0-0.03
			c1.45,0,2.91,0,4.36,0c0.3,0,0.61-0.04,0.91-0.06c0.15-0.01,0.46-0.29,0.5-0.42c0.14-0.52,0.12-1.06,0.14-1.6
			c0.03-0.85-0.09-1.67-0.33-2.49c-0.36-1.23-1.07-2.18-2.17-2.85c-0.94-0.57-1.98-0.82-3.07-0.8c-1.32,0.02-2.57,0.34-3.71,1.04
			c-0.86,0.53-1.6,1.19-2.19,2c-1.11,1.52-1.75,3.22-1.88,5.09c-0.05,0.68-0.02,1.38-0.01,2.06c0.01,0.7,0.2,1.36,0.48,2
			c0.72,1.67,1.96,2.68,3.77,3.01c1.07,0.2,2.12,0.19,3.19,0.01c1.42-0.24,2.59-0.89,3.52-1.97c0.61-0.7,1.03-1.51,1.34-2.39
			c0.06-0.16-0.15-0.48-0.33-0.52c-0.3-0.07-0.61-0.08-0.91-0.01c-0.14,0.03-0.3,0.12-0.38,0.23c-0.3,0.44-0.54,0.93-0.85,1.35
			c-0.86,1.17-2.02,1.85-3.5,1.89c-0.46,0.01-0.92-0.03-1.37-0.06c-0.39-0.03-0.74-0.18-1.08-0.36c-1.18-0.62-1.8-1.62-1.98-2.91
			c-0.06-0.45-0.05-0.92-0.07-1.37c0-0.08-0.01-0.16,0.01-0.23c0.04-0.14,0.06-0.31,0.16-0.42c0.09-0.1,0.26-0.19,0.4-0.19
			C364.83,271.32,366.51,271.32,368.2,271.32z M405.9,271.32c0-0.01,0-0.01,0-0.02c0.46,0,0.92,0,1.38,0c1.23,0,2.45,0,3.68-0.01
			c0.65,0,0.93-0.3,0.95-1.01c0.02-0.54,0.02-1.07,0.03-1.61c0.02-0.78-0.16-1.52-0.41-2.25c-0.3-0.9-0.84-1.62-1.58-2.21
			c-0.61-0.48-1.31-0.75-2.07-0.95c-1.48-0.4-2.9-0.16-4.27,0.38c-1.16,0.45-2.12,1.22-2.91,2.19c-1.2,1.47-1.83,3.17-2.09,5.02
			c-0.12,0.83-0.1,1.68-0.03,2.52c0.09,1.01,0.4,1.95,0.97,2.79c0.76,1.14,1.81,1.85,3.17,2.09c0.3,0.05,0.6,0.1,0.91,0.14
			c0.53,0.08,1.07,0.09,1.6,0.01c0.38-0.06,0.76-0.12,1.14-0.17c0.38-0.06,0.73-0.2,1.09-0.35c1.1-0.46,1.93-1.23,2.59-2.2
			c0.39-0.57,0.69-1.19,0.86-1.86c0.04-0.16-0.08-0.29-0.23-0.36c-0.29-0.13-0.59-0.14-0.9-0.09c-0.23,0.04-0.45,0.09-0.58,0.31
			c-0.27,0.46-0.52,0.94-0.84,1.37c-0.83,1.09-1.91,1.75-3.31,1.8c-0.46,0.02-0.92,0.02-1.37-0.04c-1.22-0.15-2.14-0.78-2.73-1.86
			c-0.3-0.54-0.5-1.12-0.51-1.75c-0.01-0.31-0.02-0.61-0.03-0.92c0-0.08,0.01-0.15,0.01-0.23c0-0.46,0.25-0.75,0.66-0.75
			C402.68,271.31,404.29,271.32,405.9,271.32z M497.1,272.6c0.01,0.1,0.03,0.56,0.05,1.02c0.03,0.54,0.19,1.05,0.4,1.55
			c0.73,1.77,2.01,2.83,3.91,3.15c0.92,0.16,1.82,0.2,2.73,0.01c0.15-0.03,0.3-0.05,0.45-0.07c0.46-0.06,0.88-0.22,1.31-0.41
			c1.45-0.64,2.54-1.66,3.38-3c1.08-1.74,1.49-3.66,1.63-5.67c0.05-0.77-0.07-1.52-0.28-2.26c-0.4-1.4-1.21-2.46-2.5-3.12
			c-1.04-0.53-2.16-0.79-3.32-0.72c-1.72,0.11-3.29,0.67-4.61,1.81c-0.7,0.6-1.29,1.3-1.76,2.1
			C497.54,268.61,497.08,270.37,497.1,272.6z M169.13,268.75c0.08-0.71-0.11-1.61-0.47-2.46c-0.43-1.02-1.1-1.83-2.07-2.38
			c-1.09-0.62-2.28-0.9-3.52-0.83c-1.98,0.12-3.71,0.83-5.12,2.26c-0.76,0.77-1.36,1.65-1.78,2.65c-0.67,1.57-0.97,3.21-0.9,4.92
			c0.03,0.86,0.21,1.68,0.56,2.44c0.7,1.56,1.87,2.57,3.59,2.91c1.06,0.21,2.12,0.23,3.19,0.04c0.93-0.16,1.76-0.49,2.54-0.99
			c1.33-0.85,2.29-2.03,2.93-3.45C168.77,272.32,169.16,270.69,169.13,268.75z M141.8,257.94c-0.15,0.01-0.31,0.02-0.46,0.02
			c-0.34,0.02-0.51,0.32-0.37,0.66c0.2,0.49,0.4,0.99,0.62,1.48c1.26,2.79,2.53,5.57,3.8,8.35c0.19,0.42,0.39,0.84,0.51,1.28
			c0.12,0.46-0.14,0.9-0.23,1.34c-0.43,2.02-0.88,4.03-1.32,6.05c-0.03,0.15-0.03,0.3-0.03,0.45c0,0.16,0.06,0.31,0.21,0.38
			c0.43,0.2,0.88,0.19,1.32,0.03c0.07-0.02,0.15-0.07,0.18-0.12c0.13-0.27,0.29-0.55,0.36-0.84c0.37-1.64,0.72-3.29,1.07-4.93
			c0.13-0.6,0.27-1.19,0.42-1.79c0.07-0.3,0.23-0.56,0.43-0.8c1.18-1.41,2.36-2.82,3.54-4.22c1.72-2.05,3.45-4.1,5.18-6.15
			c0.2-0.23,0.41-0.46,0.49-0.76c0.05-0.19-0.01-0.32-0.16-0.35c-0.22-0.04-0.45-0.07-0.68-0.08c-0.64-0.05-1.19,0.09-1.61,0.66
			c-0.55,0.74-1.16,1.42-1.75,2.13c-1.71,2.07-3.41,4.13-5.12,6.2c-0.19,0.23-0.42,0.44-0.64,0.65c-0.13,0.13-0.47,0.07-0.56-0.1
			c-0.17-0.34-0.34-0.68-0.5-1.03c-1.06-2.37-2.12-4.75-3.18-7.12c-0.16-0.35-0.33-0.69-0.51-1.03c-0.12-0.21-0.32-0.31-0.56-0.33
			C142.11,257.96,141.95,257.95,141.8,257.94z M175.4,276.85c0.05,0.01-0.33-0.02-0.7-0.1c-0.22-0.04-0.44-0.14-0.63-0.25
			c-0.8-0.46-1.18-1.18-1.2-2.08c-0.01-0.38,0.01-0.77,0.09-1.14c0.33-1.57,0.69-3.14,1.03-4.71c0.32-1.49,0.63-2.99,0.94-4.49
			c0.06-0.28-0.21-0.56-0.55-0.58c-0.15-0.01-0.31-0.01-0.46,0c-0.37,0.01-0.62,0.18-0.71,0.46c-0.11,0.37-0.25,0.73-0.32,1.1
			c-0.42,2.18-0.91,4.34-1.4,6.5c-0.15,0.67-0.28,1.35-0.4,2.03c-0.17,0.92-0.11,1.82,0.26,2.7c0.25,0.58,0.61,1.06,1.13,1.4
			c0.38,0.26,0.79,0.47,1.25,0.55c0.6,0.09,1.2,0.26,1.82,0.22c1.16-0.09,2.26-0.37,3.21-1.1c0.36-0.28,0.71-0.58,1.07-0.85
			c0.05-0.04,0.15-0.06,0.22-0.05c0.12,0.02,0.22,0.14,0.22,0.32c0,0.23-0.05,0.46-0.05,0.68c0,0.28,0.21,0.65,0.54,0.62
			c0.15-0.01,0.31,0.02,0.46,0.01c0.31-0.03,0.63-0.27,0.69-0.53c0.17-0.74,0.36-1.48,0.52-2.23c0.74-3.59,1.52-7.18,2.31-10.76
			c0.05-0.22,0.05-0.46,0.01-0.68c-0.02-0.12-0.15-0.29-0.27-0.32c-0.21-0.07-0.45-0.07-0.68-0.06c-0.44,0.01-0.75,0.26-0.83,0.64
			c-0.47,2.17-0.95,4.33-1.39,6.5c-0.14,0.68-0.34,1.34-0.58,1.98c-0.44,1.15-1.08,2.2-2.02,3.03
			C178.06,276.43,177.06,276.93,175.4,276.85z M328.69,266.74c-0.02-0.21-0.04-0.52-0.09-0.82c-0.04-0.22-0.09-0.45-0.18-0.66
			c-0.39-0.89-1.07-1.48-1.98-1.81c-0.36-0.13-0.74-0.22-1.11-0.29c-0.68-0.14-1.36-0.12-2.05,0.04c-0.91,0.21-1.74,0.58-2.47,1.16
			c-0.3,0.24-0.58,0.5-0.95,0.63c-0.12-0.08-0.32-0.14-0.35-0.25c-0.06-0.21-0.02-0.45-0.03-0.68c-0.02-0.35-0.22-0.55-0.57-0.56
			c-0.15,0-0.31,0-0.46,0.02c-0.23,0.04-0.43,0.15-0.51,0.39c-0.13,0.44-0.28,0.88-0.38,1.32c-0.74,3.6-1.5,7.19-2.3,10.77
			c-0.12,0.52-0.15,1.06-0.22,1.59c-0.02,0.18,0.22,0.45,0.42,0.46c0.23,0.01,0.46,0.04,0.68,0.01c0.23-0.03,0.43-0.16,0.51-0.4
			c0.08-0.21,0.19-0.42,0.23-0.64c0.21-0.97,0.4-1.95,0.62-2.92c0.29-1.35,0.61-2.68,0.89-4.03c0.12-0.61,0.36-1.17,0.61-1.73
			c0.41-0.91,0.98-1.73,1.74-2.4c0.52-0.46,1.1-0.84,1.76-1.05c0.9-0.28,1.82-0.3,2.72-0.02c0.77,0.24,1.33,0.73,1.52,1.57
			c0.09,0.38,0.14,0.75,0.09,1.14c-0.09,0.76-0.21,1.51-0.38,2.26c-0.54,2.39-1.06,4.78-1.57,7.17c-0.05,0.22-0.04,0.46,0,0.68
			c0.02,0.13,0.15,0.29,0.27,0.33c0.21,0.06,0.45,0.06,0.68,0.05c0.41-0.02,0.74-0.3,0.82-0.67c0.58-2.77,1.16-5.54,1.79-8.3
			C328.62,268.37,328.7,267.6,328.69,266.74z M426.25,267.34c0.01-0.95-0.08-1.61-0.41-2.25c-0.4-0.8-1.03-1.34-1.85-1.63
			c-1.26-0.45-2.53-0.55-3.83-0.1c-0.44,0.15-0.85,0.35-1.24,0.58c-0.53,0.31-0.98,0.72-1.45,1.13c-0.09,0.08-0.27,0.05-0.41,0.05
			c-0.02,0-0.06-0.14-0.06-0.21c-0.01-0.3-0.01-0.61,0.01-0.91c0.01-0.19-0.2-0.45-0.42-0.47c-0.23-0.02-0.46-0.02-0.68,0.01
			c-0.24,0.03-0.41,0.21-0.5,0.42c-0.09,0.21-0.15,0.43-0.2,0.65c-0.39,1.87-0.77,3.74-1.17,5.61c-0.51,2.39-1.03,4.78-1.54,7.17
			c-0.02,0.07-0.01,0.16,0.02,0.23c0.06,0.13,0.12,0.33,0.23,0.37c0.36,0.14,0.75,0.15,1.12,0c0.13-0.05,0.28-0.18,0.31-0.3
			c0.2-0.74,0.39-1.48,0.55-2.22c0.34-1.57,0.65-3.14,1-4.71c0.24-1.05,0.55-2.07,1.09-3.01c0.51-0.87,1.13-1.64,1.97-2.21
			c0.44-0.3,0.9-0.58,1.43-0.7c0.84-0.19,1.67-0.19,2.5,0.03c0.66,0.18,1.6,0.94,1.64,2c0.02,0.62-0.01,1.22-0.14,1.82
			c-0.53,2.39-1.07,4.77-1.59,7.16c-0.13,0.59-0.29,1.19-0.25,1.81c0.01,0.12,0.16,0.24,0.26,0.34c0.05,0.05,0.14,0.05,0.22,0.06
			c0.15,0.01,0.3,0.01,0.46,0.01c0.34,0,0.6-0.19,0.72-0.46c0.34-0.71,0.35-1.49,0.52-2.23c0.52-2.31,1.02-4.63,1.52-6.95
			C426.2,268.01,426.22,267.55,426.25,267.34z M222.18,278.08c0.33,0,0.48,0,0.63,0c0.33-0.01,0.58-0.15,0.77-0.42
			c0.13-0.19,0.26-0.38,0.37-0.58c2.33-4.14,4.66-8.28,6.99-12.42c0.11-0.2,0.21-0.41,0.31-0.61c0.09-0.17-0.11-0.52-0.3-0.52
			c-0.31-0.01-0.61-0.03-0.92,0c-0.23,0.02-0.45,0.09-0.58,0.31c-0.34,0.6-0.69,1.19-1.02,1.8c-1.54,2.83-3.07,5.66-4.62,8.48
			c-0.18,0.33-0.31,0.7-0.63,0.94c-0.05,0.04-0.13,0.08-0.19,0.07c-0.17-0.02-0.32-0.11-0.34-0.24c-0.17-1.45-0.45-2.88-0.61-4.33
			c-0.13-1.22-0.35-2.43-0.49-3.65c-0.11-0.99-0.29-1.97-0.46-2.95c-0.02-0.13-0.15-0.3-0.27-0.35c-0.44-0.18-0.9-0.16-1.35-0.02
			c-0.05,0.02-0.09,0.12-0.11,0.19c-0.04,0.15-0.09,0.3-0.08,0.44c0.04,0.92,0.28,1.82,0.42,2.73c0.37,2.42,0.71,4.86,1.11,7.27
			c0.16,0.98,0.33,1.97,0.46,2.95c0.02,0.15,0.08,0.29,0.12,0.44c0.04,0.14,0.36,0.42,0.51,0.43
			C222.05,278.07,222.2,278.08,222.18,278.08z M498.26,257.97c-0.78,0-1.09-0.03-1.39,0.01c-1.13,0.14-2.04,0.63-2.61,1.65
			c-0.11,0.2-0.23,0.4-0.31,0.62c-0.19,0.5-0.4,1-0.46,1.54c-0.04,0.3-0.1,0.61-0.19,0.9c-0.18,0.63-0.31,0.78-0.93,0.8
			c-0.38,0.01-0.77,0-1.15,0.02c-0.34,0.02-0.55,0.23-0.67,0.53c-0.06,0.14-0.1,0.29-0.14,0.44c-0.04,0.18,0.18,0.49,0.36,0.51
			c0.53,0.05,1.06,0.11,1.6,0.16c0.08,0.12,0.23,0.24,0.24,0.37c0.01,0.3-0.02,0.62-0.08,0.91c-0.68,3.07-1.36,6.13-2.05,9.19
			c-0.15,0.67-0.29,1.35-0.31,2.04c0,0.12,0.13,0.31,0.24,0.35c0.21,0.08,0.45,0.08,0.68,0.09c0.35,0.01,0.63-0.17,0.73-0.44
			c0.08-0.21,0.18-0.43,0.23-0.65c0.54-2.47,1.06-4.94,1.6-7.41c0.28-1.27,0.58-2.54,0.86-3.81c0.02-0.07,0.04-0.15,0.06-0.22
			c0.03-0.13,0.38-0.41,0.52-0.42c0.61-0.04,1.22-0.07,1.83-0.11c0.41-0.02,0.66-0.28,0.74-0.73c0.01-0.08,0.02-0.15,0.02-0.23
			c0.01-0.25-0.16-0.5-0.35-0.51c-0.61-0.04-1.22-0.08-1.83-0.12c-0.23-0.02-0.42-0.25-0.38-0.46c0.12-0.6,0.23-1.2,0.37-1.8
			c0.09-0.38,0.3-0.71,0.55-1c0.15-0.17,0.35-0.3,0.55-0.4c0.65-0.29,1.34-0.3,2.03-0.22c0.22,0.03,0.36-0.11,0.46-0.41
			c0.05-0.14,0.08-0.3,0.1-0.45c0.04-0.29-0.22-0.67-0.47-0.69C498.4,257.99,498.09,257.96,498.26,257.97z M264.84,278.21
			c0.37-0.03,0.75-0.05,1.13-0.08c0.26-0.02,0.4-0.21,0.52-0.4c0.08-0.13,0.12-0.28,0.17-0.42c0.1-0.29-0.13-0.64-0.43-0.65
			c-0.53,0-1.07,0-1.6-0.01c-0.32-0.01-0.69-0.43-0.74-0.78c-0.05-0.31-0.03-0.61,0.03-0.91c0.55-2.94,1.21-5.85,1.86-8.76
			c0.03-0.15,0.07-0.3,0.1-0.45c0.02-0.07,0.03-0.15,0.05-0.22c0.03-0.14,0.37-0.39,0.52-0.4c0.69-0.04,1.37-0.08,2.06-0.12
			c0.25-0.02,0.54-0.33,0.56-0.64c0.01-0.15-0.01-0.3-0.01-0.45c0-0.19-0.08-0.28-0.25-0.33c-0.6-0.18-1.22-0.04-1.82-0.13
			c-0.15-0.02-0.33-0.06-0.42-0.15c-0.08-0.1-0.11-0.29-0.08-0.43c0.21-1.05,0.43-2.1,0.65-3.15c0.02-0.07,0.02-0.16-0.01-0.23
			c-0.03-0.06-0.09-0.11-0.15-0.15c-0.2-0.14-0.42-0.17-0.65-0.17c-0.55,0-0.9,0.07-1.01,0.67c-0.11,0.6-0.25,1.2-0.4,1.79
			c-0.13,0.52-0.26,1.04-0.42,1.55c-0.04,0.11-0.23,0.24-0.36,0.25c-0.61,0.06-1.22,0.06-1.83,0.12c-0.21,0.02-0.41,0.17-0.49,0.43
			c-0.06,0.22-0.12,0.43-0.06,0.67c0.04,0.17,0.12,0.27,0.29,0.32c0.52,0.17,1.07,0.04,1.59,0.15c0.16,0.03,0.38,0.34,0.36,0.52
			c-0.02,0.15-0.01,0.31-0.04,0.46c-0.54,2.55-1.09,5.09-1.61,7.64c-0.14,0.67-0.22,1.36-0.31,2.04c-0.05,0.38-0.01,0.77,0.12,1.13
			c0.07,0.21,0.19,0.42,0.34,0.58c0.32,0.34,0.72,0.57,1.2,0.63C264.06,278.18,264.44,278.19,264.84,278.21z M485.36,278.21
			c0.36-0.03,0.74-0.06,1.12-0.1c0.26-0.02,0.52-0.29,0.59-0.62c0.02-0.07,0.02-0.15,0.03-0.23c0.03-0.34-0.19-0.62-0.5-0.61
			c-0.46,0.01-0.92,0.01-1.37,0.02c-0.26,0.01-0.43-0.14-0.6-0.29c-0.18-0.15-0.28-0.35-0.3-0.59c-0.05-0.54,0.03-1.07,0.15-1.59
			c0.6-2.76,1.19-5.52,1.78-8.28c0.12-0.54,0.43-0.83,0.92-0.85c0.61-0.02,1.22-0.03,1.83-0.08c0.13-0.01,0.29-0.14,0.35-0.26
			c0.1-0.2,0.15-0.43,0.18-0.66c0.04-0.29-0.23-0.57-0.55-0.58c-0.53-0.02-1.07-0.03-1.6-0.05c-0.19-0.01-0.41-0.27-0.39-0.45
			c0.07-0.76,0.22-1.51,0.42-2.25c0.1-0.36,0.1-0.75,0.15-1.13c0.02-0.2-0.2-0.42-0.44-0.43c-0.23-0.01-0.46-0.01-0.69,0
			c-0.34,0.02-0.61,0.24-0.67,0.52c-0.24,1.12-0.48,2.24-0.74,3.35c-0.03,0.12-0.19,0.23-0.32,0.3c-0.13,0.07-0.29,0.09-0.44,0.1
			c-0.46,0.02-0.92,0.02-1.37,0.04c-0.25,0.01-0.41,0.17-0.53,0.37c-0.07,0.13-0.12,0.28-0.17,0.42c-0.11,0.29,0.1,0.66,0.38,0.69
			c0.53,0.06,1.06,0.09,1.59,0.18c0.11,0.02,0.2,0.21,0.29,0.32c-0.13,0.75-0.24,1.51-0.39,2.26c-0.49,2.39-1.01,4.78-1.5,7.17
			c-0.11,0.53-0.13,1.06-0.07,1.6c0.06,0.48,0.3,0.87,0.67,1.16c0.3,0.24,0.65,0.4,1.04,0.45
			C484.57,278.17,484.95,278.19,485.36,278.21z M431.92,278.21c0-0.01,0-0.02,0-0.03c0.23,0,0.46,0.01,0.69,0
			c0.15-0.01,0.31-0.02,0.45-0.07c0.22-0.07,0.41-0.18,0.49-0.43c0.07-0.22,0.12-0.43,0.06-0.66c-0.04-0.17-0.13-0.28-0.28-0.31
			c-0.53-0.11-1.06,0.03-1.6-0.02c-0.41-0.04-0.85-0.49-0.87-0.91c-0.02-0.46,0.02-0.92,0.12-1.37c0.49-2.16,0.96-4.32,1.39-6.49
			c0.15-0.75,0.33-1.49,0.5-2.23c0.05-0.24,0.43-0.56,0.65-0.57c0.69-0.03,1.37-0.06,2.06-0.1c0.06,0,0.13-0.07,0.18-0.12
			c0.29-0.3,0.36-0.67,0.25-1.05c-0.03-0.12-0.19-0.28-0.3-0.29c-0.61-0.05-1.22-0.06-1.83-0.08c-0.17-0.01-0.37-0.3-0.35-0.49
			c0.07-0.76,0.22-1.51,0.43-2.25c0.1-0.37,0.18-0.74,0.13-1.13c-0.02-0.15-0.1-0.29-0.26-0.34c-0.37-0.11-0.75-0.09-1.12,0.02
			c-0.16,0.05-0.28,0.15-0.33,0.29c-0.07,0.22-0.13,0.44-0.17,0.66c-0.2,0.97-0.4,1.94-0.67,2.89c-0.04,0.15-0.18,0.25-0.33,0.29
			c-0.15,0.04-0.3,0.07-0.45,0.08c-0.46,0.02-0.92,0.03-1.37,0.05c-0.26,0.01-0.4,0.2-0.51,0.4c-0.07,0.13-0.12,0.28-0.17,0.42
			c-0.1,0.27,0.14,0.62,0.43,0.67c0.53,0.09,1.08-0.04,1.58,0.17c0.11,0.05,0.26,0.24,0.24,0.35c-0.15,1.52-0.54,3-0.85,4.5
			c-0.34,1.65-0.7,3.29-1.03,4.93c-0.11,0.53-0.13,1.06-0.06,1.6c0.07,0.48,0.32,0.86,0.69,1.15c0.3,0.23,0.66,0.39,1.05,0.43
			C431.16,278.18,431.54,278.19,431.92,278.21z M516.51,264.7c0.01,0,0.03,0,0.04,0c0-0.23,0-0.46,0-0.68
			c0-0.23-0.18-0.46-0.39-0.49c-0.15-0.02-0.31-0.03-0.46-0.03c-0.36,0.01-0.6,0.18-0.7,0.48c-0.07,0.22-0.16,0.43-0.21,0.65
			c-0.23,1.12-0.42,2.26-0.68,3.37c-0.7,3.06-1.31,6.13-1.98,9.2c-0.03,0.15-0.06,0.31-0.01,0.45c0.04,0.13,0.14,0.29,0.26,0.34
			c0.28,0.12,0.6,0.13,0.9,0.05c0.22-0.05,0.43-0.15,0.5-0.41c0.12-0.44,0.27-0.88,0.37-1.32c0.36-1.64,0.69-3.29,1.04-4.94
			c0.15-0.67,0.3-1.35,0.51-2c0.29-0.88,0.7-1.7,1.32-2.4c0.89-1.02,1.97-1.69,3.36-1.76c0.38-0.02,0.76-0.05,1.14-0.12
			c0.13-0.02,0.27-0.16,0.34-0.28c0.19-0.34,0.26-0.71,0.2-1.1c-0.03-0.18-0.11-0.27-0.29-0.31c-0.46-0.11-0.91-0.05-1.37-0.02
			c-0.87,0.06-1.64,0.39-2.31,0.92c-0.3,0.23-0.56,0.52-0.85,0.77c-0.11,0.09-0.24,0.17-0.38,0.23c-0.06,0.03-0.16,0.02-0.23-0.01
			c-0.05-0.02-0.1-0.09-0.11-0.15C516.52,265,516.52,264.85,516.51,264.7z M461.96,278.09c0.08,0,0.16,0,0.23,0
			c0.44-0.02,0.78-0.26,0.86-0.61c0.14-0.6,0.29-1.19,0.41-1.79c1.05-5.02,2.14-10.03,3.24-15.05c0.16-0.74,0.39-1.48,0.4-2.25
			c0-0.12-0.12-0.31-0.24-0.35c-0.28-0.12-0.6-0.12-0.91-0.07c-0.24,0.03-0.45,0.12-0.53,0.35c-0.23,0.65-0.38,1.32-0.52,2
			c-0.53,2.55-1.09,5.09-1.64,7.64c-0.53,2.47-1.05,4.94-1.58,7.41c-0.11,0.52-0.24,1.04-0.36,1.57c-0.03,0.15-0.06,0.3-0.06,0.45
			c0.01,0.15,0.05,0.3,0.1,0.43C461.49,278.09,461.75,278.05,461.96,278.09z M550.77,261.6c0.21-1.04,0.41-2.09,0.61-3.13
			c0.04-0.19-0.17-0.44-0.39-0.48c-0.08-0.01-0.15-0.04-0.22-0.04c-0.15-0.01-0.3-0.01-0.46,0c-0.44,0.01-0.75,0.23-0.84,0.62
			c-0.16,0.67-0.31,1.33-0.45,2c-0.25,1.19-0.5,2.38-0.75,3.58c-0.49,2.39-0.8,4.81-1.26,7.2c-0.09,0.44-0.17,0.9-0.09,1.36
			c0.03,0.18,0.11,0.28,0.28,0.31c0.36,0.07,0.52,0.03,0.6-0.16c0.16-0.42,0.35-0.84,0.48-1.28c0.31-1.1,0.61-2.2,0.87-3.31
			C549.69,266.04,550.36,263.85,550.77,261.6z M546.22,278.12c0.27-0.01,0.5,0,0.72-0.04c0.23-0.04,0.43-0.15,0.52-0.38
			c0.28-0.71,0.49-1.43,0.5-2.21c0-0.22-0.18-0.47-0.39-0.47c-0.45-0.01-0.91-0.01-1.36,0c-0.3,0.01-0.55,0.24-0.63,0.56
			c-0.13,0.52-0.26,1.03-0.37,1.55c-0.03,0.14-0.01,0.3-0.03,0.45c-0.02,0.17,0.23,0.47,0.4,0.48
			C545.8,278.08,546.03,278.1,546.22,278.12z"/>
		<path class="st1" d="M119.7,206.43c-0.11-5.14-0.21-10.28-0.32-15.42c-0.11-5.37-0.23-10.74-0.33-16.11
			c-0.09-4.37-0.15-8.75-0.24-13.12c-0.08-4.07-0.19-8.13-0.27-12.2c-0.08-3.99-0.13-7.98-0.19-11.97
			c-0.01-0.38,0.02-0.76,0.05-1.15c0.03-0.45,0.62-0.79,1.04-0.6c0.14,0.06,0.28,0.12,0.41,0.2c0.46,0.28,0.89,0.6,1.26,0.99
			c0.53,0.56,1.06,1.11,1.57,1.68c3.24,3.59,6.48,7.18,9.73,10.76c0.72,0.8,1.46,1.58,2.18,2.37c0.24,0.26,0.34,0.49,0.35,0.82
			c0.04,1.38,0.11,2.76,0.12,4.14c0.16,24.17,0.4,48.34,0.5,72.51c0.04,10.9,0.18,21.79,0.26,32.69c0.03,3.84,0.05,7.67,0.06,11.51
			c0,1-0.04,1.99-0.07,2.99c-0.01,0.29-0.3,0.62-0.55,0.64c-0.3,0.03-0.61,0.09-0.91,0.09c-1.07,0.02-2.15,0.04-3.22,0.01
			c-2.84-0.07-5.68-0.07-8.52-0.05c-0.38,0-0.77,0.03-1.14-0.09c-0.16-0.05-0.26-0.13-0.3-0.31c-0.03-0.15-0.1-0.29-0.1-0.44
			c-0.02-0.92-0.03-1.84-0.05-2.76c-0.16-8.52-0.33-17.03-0.49-25.55c-0.14-7.13-0.28-14.27-0.43-21.4
			c-0.01-0.38-0.02-0.77-0.03-1.15c-0.14-6.37-0.27-12.73-0.41-19.1C119.68,206.43,119.69,206.43,119.7,206.43z"/>
		<path class="st2" d="M210.68,244.48c-0.82-0.04-1.82,0.07-2.81-0.07c-0.16-0.02-0.31-0.11-0.36-0.25c-0.18-0.5-0.38-1-0.52-1.52
			c-2.01-7.08-4.01-14.16-6.02-21.24c-2.13-7.52-4.27-15.04-6.39-22.56c-1-3.54-1.99-7.08-2.98-10.63
			c-0.06-0.23-0.17-0.42-0.34-0.58c-0.05-0.05-0.13-0.09-0.2-0.1c-0.04-0.01-0.12,0.04-0.14,0.08c-0.58,1.67-1,3.38-1.48,5.07
			c-1.63,5.75-3.24,11.51-4.86,17.26c-1.78,6.35-3.57,12.69-5.35,19.03c-1.39,4.94-2.78,9.89-4.18,14.83
			c-0.11,0.39-0.44,0.65-0.84,0.65c-1.84,0-3.68-0.01-5.53-0.02c-0.25,0-0.43-0.16-0.52-0.38c-0.15-0.35-0.29-0.71-0.39-1.08
			c-2.89-10.41-5.78-20.82-8.67-31.24c-1.92-6.94-3.83-13.89-5.75-20.83c-0.84-3.03-1.7-6.05-2.55-9.08
			c-0.1-0.37-0.16-0.75-0.23-1.13c-0.03-0.17,0.21-0.52,0.37-0.52c1.76-0.01,3.53-0.01,5.29-0.01c0.46,0,0.76,0.21,0.86,0.6
			c0.47,1.78,0.94,3.56,1.4,5.34c1.15,4.45,2.3,8.91,3.45,13.36c1.15,4.45,2.32,8.9,3.47,13.35c1.15,4.45,2.3,8.9,3.45,13.36
			c0.73,2.82,1.45,5.64,2.18,8.46c0.08,0.3,0.19,0.59,0.31,0.86c0.07,0.16,0.21,0.24,0.32,0.22c0.06-0.02,0.13-0.09,0.16-0.16
			c0.14-0.35,0.3-0.71,0.4-1.07c2.67-9.6,5.32-19.2,7.99-28.8c2.08-7.46,4.18-14.91,6.27-22.36c0.25-0.88,0.49-1.77,0.74-2.65
			c0.07-0.25,0.43-0.49,0.71-0.49c2.15-0.01,4.3-0.01,6.45-0.01c0.35,0,0.71,0.3,0.83,0.68c0.02,0.07,0.04,0.15,0.06,0.22
			c0.47,1.7,0.95,3.4,1.42,5.09c2.27,8.12,4.55,16.23,6.82,24.35c1.75,6.27,3.5,12.55,5.24,18.83c0.49,1.77,0.99,3.54,1.49,5.31
			c0.08,0.29,0.19,0.58,0.32,0.86c0.08,0.17,0.21,0.23,0.32,0.18c0.07-0.03,0.14-0.09,0.16-0.16c0.12-0.28,0.25-0.56,0.33-0.85
			c2.28-8.83,4.6-17.65,6.9-26.48c2.15-8.23,4.28-16.47,6.44-24.7c0.25-0.96,0.48-1.93,0.77-2.88c0.05-0.15,0.36-0.42,0.5-0.43
			c0.15-0.01,0.31-0.04,0.46-0.04c1.54,0,3.07,0.01,4.61,0.02c0.31,0,0.54,0.32,0.46,0.63c-0.13,0.52-0.25,1.04-0.4,1.56
			c-1.95,7.09-3.91,14.19-5.87,21.28c-1.92,6.94-3.86,13.88-5.78,20.83c-1.61,5.84-3.21,11.68-4.81,17.52
			c-0.1,0.37-0.25,0.73-0.33,1.1c-0.29,1.39-0.5,1.39-1.9,1.38C211.93,244.48,211.4,244.48,210.68,244.48z"/>
		<path class="st3" d="M342.36,212.38c0,9.75,0,19.49,0,29.24c0,0.69,0,1.38-0.01,2.07c0,0.42-0.3,0.76-0.68,0.76
			c-1.92,0-3.84,0-5.76,0.01c-0.27,0-0.43-0.17-0.58-0.33c-0.25-0.29-0.47-0.6-0.69-0.91c-5.05-7.33-10.1-14.65-15.15-21.98
			c-6.7-9.73-13.4-19.46-20.11-29.19c-0.3-0.44-0.63-0.87-0.95-1.3c-0.14,0.03-0.33,0-0.41,0.09c-0.09,0.09-0.13,0.28-0.13,0.43
			c-0.02,0.77-0.02,1.53-0.02,2.3c0,16.04,0,32.08,0,48.12c0,0.77,0.05,1.53-0.06,2.3c-0.02,0.16-0.3,0.44-0.45,0.45
			c-0.77,0.02-1.53,0.05-2.3,0.05c-0.84,0.01-1.69,0-2.53-0.01c-0.43,0-0.75-0.29-0.76-0.68c-0.01-0.46-0.03-0.92-0.03-1.38
			c0-20.11,0-40.21,0-60.32c0-0.46,0.04-0.92,0.05-1.38c0.01-0.16,0.28-0.46,0.43-0.48c0.15-0.02,0.3-0.05,0.46-0.06
			c1.77,0,3.53,0,5.3,0c0.43,0,0.72,0.23,0.97,0.52c0.2,0.23,0.35,0.5,0.52,0.76c6.05,8.78,12.1,17.56,18.15,26.35
			c5.66,8.21,11.32,16.42,16.98,24.63c0.35,0.5,0.72,0.99,1.08,1.49c0.14-0.02,0.33,0,0.41-0.08c0.1-0.09,0.13-0.28,0.13-0.43
			c0.02-0.77,0.02-1.53,0.02-2.3c0-16.04,0-32.08,0-48.12c0-0.77,0.03-1.53,0.04-2.3c0-0.17,0.27-0.46,0.43-0.46
			c0.69-0.02,1.38-0.05,2.07-0.05c0.92-0.01,1.84,0,2.76,0.01c0.52,0.01,0.79,0.31,0.8,0.89c0.01,0.69,0.01,1.38,0.01,2.07
			C342.36,192.89,342.36,202.64,342.36,212.38z"/>
		<path class="st4" d="M238.48,212.24c0-9.9,0-19.8,0-29.7c0-0.61,0.04-1.23,0.06-1.84c0.01-0.19,0.26-0.47,0.42-0.48
			c0.15-0.01,0.3-0.05,0.45-0.05c0.38-0.01,0.77-0.01,1.15-0.01c13.36,0,26.72,0,40.08,0c0.61,0,1.23-0.08,1.83,0.09
			c0.12,0.04,0.22,0.2,0.31,0.32c0.04,0.06,0.05,0.15,0.05,0.22c0.05,1.38,0.09,2.76-0.02,4.13c-0.01,0.15-0.29,0.46-0.44,0.47
			c-0.15,0.02-0.3,0.05-0.46,0.06c-0.69,0.01-1.38,0.01-2.07,0.01c-10.83,0-21.65,0-32.48,0c-0.77,0-1.53,0.03-2.3,0.05
			c-0.16,0-0.41,0.3-0.41,0.48c-0.01,0.23-0.03,0.46-0.03,0.69c0,6.83,0,13.66,0,20.49c0,0.31,0.03,0.61,0.04,0.92
			c0.01,0.16,0.28,0.48,0.42,0.48c0.61,0.01,1.23,0.04,1.84,0.04c10.29,0,20.58,0,30.87,0c0.69,0,1.38,0.03,2.07,0.05
			c0.26,0.01,0.54,0.32,0.54,0.63c0.01,1.3,0.01,2.61,0.01,3.91c0,0.3-0.29,0.57-0.59,0.59c-0.23,0.01-0.46,0.03-0.69,0.03
			c-0.61,0-1.23,0-1.84,0c-10.06,0-20.12,0-30.17,0c-0.69,0-1.38-0.06-2.07,0.07c-0.14,0.03-0.39,0.32-0.4,0.49
			c-0.01,0.23-0.03,0.46-0.03,0.69c0,7.6,0,15.19,0,22.79c0,0.3,0.01,0.61,0.07,0.91c0.03,0.12,0.18,0.26,0.3,0.32
			c0.13,0.06,0.3,0.06,0.45,0.06c0.77,0.01,1.54,0.01,2.3,0.01c10.9,0,21.81,0,32.71,0c0.61,0,1.23,0,1.84,0.01
			c0.74,0.01,1.02,0.25,1.02,0.92c0,1.23-0.01,2.45-0.02,3.68c0,0.39-0.32,0.67-0.76,0.68c-0.15,0-0.31,0.01-0.46,0.01
			c-0.31,0-0.61,0-0.92,0c-13.51,0-27.03,0-40.54,0c-0.54,0-1.07-0.03-1.61-0.05c-0.16,0-0.46-0.28-0.48-0.43
			c-0.02-0.15-0.06-0.3-0.06-0.46c-0.01-0.69-0.01-1.38-0.01-2.07C238.48,231.73,238.48,221.99,238.48,212.24z"/>
		<path class="st5" d="M115.08,26.78c2.01-0.05,4.32-0.1,6.62-0.15c0.69-0.02,1.38-0.02,2.07-0.05c5.29-0.26,10.59-0.32,15.89-0.48
			c7.06-0.22,14.12-0.45,21.18-0.66c3.61-0.11,7.22-0.15,10.82-0.3c4.68-0.19,9.36-0.27,14.04-0.41c6.29-0.18,12.59-0.37,18.88-0.55
			c0.31-0.01,0.61,0,0.92,0.02c0.15,0.01,0.3,0.07,0.44,0.11c0.27,0.07,0.54,0.43,0.5,0.69c-0.04,0.22-0.12,0.45-0.34,0.57
			c-0.13,0.08-0.27,0.16-0.41,0.19c-0.22,0.05-0.46,0.06-0.69,0.07c-6.68,0.19-13.35,0.38-20.03,0.58c-2.15,0.06-4.3,0.17-6.45,0.23
			c-4.83,0.14-9.67,0.22-14.5,0.42c-3.3,0.13-6.6,0.17-9.9,0.27c-7.44,0.22-14.89,0.46-22.33,0.68c-2.53,0.08-5.07,0.11-7.6,0.2
			c-5.83,0.21-11.67,0.33-17.5,0.52c-5.22,0.17-10.44,0.29-15.66,0.45c-7.06,0.21-14.12,0.44-21.18,0.66
			c-0.31,0.01-0.61,0.03-0.92,0.03c-7.67,0.21-15.35,0.42-23.02,0.63c-1.69,0.05-3.38,0.12-5.06,0.17
			c-4.37,0.13-8.75,0.25-13.12,0.37c-0.31,0.01-0.63,0-0.89,0.16c-0.11,0.07-0.16,0.25-0.2,0.39c-0.02,0.05,0.05,0.14,0.09,0.2
			c0.39,0.47,0.78,0.94,1.19,1.4c4.67,5.19,9.35,10.38,14.03,15.56c0.41,0.46,0.82,0.91,1.24,1.36c0.33,0.35,0.71,0.53,1.22,0.51
			c3.91-0.14,7.83-0.27,11.74-0.39c3.84-0.12,7.67-0.22,11.51-0.33c3.22-0.09,6.45-0.17,9.67-0.27c3.76-0.11,7.52-0.25,11.28-0.36
			c5.91-0.17,11.82-0.33,17.73-0.51c4.45-0.13,8.9-0.28,13.35-0.41c7.21-0.21,14.43-0.4,21.64-0.61c6.83-0.2,13.66-0.44,20.49-0.64
			c4.07-0.12,8.14-0.22,12.2-0.32c0.3-0.01,0.61,0.03,0.92,0.05c0.36,0.03,0.71,0.44,0.68,0.79c-0.02,0.27-0.32,0.64-0.55,0.67
			c-0.3,0.04-0.61,0.1-0.91,0.11c-5.37,0.17-10.74,0.32-16.12,0.48c-3.61,0.11-7.21,0.23-10.82,0.34
			c-7.75,0.23-15.5,0.45-23.25,0.67c-4.83,0.14-9.67,0.25-14.5,0.42c-5.6,0.2-11.21,0.28-16.81,0.5
			c-7.06,0.28-14.12,0.36-21.18,0.65c-2.38,0.1-4.76,0.11-7.14,0.18c-5.76,0.17-11.51,0.34-17.27,0.52
			c-0.38,0.01-0.76-0.02-1.13,0.13c-0.17,0.07-0.31,0.41-0.19,0.56c0.45,0.53,0.89,1.06,1.35,1.57c4.01,4.45,8.01,8.9,12.02,13.34
			c8.02,8.89,16.04,17.79,24.06,26.68c5.4,5.99,10.79,11.97,16.19,17.96c4.42,4.9,8.84,9.81,13.25,14.71
			c0.26,0.28,0.51,0.57,0.75,0.87c0.09,0.12,0.14,0.27,0.22,0.4c0.13,0.24,0.04,0.61-0.2,0.83c-0.21,0.2-0.66,0.26-0.86,0.11
			c-0.24-0.19-0.49-0.37-0.69-0.6c-1.3-1.42-2.58-2.84-3.87-4.26c-8.53-9.47-17.06-18.93-25.59-28.4
			C69.9,82.25,57.41,68.4,44.92,54.55c-6.94-7.7-13.88-15.39-20.81-23.09c-0.21-0.23-0.42-0.46-0.58-0.71
			c-0.17-0.26-0.24-0.55-0.14-0.87c0.06-0.21,0.29-0.44,0.48-0.44c0.84-0.01,1.69,0,2.53-0.02c3.07-0.09,6.14-0.2,9.21-0.29
			c2.15-0.06,4.3-0.11,6.45-0.17c2.53-0.07,5.06-0.16,7.6-0.24c1.3-0.04,2.61-0.08,3.91-0.12c3.68-0.11,7.37-0.21,11.05-0.32
			c4.14-0.12,8.29-0.24,12.43-0.36c4.91-0.14,9.83-0.23,14.74-0.42c5.22-0.2,10.44-0.32,15.66-0.47
			C109.88,26.96,112.34,26.87,115.08,26.78z"/>
		<path class="st6" d="M376.86,214.91c0,8.97,0,17.95,0,26.92c0,0.69-0.03,1.38-0.05,2.07c-0.01,0.27-0.32,0.56-0.62,0.56
			c-1.61,0.01-3.22,0.02-4.83,0.02c-0.37,0-0.67-0.34-0.69-0.77c-0.01-0.23-0.02-0.46-0.02-0.69c0-0.61,0-1.23,0-1.84
			c0-17.56,0-35.13,0-52.69c0-0.84-0.03-1.69-0.05-2.53c0-0.16-0.3-0.43-0.46-0.43c-0.61-0.01-1.23-0.04-1.84-0.04
			c-5.83,0-11.66,0-17.5,0c-0.61,0-1.23-0.02-1.84-0.04c-0.29-0.01-0.57-0.31-0.58-0.6c-0.04-1.38-0.08-2.76,0.02-4.13
			c0.01-0.15,0.29-0.48,0.43-0.49c0.15-0.01,0.3-0.05,0.46-0.05c0.61-0.01,1.23-0.01,1.84-0.01c15.12,0,30.24,0,45.35,0
			c0.76,0,1.53-0.07,2.29,0.07c0.16,0.03,0.26,0.13,0.31,0.29c0.02,0.07,0.06,0.14,0.07,0.21c0.08,1.38,0.08,2.76,0,4.14
			c-0.02,0.32-0.28,0.58-0.59,0.58c-0.69,0.01-1.38,0.02-2.07,0.02c-5.6,0-11.2,0-16.81,0c-0.69,0-1.38,0-2.07,0.01
			c-0.15,0-0.32,0.01-0.44,0.08c-0.12,0.07-0.27,0.22-0.27,0.35c-0.04,0.69-0.05,1.38-0.05,2.07c0,6.98,0,13.96,0,20.94
			C376.86,210.92,376.86,212.91,376.86,214.91z"/>
		<path class="st7" d="M127.3,72.65c2.06-0.09,4.4,0.37,6.64,1.22c2.38,0.9,4.6,2.12,6.43,3.94c0.11,0.11,0.24,0.19,0.36,0.29
			c0.16,0.13,0.48,0.17,0.64,0.07c0.45-0.29,0.91-0.57,1.35-0.88c7.04-4.93,14.08-9.87,21.12-14.81
			c9.43-6.61,18.85-13.23,28.28-19.84c12.32-8.64,24.63-17.29,36.95-25.93c0.44-0.31,0.88-0.62,1.32-0.92
			c0.19-0.13,0.4-0.22,0.6-0.33c0.39-0.2,1,0.09,1.09,0.53c0.02,0.07,0.01,0.16-0.01,0.23c-0.09,0.3-0.25,0.56-0.5,0.75
			c-1.19,0.85-2.38,1.69-3.57,2.53c-9.93,6.97-19.86,13.93-29.79,20.9c-13.26,9.3-26.52,18.6-39.78,27.9
			c-4.9,3.44-9.8,6.88-14.7,10.33c-0.38,0.26-0.74,0.55-1.1,0.83c-0.14,0.11-0.21,0.48-0.12,0.62c0.3,0.44,0.6,0.89,0.9,1.33
			c0.38,0.58,0.78,1.14,1.12,1.74c0.54,0.93,0.95,1.92,1.28,2.95c0.68,2.14,0.99,4.34,1.01,6.57c0.02,2.4-0.47,4.73-1.34,6.97
			c-1.01,2.61-2.53,4.9-4.48,6.91c-1.68,1.73-3.67,3.03-5.86,4c-1.76,0.79-3.6,1.33-5.51,1.58c-1.76,0.24-3.52,0.23-5.28-0.01
			c-1.84-0.26-3.6-0.75-5.3-1.49c-3.32-1.45-6.02-3.64-8.14-6.57c-0.31-0.43-0.62-0.87-0.94-1.31c-0.12-0.17-0.46-0.27-0.61-0.17
			c-0.26,0.16-0.53,0.31-0.78,0.49c-2.12,1.52-4.24,3.04-6.37,4.55c-0.31,0.22-0.65,0.4-0.99,0.59c-0.42,0.23-0.96-0.09-1.04-0.59
			c-0.04-0.24,0.05-0.47,0.21-0.63c0.27-0.27,0.56-0.52,0.87-0.74c1.87-1.35,3.74-2.68,5.61-4.03c0.56-0.4,1.1-0.83,1.65-1.25
			c0.12-0.09,0.23-0.5,0.18-0.63c-0.15-0.43-0.29-0.87-0.45-1.3c-0.83-2.34-1.15-4.76-1.07-7.24c0.14-4.72,1.87-8.81,4.89-12.38
			c1.2-1.41,2.65-2.56,4.2-3.57c2.14-1.4,4.46-2.39,6.99-2.85C124.29,72.78,125.59,72.66,127.3,72.65z M126.97,74.52
			c-0.77,0.03-1.53,0.05-2.3,0.09c-0.31,0.02-0.61,0.06-0.91,0.12c-2.04,0.44-3.99,1.08-5.81,2.12c-0.8,0.46-1.58,0.93-2.27,1.56
			c-0.51,0.47-1.05,0.89-1.57,1.35c-0.23,0.2-0.45,0.42-0.65,0.65c-0.34,0.41-0.68,0.84-0.98,1.28c-0.79,1.13-1.62,2.24-2.03,3.59
			c-0.04,0.15-0.13,0.28-0.18,0.42c-0.23,0.57-0.5,1.12-0.62,1.73c-0.18,0.9-0.52,1.77-0.53,2.7c0,0.38-0.12,0.75-0.18,1.13
			c-0.15,0.92-0.17,1.83,0.03,2.74c0.08,0.37,0.17,0.75,0.18,1.13c0.03,0.86,0.27,1.67,0.54,2.46c0.29,0.87,0.49,1.78,1.09,2.52
			c0.14,0.17,0.19,0.41,0.28,0.62c0.15,0.35,0.27,0.72,0.46,1.05c1.08,1.9,2.52,3.48,4.23,4.81c1.83,1.42,3.89,2.44,6.1,3.17
			c0.74,0.24,1.51,0.27,2.25,0.48c0.75,0.21,1.51,0.27,2.28,0.26c0.61,0,1.23,0,1.84-0.01c0.31-0.01,0.62-0.02,0.92-0.08
			c1.5-0.31,3-0.6,4.45-1.15c2.04-0.77,3.87-1.84,5.46-3.33c0.5-0.47,0.99-0.97,1.49-1.44c1.25-1.18,2.12-2.61,2.77-4.19
			c0.18-0.43,0.35-0.85,0.52-1.28c0.47-1.14,0.88-2.29,0.96-3.53c0.02-0.3,0.07-0.61,0.16-0.9c0.17-0.6,0.17-1.21,0.2-1.82
			c0.08-1.63-0.31-3.2-0.61-4.78c-0.11-0.6-0.26-1.21-0.49-1.77c-0.68-1.63-1.49-3.2-2.6-4.59c-0.14-0.18-0.34-0.31-0.52-0.44
			c-0.13-0.1-0.29-0.13-0.44-0.07c-0.21,0.09-0.42,0.18-0.61,0.3c-1.63,1.15-3.33,2.2-4.9,3.43c-0.42,0.33-0.88,0.61-1.4,0.78
			c-0.22,0.08-0.45,0.07-0.68,0.04c-0.38-0.06-0.66-0.49-0.55-0.86c0.05-0.14,0.09-0.3,0.18-0.41c0.15-0.17,0.32-0.33,0.51-0.46
			c1.7-1.19,3.4-2.36,5.1-3.55c0.31-0.22,0.61-0.46,0.85-0.77c0.1-0.14,0.11-0.53-0.02-0.64c-0.23-0.2-0.45-0.41-0.68-0.61
			c-1.6-1.35-3.39-2.34-5.41-2.95C130.93,74.87,129,74.41,126.97,74.52z"/>
		<path class="st8" d="M129.04,315.44c-8.9,0.15-17.81,0.3-26.71,0.44c-5.45,0.09-10.9,0.14-16.35,0.22
			c-5.99,0.09-11.97,0.22-17.96,0.31c-4.76,0.08-9.52,0.12-14.28,0.2c-8.9,0.14-17.81,0.28-26.71,0.42
			c-0.46,0.01-0.92-0.02-1.38-0.07c-0.14-0.01-0.27-0.13-0.4-0.22c-0.38-0.28-0.32-0.94,0.11-1.15c0.14-0.07,0.28-0.14,0.43-0.16
			c0.38-0.04,0.76-0.06,1.15-0.06c10.36-0.21,20.73-0.34,31.09-0.48c5.99-0.08,11.97-0.21,17.96-0.3
			c14.36-0.22,28.71-0.38,43.07-0.65c14.35-0.27,28.71-0.39,43.06-0.71c2.99-0.06,5.99-0.08,8.98-0.13
			c12.36-0.18,24.72-0.36,37.08-0.55c7.37-0.11,14.74-0.24,22.11-0.35c0.61-0.01,1.23,0,1.84,0.03c0.33,0.02,0.55,0.21,0.7,0.51
			c0.15,0.31-0.07,0.84-0.41,0.94c-0.15,0.04-0.29,0.12-0.44,0.13c-0.46,0.03-0.92,0.05-1.38,0.06c-5.53,0.09-11.05,0.18-16.58,0.27
			c-6.29,0.1-12.59,0.21-18.88,0.3c-4.99,0.08-9.98,0.13-14.97,0.21c-5.37,0.08-10.75,0.2-16.12,0.28
			c-6.45,0.1-12.9,0.16-19.35,0.26c-5.22,0.08-10.44,0.19-15.66,0.29C129.04,315.47,129.04,315.45,129.04,315.44z"/>
		<path class="st9" d="M295.54,278.09c-0.22-0.04-0.49,0.02-0.58-0.26c-0.05-0.14-0.09-0.29-0.09-0.44c0-0.15,0.03-0.31,0.06-0.45
			c0.22-0.97,0.46-1.94,0.68-2.91c0.75-3.44,1.6-6.87,2.31-10.32c0.04-0.17-0.09-0.51-0.25-0.58c-0.14-0.06-0.3-0.13-0.44-0.11
			c-0.14,0.02-0.31,0.11-0.39,0.23c-0.43,0.63-0.85,1.28-1.24,1.93c-2.24,3.66-4.48,7.33-6.72,10.99c-0.32,0.52-0.66,1.04-0.99,1.55
			c-0.13,0.2-0.34,0.31-0.58,0.33c-0.3,0.03-0.61,0.03-0.92,0.03c-0.33-0.01-0.63-0.24-0.68-0.51c-0.31-1.66-0.63-3.31-0.92-4.97
			c-0.42-2.42-0.82-4.84-1.28-7.25c-0.21-1.13-0.28-2.28-0.68-3.37c-0.06-0.17-0.16-0.2-0.35-0.2c-0.19-0.01-0.29,0.02-0.34,0.22
			c-0.02,0.07-0.08,0.13-0.1,0.21c-0.13,0.52-0.27,1.04-0.38,1.57c-0.67,3.3-1.33,6.61-2,9.92c-0.26,1.28-0.55,2.55-0.84,3.82
			c-0.09,0.4-0.36,0.58-0.86,0.6c-0.15,0.01-0.31-0.01-0.46-0.02c-0.31-0.02-0.58-0.32-0.53-0.61c0.16-0.98,0.39-1.95,0.6-2.92
			c0.55-2.55,1.09-5.1,1.66-7.64c0.64-2.84,1.18-5.7,1.9-8.53c0.04-0.17,0.32-0.39,0.51-0.4c0.08-0.01,0.15-0.03,0.23-0.03
			c0.54,0,1.07-0.01,1.61,0.02c0.23,0.01,0.42,0.16,0.53,0.38c0.07,0.14,0.14,0.28,0.17,0.43c0.15,1.06,0.37,2.12,0.55,3.17
			c0.43,2.49,0.84,4.99,1.3,7.48c0.24,1.28,0.44,2.57,0.63,3.86c0.09,0.61,0.21,1.21,0.42,1.79c0.02,0.06,0.07,0.15,0.12,0.16
			c0.17,0.03,0.31-0.03,0.4-0.16c0.29-0.45,0.59-0.9,0.87-1.35c2.88-4.71,5.76-9.42,8.65-14.12c0.24-0.39,0.47-0.79,0.73-1.17
			c0.18-0.26,0.42-0.46,0.75-0.46c0.61,0,1.23,0.02,1.84,0.04c0.16,0,0.4,0.34,0.37,0.51c-0.35,1.65-0.69,3.3-1.04,4.94
			c-0.53,2.47-1.06,4.95-1.59,7.42c-0.47,2.17-0.93,4.35-1.4,6.52c-0.11,0.53-0.37,0.7-1.01,0.71
			C295.69,278.09,295.61,278.09,295.54,278.09z M297.65,261.82c-0.03,0.06-0.06,0.12-0.08,0.19c-0.09,0.2-0.05,0.39,0.1,0.53
			c0.09,0.08,0.41,0,0.51-0.14c0.08-0.11,0.13-0.24,0.19-0.36c0.31-0.29,0.33-0.67,0.27-1.05c-0.01-0.07-0.07-0.14-0.12-0.19
			c-0.1-0.09-0.26-0.09-0.38,0.04C297.88,261.11,297.61,261.4,297.65,261.82z"/>
		<path class="st8" d="M39.43,309.63c-0.25-0.04-0.46-0.13-0.58-0.35c-0.17-0.3-0.14-0.61,0.1-0.84c0.11-0.1,0.22-0.23,0.35-0.29
			c0.63-0.28,1.27-0.54,1.91-0.79c6.95-2.67,13.89-5.33,20.84-7.99c12.82-4.91,25.64-9.82,38.46-14.74
			c3.87-1.48,7.73-2.97,11.6-4.45c0.36-0.14,0.72-0.26,1.09-0.37c0.14-0.04,0.3-0.07,0.45-0.06c0.24,0,0.45,0.09,0.6,0.27
			c0.18,0.21,0.21,0.67,0.04,0.86c-0.15,0.17-0.32,0.35-0.52,0.44c-0.49,0.23-0.99,0.41-1.49,0.6c-7.38,2.83-14.75,5.66-22.13,8.48
			c-5.87,2.25-11.75,4.5-17.62,6.75c-7.88,3.02-15.75,6.05-23.62,9.07c-2.65,1.02-5.3,2.03-7.95,3.04
			c-0.36,0.14-0.73,0.25-1.09,0.35C39.72,309.66,39.56,309.63,39.43,309.63z"/>
		<path class="st9" d="M379.68,265c0.29-0.36,0.66-0.64,1.04-0.9c0.83-0.59,1.78-0.87,2.78-1c0.3-0.04,0.62-0.03,0.92,0.02
			c1.29,0.2,2.32,0.77,2.8,2.07c0.06,0.16,0.16,0.26,0.32,0.3c0.07,0.02,0.17,0.07,0.21,0.04c0.19-0.13,0.37-0.28,0.54-0.43
			c0.29-0.26,0.55-0.54,0.84-0.78c0.92-0.76,1.99-1.13,3.16-1.24c0.86-0.07,1.69,0.12,2.46,0.47c0.72,0.33,1.24,0.92,1.5,1.67
			c0.31,0.87,0.41,1.77,0.24,2.71c-0.19,1.06-0.42,2.1-0.64,3.15c-0.47,2.17-0.88,4.35-1.43,6.5c-0.06,0.25-0.25,0.38-0.47,0.44
			c-0.3,0.08-0.6,0.08-0.91,0.01c-0.19-0.04-0.38-0.32-0.36-0.52c0.01-0.07-0.02-0.16,0-0.23c0.19-0.9,0.4-1.79,0.59-2.69
			c0.45-2.1,0.89-4.19,1.34-6.29c0.05-0.22,0.1-0.45,0.13-0.68c0.11-0.71-0.06-1.37-0.43-1.98c-0.25-0.4-0.62-0.67-1.08-0.81
			c-0.83-0.24-1.67-0.19-2.5,0.03c-0.15,0.04-0.28,0.11-0.42,0.18c-0.7,0.36-1.26,0.88-1.7,1.52c-0.43,0.63-0.79,1.31-1.04,2.04
			c-0.38,1.09-0.67,2.2-0.91,3.32c-0.37,1.72-0.72,3.45-1.09,5.17c-0.05,0.22-0.16,0.43-0.26,0.63c-0.11,0.22-0.31,0.33-0.55,0.34
			c-0.23,0.01-0.46-0.01-0.68-0.04c-0.21-0.02-0.4-0.29-0.37-0.5c0.06-0.45,0.1-0.91,0.19-1.36c0.51-2.4,1.03-4.79,1.57-7.18
			c0.17-0.76,0.26-1.51,0.19-2.28c-0.06-0.64-0.35-1.17-0.83-1.59c-0.11-0.1-0.25-0.18-0.39-0.23c-0.36-0.14-0.74-0.2-1.12-0.2
			c-0.87,0.01-1.65,0.25-2.36,0.78c-0.69,0.51-1.24,1.14-1.69,1.86c-0.66,1.05-1.09,2.19-1.36,3.4c-0.49,2.24-0.96,4.49-1.45,6.74
			c-0.08,0.36-0.41,0.6-0.86,0.61c-0.15,0-0.3-0.02-0.46-0.03c-0.2-0.01-0.45-0.25-0.45-0.44c0-0.15-0.02-0.31,0.01-0.46
			c0.78-3.59,1.57-7.18,2.29-10.79c0.15-0.75,0.33-1.49,0.5-2.24c0.08-0.37,0.4-0.62,0.84-0.64c0.15-0.01,0.31,0.01,0.46,0.04
			c0.22,0.03,0.37,0.26,0.39,0.49c0.02,0.32-0.08,0.6-0.2,0.88c-0.05,0.05-0.12,0.1-0.14,0.16c-0.08,0.27-0.02,0.52,0.14,0.56
			c0.13,0.04,0.25,0,0.37-0.12C379.49,265.37,379.68,265.24,379.68,265z"/>
		<path class="st10" d="M526.05,264.72c0.32-0.21,0.64-0.42,0.95-0.64c0.58-0.39,1.21-0.64,1.88-0.83c1.01-0.28,1.97-0.21,2.93,0.16
			c0.52,0.2,0.93,0.53,1.25,0.98c0.13,0.19,0.24,0.39,0.35,0.6c0.11,0.2,0.2,0.41,0.32,0.61c0.02,0.03,0.12,0.06,0.16,0.04
			c0.13-0.07,0.27-0.15,0.38-0.25c0.34-0.31,0.64-0.66,0.99-0.96c0.9-0.78,1.96-1.19,3.13-1.33c0.38-0.04,0.77-0.02,1.15,0.03
			c0.38,0.05,0.75,0.17,1.12,0.27c0.53,0.16,0.97,0.46,1.31,0.89c0.5,0.61,0.81,1.3,0.86,2.09c0.05,0.69,0.03,1.38-0.11,2.06
			c-0.62,2.92-1.25,5.85-1.88,8.77c-0.03,0.15-0.11,0.28-0.16,0.43c-0.1,0.26-0.4,0.46-0.73,0.45c-0.23-0.01-0.47-0.01-0.68-0.08
			c-0.11-0.04-0.24-0.21-0.26-0.34c-0.06-0.54,0.08-1.07,0.2-1.59c0.52-2.4,1.05-4.79,1.59-7.18c0.17-0.75,0.25-1.52,0.16-2.28
			c-0.09-0.73-0.49-1.27-1.13-1.64c-0.13-0.07-0.28-0.12-0.43-0.15c-0.3-0.05-0.61-0.11-0.91-0.13c-1.31-0.06-2.39,0.42-3.24,1.42
			c-0.5,0.59-0.88,1.25-1.18,1.96c-0.36,0.85-0.64,1.73-0.84,2.62c-0.34,1.49-0.64,3-0.97,4.49c-0.18,0.82-0.38,1.64-0.58,2.46
			c-0.04,0.15-0.15,0.26-0.3,0.32c-0.37,0.15-0.75,0.15-1.12,0.04c-0.11-0.03-0.21-0.21-0.26-0.34c-0.05-0.14-0.05-0.31-0.02-0.45
			c0.37-1.72,0.77-3.44,1.12-5.17c0.29-1.43,0.67-2.84,0.85-4.28c0.08-0.62,0.01-1.23-0.22-1.81c-0.24-0.6-0.67-1.03-1.32-1.17
			c-1.11-0.24-2.14-0.05-3.06,0.61c-0.63,0.45-1.16,1-1.6,1.64c-0.61,0.9-1.04,1.87-1.33,2.91c-0.37,1.33-0.61,2.69-0.9,4.04
			c-0.21,0.97-0.4,1.95-0.61,2.92c-0.05,0.22-0.14,0.44-0.21,0.66c-0.09,0.25-0.38,0.53-0.69,0.51c-0.15-0.01-0.31,0.01-0.46,0
			c-0.33-0.02-0.58-0.31-0.53-0.61c0.1-0.6,0.18-1.21,0.31-1.81c0.73-3.45,1.47-6.89,2.21-10.34c0.1-0.45,0.23-0.89,0.36-1.33
			c0.1-0.35,0.26-0.47,0.67-0.49c0.54-0.03,0.8-0.07,1,0.65c-0.16,0.25-0.2,0.53-0.18,0.82c0,0.07,0.03,0.17,0.08,0.19
			c0.12,0.06,0.26,0.01,0.36-0.1C525.89,264.96,525.97,264.84,526.05,264.72z"/>
		<path class="st9" d="M349.8,283.79c-0.35-0.02-0.66-0.04-0.97-0.04c-0.78-0.01-1.52-0.25-2.21-0.57c-0.93-0.44-1.64-1.12-2.03-2.1
			c-0.17-0.43-0.34-0.85-0.37-1.32c-0.02-0.32,0.2-0.62,0.48-0.66c0.31-0.04,0.62-0.04,0.91,0.04c0.13,0.04,0.27,0.15,0.34,0.27
			c0.08,0.12,0.08,0.29,0.12,0.44c0.25,1.06,0.93,1.71,1.94,2.09c0.89,0.33,1.8,0.39,2.72,0.28c0.77-0.09,1.48-0.39,2.1-0.86
			c0.49-0.38,0.9-0.83,1.21-1.37c0.54-0.93,0.92-1.93,1.1-3c0.03-0.16-0.25-0.46-0.41-0.44c-0.08,0.01-0.16,0-0.23,0.03
			c-0.34,0.16-0.68,0.33-1.03,0.5c-0.98,0.48-2.01,0.7-3.11,0.67c-2.53-0.08-4.4-1.87-4.84-4.14c-0.07-0.38-0.14-0.75-0.19-1.13
			c-0.03-0.23-0.06-0.46-0.04-0.69c0.1-2.03,0.57-3.94,1.77-5.62c0.54-0.76,1.19-1.39,1.96-1.93c1.04-0.72,2.21-1.05,3.44-1.15
			c0.38-0.03,0.77,0.02,1.14,0.07c0.3,0.04,0.6,0.14,0.89,0.21c0.84,0.21,1.55,0.65,2.13,1.29c0.21,0.22,0.41,0.45,0.62,0.67
			c0.05,0.05,0.17,0.12,0.2,0.09c0.12-0.08,0.27-0.18,0.32-0.3c0.13-0.36,0.21-0.73,0.3-1.1c0.07-0.29,0.33-0.5,0.68-0.51
			c0.23-0.01,0.46,0.01,0.67,0.08c0.11,0.04,0.26,0.23,0.25,0.34c-0.07,0.61-0.16,1.21-0.29,1.81c-0.52,2.47-1.07,4.94-1.6,7.41
			c-0.23,1.05-0.44,2.1-0.65,3.15c-0.23,1.13-0.54,2.23-0.94,3.31c-0.24,0.65-0.57,1.26-0.98,1.82c-1.01,1.39-2.4,2.1-4.08,2.29
			C350.68,283.78,350.22,283.77,349.8,283.79z M356.71,268.54c0.01,0.15-0.02-0.24-0.04-0.62c-0.03-0.63-0.26-1.21-0.6-1.72
			c-0.48-0.73-1.14-1.22-2.03-1.4c-2.28-0.45-4.07,0.32-5.41,2.17c-1.03,1.41-1.44,3.02-1.52,4.74c-0.03,0.62,0.15,1.22,0.31,1.81
			c0.5,1.85,2.23,2.87,4.04,2.67c1.01-0.11,1.91-0.52,2.69-1.2c0.52-0.46,0.98-0.97,1.34-1.57
			C356.31,272.09,356.77,270.65,356.71,268.54z"/>
		<path class="st5" d="M209.05,278.09c-2,0-3.99,0-5.99,0c-0.46,0-0.77-0.32-0.7-0.7c0.49-2.32,0.99-4.65,1.48-6.97
			c0.56-2.62,1.1-5.25,1.68-7.87c0.32-1.42,0.52-2.87,0.98-4.25c0.06-0.17,0.14-0.27,0.33-0.28c0.07-0.01,0.15-0.05,0.22-0.05
			c4.15,0,8.29-0.01,12.44-0.01c0.16,0,0.38,0.31,0.37,0.51c-0.01,0.31-0.04,0.61-0.2,0.88c-0.08,0.15-0.18,0.25-0.35,0.27
			c-0.3,0.03-0.61,0.08-0.91,0.08c-2.76,0.01-5.53,0-8.29,0c-0.38,0-0.77,0-1.15,0.01c-0.55,0.02-0.87,0.14-0.99,0.75
			c-0.23,1.13-0.45,2.25-0.69,3.38c-0.11,0.53-0.25,1.04-0.35,1.57c-0.06,0.3-0.06,0.61-0.08,0.91c-0.01,0.16,0.26,0.44,0.43,0.45
			c0.69,0.01,1.38,0.02,2.07,0.03c2.46,0.01,4.91,0.02,7.37,0.03c0.16,0,0.45,0.29,0.44,0.46c0,0.07,0.03,0.15,0.01,0.22
			c-0.05,0.22-0.1,0.45-0.17,0.66c-0.05,0.16-0.17,0.28-0.31,0.3c-0.38,0.04-0.76,0.07-1.14,0.07c-2.69,0.01-5.37,0-8.06,0.01
			c-0.3,0-0.61,0.03-0.91,0.09c-0.13,0.03-0.24,0.18-0.34,0.28c-0.05,0.05-0.07,0.13-0.09,0.21c-0.46,2.17-0.93,4.35-1.39,6.52
			c-0.08,0.39,0.17,0.65,0.42,0.66c0.38,0.01,0.77,0.04,1.15,0.04c1.77,0,3.53,0,5.3,0c1.38,0,2.76,0.01,4.15,0.02
			c0.18,0,0.41,0.27,0.41,0.46c0.01,0.31-0.03,0.62-0.17,0.89c-0.06,0.12-0.19,0.25-0.32,0.3c-0.21,0.07-0.45,0.1-0.68,0.1
			c-2,0.01-3.99,0-5.99,0C209.05,278.1,209.05,278.1,209.05,278.09z"/>
		<path class="st10" d="M461.76,263.06c0.04,0.94-0.21,1.83-0.56,2.68c-0.62,1.48-1.71,2.53-3.19,3.14
			c-0.85,0.35-1.74,0.59-2.68,0.59c-1-0.01-1.99,0-2.99,0.01c-1.38,0.01-2.75,0.03-4.13,0.05c-0.15,0-0.49,0.26-0.53,0.4
			c-0.02,0.07-0.06,0.14-0.07,0.22c-0.37,1.72-0.73,3.44-1.11,5.16c-0.18,0.82-0.38,1.64-0.6,2.45c-0.03,0.12-0.21,0.23-0.34,0.28
			c-0.37,0.13-0.75,0.13-1.13,0.03c-0.14-0.04-0.26-0.15-0.3-0.31c-0.08-0.38,0.01-0.76,0.08-1.13c0.18-0.9,0.37-1.8,0.57-2.69
			c0.73-3.36,1.46-6.72,2.19-10.08c0.36-1.64,0.7-3.29,1.07-4.93c0.05-0.22,0.17-0.42,0.27-0.63c0.07-0.15,0.19-0.24,0.34-0.26
			c0.15-0.02,0.3-0.05,0.45-0.06c2.37,0,4.75,0,7.12-0.01c0.77,0,1.52,0.13,2.25,0.38c1.66,0.56,2.68,1.71,3.13,3.38
			C461.73,262.13,461.72,262.6,461.76,263.06z M452.02,267.78c0,0,0-0.01,0-0.01c0.76,0,1.53,0,2.29,0c0.61,0,1.22-0.05,1.82-0.15
			c0.78-0.12,1.45-0.46,2.06-0.94c0.69-0.54,1.11-1.24,1.37-2.07c0.31-0.98,0.31-1.94-0.05-2.91c-0.41-1.12-1.25-1.69-2.37-1.91
			c-0.3-0.06-0.61-0.09-0.91-0.09c-1.91-0.01-3.82,0-5.73,0c-0.08,0-0.15,0.02-0.23,0.03c-0.17,0.02-0.44,0.25-0.48,0.42
			c-0.46,2.08-0.93,4.17-1.38,6.25c-0.05,0.22-0.06,0.45-0.09,0.68c-0.04,0.28,0.23,0.64,0.49,0.64
			C449.88,267.75,450.95,267.77,452.02,267.78z"/>
		<path class="st10" d="M474.68,264.67c-0.51,0.06-1.05,0.07-1.58,0.18c-1.19,0.24-2.11,0.85-2.62,2c-0.09,0.21-0.16,0.43-0.28,0.63
			c-0.16,0.27-0.39,0.47-0.74,0.45c-0.15-0.01-0.31-0.01-0.46-0.01c-0.32,0.01-0.56-0.34-0.53-0.62c0.03-0.23,0.07-0.46,0.15-0.67
			c0.6-1.62,1.77-2.65,3.4-3.16c0.51-0.16,1.04-0.26,1.57-0.34c0.61-0.1,1.22-0.09,1.83,0.01c0.45,0.08,0.9,0.18,1.35,0.27
			c0.54,0.1,1.01,0.35,1.46,0.65c0.98,0.65,1.43,1.59,1.3,2.75c-0.11,0.91-0.27,1.82-0.47,2.71c-0.34,1.57-0.73,3.13-1.09,4.69
			c-0.14,0.6-0.22,1.2-0.22,1.82c0,0.13,0.25,0.49,0.39,0.54c0.29,0.09,0.58,0.16,0.86,0.26c0.06,0.02,0.1,0.12,0.13,0.19
			c0.15,0.47-0.11,1.01-0.52,1.1c-0.07,0.02-0.15,0.06-0.22,0.06c-1.29,0.1-1.98,0.06-2.5-1.4c-0.05-0.13-0.21-0.17-0.37-0.07
			c-0.38,0.25-0.74,0.53-1.13,0.78c-1.06,0.69-2.25,0.95-3.49,0.98c-0.69,0.02-1.38-0.12-2.04-0.32c-0.83-0.25-1.52-0.74-1.95-1.51
			c-0.66-1.2-0.78-2.46-0.29-3.76c0.25-0.67,0.67-1.19,1.22-1.63c0.43-0.34,0.9-0.59,1.41-0.76c0.94-0.32,1.89-0.61,2.9-0.65
			c0.69-0.02,1.38-0.07,2.06-0.1c0.69-0.03,1.37-0.16,2.03-0.36c0.53-0.16,0.93-0.5,1.15-1.04c0.21-0.5,0.32-1.02,0.3-1.56
			c-0.03-0.91-0.64-1.74-1.65-1.93C475.62,264.75,475.16,264.73,474.68,264.67z M471.4,276.91c0.37-0.03,0.67-0.05,0.97-0.07
			c1.11-0.1,2.03-0.61,2.79-1.4c0.59-0.61,0.98-1.35,1.23-2.16c0.18-0.58,0.3-1.18,0.44-1.77c0.02-0.07,0.02-0.15,0.03-0.23
			c0.06-0.32-0.18-0.6-0.48-0.56c-0.98,0.14-1.96,0.28-2.94,0.4c-0.6,0.07-1.21,0.12-1.82,0.17c-0.7,0.06-1.35,0.29-1.95,0.61
			c-0.92,0.5-1.53,1.25-1.5,2.37c0,0.15,0.01,0.3,0.02,0.46c0.03,0.31,0.12,0.59,0.29,0.85c0.43,0.68,1.03,1.11,1.83,1.22
			C470.71,276.86,471.09,276.88,471.4,276.91z"/>
		<path class="st10" d="M338.33,264.66c-0.58,0.06-1.12,0.09-1.64,0.19c-1.11,0.22-1.98,0.8-2.51,1.81
			c-0.14,0.27-0.22,0.57-0.37,0.84c-0.16,0.27-0.41,0.45-0.75,0.43c-0.15-0.01-0.31-0.01-0.46-0.02c-0.28-0.01-0.55-0.36-0.5-0.64
			c0.05-0.22,0.08-0.46,0.16-0.67c0.32-0.88,0.85-1.63,1.59-2.2c0.61-0.47,1.28-0.83,2.05-1c0.37-0.08,0.75-0.17,1.12-0.24
			c0.68-0.12,1.37-0.13,2.06-0.02c0.45,0.07,0.9,0.18,1.35,0.27c0.54,0.1,1.01,0.36,1.46,0.66c0.98,0.66,1.42,1.61,1.27,2.76
			c-0.13,0.98-0.28,1.97-0.52,2.94c-0.38,1.48-0.71,2.98-1.03,4.47c-0.11,0.52-0.15,1.06-0.21,1.59c-0.05,0.38,0.21,0.71,0.62,0.83
			c0.21,0.06,0.43,0.11,0.64,0.19c0.06,0.02,0.11,0.12,0.13,0.19c0.15,0.58-0.2,1.09-0.78,1.14c-0.15,0.01-0.31,0.02-0.46,0.03
			c-0.96,0.07-1.62-0.29-1.93-1.25c-0.11-0.35-0.36-0.38-0.69-0.14c-0.06,0.04-0.13,0.08-0.19,0.13c-1.01,0.9-2.22,1.34-3.54,1.47
			c-0.38,0.04-0.77,0.05-1.14,0.01c-0.46-0.04-0.92-0.11-1.36-0.23c-1.09-0.3-1.91-0.93-2.36-2c-0.51-1.19-0.49-2.38,0.02-3.56
			c0.19-0.43,0.47-0.79,0.8-1.11c0.44-0.44,0.97-0.76,1.55-0.97c0.86-0.31,1.73-0.61,2.66-0.68c0.76-0.06,1.53-0.11,2.29-0.13
			c0.77-0.02,1.53-0.15,2.26-0.38c0.53-0.17,0.92-0.51,1.14-1.05c0.2-0.51,0.31-1.02,0.29-1.57c-0.03-0.79-0.55-1.63-1.46-1.85
			C339.36,264.77,338.82,264.73,338.33,264.66z M337.71,271.06c-1.07,0.1-1.83,0.17-2.59,0.24c-0.69,0.07-1.33,0.32-1.93,0.65
			c-0.47,0.26-0.87,0.62-1.11,1.11c-0.1,0.2-0.2,0.42-0.22,0.64c-0.04,0.37-0.04,0.76-0.01,1.13c0.02,0.22,0.11,0.44,0.21,0.64
			c0.43,0.79,1.11,1.22,2,1.34c0.76,0.11,1.52,0.09,2.27-0.04c0.3-0.05,0.59-0.14,0.87-0.26c1.35-0.56,2.22-1.59,2.69-2.94
			c0.28-0.78,0.5-1.59,0.59-2.43c0.02-0.18-0.22-0.49-0.37-0.46C339.2,270.84,338.3,270.97,337.71,271.06z"/>
		<path class="st10" d="M300.42,274.76c0-0.44-0.01-0.6,0-0.75c0.06-1.23,0.63-2.19,1.63-2.89c0.38-0.26,0.78-0.5,1.21-0.64
			c0.87-0.29,1.74-0.6,2.67-0.64c0.69-0.03,1.38-0.1,2.07-0.11c0.77-0.01,1.53-0.14,2.26-0.36c0.62-0.19,1.08-0.59,1.25-1.23
			c0.1-0.37,0.15-0.75,0.21-1.13c0.01-0.07,0-0.15,0-0.23c0-0.93-0.72-1.78-1.63-1.95c-1.07-0.2-2.14-0.17-3.2,0.06
			c-0.29,0.06-0.57,0.21-0.85,0.34c-0.65,0.3-1.13,0.78-1.45,1.42c-0.14,0.27-0.25,0.56-0.39,0.83c-0.15,0.29-0.4,0.45-0.73,0.45
			c-0.23-0.01-0.46-0.03-0.68-0.06c-0.15-0.02-0.38-0.4-0.34-0.55c0.4-1.67,1.36-2.89,2.94-3.59c0.21-0.09,0.42-0.2,0.64-0.25
			c0.52-0.13,1.04-0.25,1.57-0.34c0.61-0.1,1.22-0.1,1.83,0c0.53,0.09,1.06,0.18,1.57,0.33c0.36,0.1,0.72,0.27,1.05,0.46
			c1.02,0.58,1.56,1.46,1.47,2.65c-0.07,0.84-0.15,1.68-0.34,2.5c-0.33,1.42-0.62,2.84-0.97,4.25c-0.2,0.82-0.33,1.65-0.45,2.48
			c-0.05,0.34,0.23,0.73,0.62,0.85c0.15,0.05,0.3,0.06,0.45,0.1c0.32,0.08,0.49,0.4,0.37,0.69c-0.05,0.14-0.13,0.27-0.21,0.41
			c-0.08,0.14-0.2,0.24-0.36,0.26c-0.3,0.04-0.6,0.08-0.91,0.09c-0.39,0.01-0.77-0.04-1.09-0.28c-0.31-0.24-0.51-0.56-0.6-0.95
			c-0.02-0.07-0.03-0.16-0.07-0.22c-0.08-0.1-0.24-0.16-0.39-0.07c-0.33,0.19-0.62,0.43-0.94,0.65c-0.77,0.53-1.61,0.84-2.53,1.02
			c-1.17,0.23-2.31,0.12-3.4-0.27c-1.33-0.48-2.09-1.5-2.29-2.91C300.42,274.93,300.42,274.7,300.42,274.76z M308.05,271.05
			c0,0,0,0.01,0,0.01c-0.84,0.08-1.67,0.15-2.51,0.24c-0.69,0.07-1.34,0.32-1.94,0.66c-0.84,0.49-1.39,1.19-1.36,2.22
			c0.01,0.23,0.01,0.46,0.04,0.69c0.03,0.31,0.15,0.59,0.33,0.84c0.42,0.59,0.98,0.95,1.69,1.08c0.68,0.12,1.37,0.11,2.06,0.05
			c1.12-0.1,2.04-0.6,2.81-1.39c0.6-0.61,1.01-1.35,1.25-2.16c0.21-0.73,0.35-1.48,0.51-2.22c0.02-0.07,0.01-0.16-0.02-0.22
			c-0.03-0.06-0.11-0.14-0.17-0.15c-0.46-0.04-0.88,0.17-1.33,0.2C308.96,270.93,308.5,271,308.05,271.05z"/>
		<path class="st11" d="M238.92,271.31c-1.61,0-3.22,0-4.84,0c-0.4,0-0.71,0.32-0.72,0.73c-0.01,0.23-0.01,0.46-0.01,0.69
			c0.01,0.15,0.03,0.31,0.06,0.46c0.06,0.3,0.12,0.6,0.19,0.9c0.29,1.2,1.05,2.02,2.16,2.52c0.21,0.09,0.44,0.14,0.66,0.18
			c0.53,0.09,1.07,0.1,1.61,0.08c1.31-0.06,2.34-0.65,3.18-1.63c0.35-0.41,0.62-0.87,0.85-1.36c0.06-0.13,0.19-0.24,0.3-0.34
			c0.23-0.22,0.94-0.26,1.31-0.06c0.13,0.07,0.24,0.24,0.2,0.39c-0.59,1.94-1.77,3.37-3.69,4.13c-0.21,0.08-0.44,0.15-0.66,0.19
			c-0.3,0.06-0.61,0.09-0.91,0.15c-0.92,0.18-1.83,0.09-2.75-0.06c-0.7-0.11-1.34-0.36-1.92-0.73c-1.16-0.74-1.84-1.83-2.16-3.14
			c-0.39-1.6-0.31-3.21,0.07-4.79c0.48-1.99,1.45-3.7,3.09-4.99c1.25-0.98,2.68-1.46,4.25-1.55c0.94-0.05,1.85,0.14,2.69,0.51
			c1.58,0.7,2.54,1.94,2.86,3.64c0.2,1.06,0.22,2.14,0.08,3.21c-0.07,0.59-0.17,0.84-0.84,0.85c-1.38,0-2.76,0.01-4.15,0.01
			c-0.31,0-0.61,0-0.92,0C238.92,271.3,238.92,271.31,238.92,271.31z M238.4,269.77c0,0.01,0,0.02,0,0.03c1.15,0,2.3,0,3.45,0
			c0.23,0,0.46-0.02,0.69-0.03c0.22-0.01,0.54-0.4,0.57-0.65c0.07-0.62-0.06-1.22-0.2-1.82c-0.14-0.62-0.45-1.13-0.88-1.59
			c-0.38-0.4-0.83-0.7-1.35-0.84c-2.03-0.53-3.79-0.07-5.24,1.47c-0.75,0.79-1.27,1.72-1.57,2.77c-0.09,0.33,0.09,0.65,0.4,0.65
			C235.64,269.77,237.02,269.77,238.4,269.77z"/>
		<path class="st11" d="M368.2,271.32c-1.68,0-3.37,0-5.05,0.01c-0.14,0-0.31,0.09-0.4,0.19c-0.09,0.1-0.12,0.27-0.16,0.42
			c-0.02,0.07-0.01,0.15-0.01,0.23c0.02,0.46,0.01,0.92,0.07,1.37c0.18,1.29,0.8,2.29,1.98,2.91c0.34,0.18,0.69,0.33,1.08,0.36
			c0.46,0.03,0.92,0.07,1.37,0.06c1.48-0.04,2.64-0.71,3.5-1.89c0.32-0.43,0.55-0.91,0.85-1.35c0.08-0.11,0.24-0.2,0.38-0.23
			c0.3-0.07,0.61-0.06,0.91,0.01c0.18,0.04,0.39,0.36,0.33,0.52c-0.31,0.87-0.73,1.68-1.34,2.39c-0.94,1.08-2.1,1.74-3.52,1.97
			c-1.07,0.18-2.12,0.18-3.19-0.01c-1.8-0.33-3.04-1.34-3.77-3.01c-0.28-0.64-0.47-1.3-0.48-2c-0.01-0.69-0.04-1.38,0.01-2.06
			c0.13-1.88,0.77-3.58,1.88-5.09c0.59-0.81,1.33-1.47,2.19-2c1.14-0.7,2.39-1.02,3.71-1.04c1.09-0.01,2.13,0.24,3.07,0.8
			c1.1,0.66,1.81,1.61,2.17,2.85c0.24,0.82,0.36,1.64,0.33,2.49c-0.02,0.53,0,1.07-0.14,1.6c-0.04,0.13-0.35,0.41-0.5,0.42
			c-0.3,0.01-0.61,0.06-0.91,0.06c-1.45,0.01-2.91,0-4.36,0C368.2,271.3,368.2,271.31,368.2,271.32z M367.62,269.81
			c0-0.01,0-0.01,0-0.02c1.15,0,2.29,0,3.44,0c0.23,0,0.46-0.03,0.69-0.04c0.17-0.01,0.44-0.28,0.47-0.44
			c0.17-0.94,0.04-1.83-0.38-2.68c-0.51-1.01-1.31-1.67-2.45-1.87c-0.76-0.14-1.52-0.12-2.28,0.04c-0.3,0.06-0.58,0.17-0.86,0.31
			c-1.59,0.8-2.59,2.1-3.15,3.76c-0.02,0.07-0.01,0.15-0.04,0.22c-0.11,0.29,0.19,0.66,0.43,0.66
			C364.87,269.78,366.25,269.8,367.62,269.81z"/>
		<path class="st11" d="M405.9,271.32c-1.61,0-3.22,0-4.83,0c-0.41,0-0.66,0.29-0.66,0.75c0,0.08-0.01,0.15-0.01,0.23
			c0.01,0.31,0.02,0.61,0.03,0.92c0.01,0.63,0.22,1.21,0.51,1.75c0.59,1.08,1.51,1.71,2.73,1.86c0.45,0.05,0.92,0.05,1.37,0.04
			c1.4-0.05,2.48-0.72,3.31-1.8c0.32-0.42,0.57-0.91,0.84-1.37c0.13-0.22,0.35-0.27,0.58-0.31c0.3-0.05,0.61-0.05,0.9,0.09
			c0.15,0.07,0.27,0.19,0.23,0.36c-0.17,0.67-0.48,1.29-0.86,1.86c-0.66,0.97-1.48,1.74-2.59,2.2c-0.36,0.15-0.71,0.29-1.09,0.35
			c-0.38,0.05-0.76,0.12-1.14,0.17c-0.53,0.08-1.07,0.07-1.6-0.01c-0.3-0.04-0.61-0.09-0.91-0.14c-1.36-0.24-2.41-0.95-3.17-2.09
			c-0.56-0.84-0.88-1.78-0.97-2.79c-0.07-0.84-0.09-1.69,0.03-2.52c0.26-1.85,0.89-3.55,2.09-5.02c0.79-0.97,1.75-1.73,2.91-2.19
			c1.37-0.54,2.79-0.78,4.27-0.38c0.75,0.2,1.45,0.47,2.07,0.95c0.74,0.58,1.28,1.31,1.58,2.21c0.25,0.73,0.43,1.47,0.41,2.25
			c-0.02,0.54-0.01,1.07-0.03,1.61c-0.03,0.71-0.3,1-0.95,1.01c-1.23,0.01-2.45,0.01-3.68,0.01c-0.46,0-0.92,0-1.38,0
			C405.9,271.3,405.9,271.31,405.9,271.32z M405.43,269.82c0-0.01,0-0.01,0-0.02c0.38,0,0.77,0,1.15,0
			c0.99-0.01,1.99-0.02,2.98-0.04c0.18,0,0.45-0.26,0.48-0.42c0.17-1.01,0.06-1.98-0.45-2.88c-0.52-0.91-1.28-1.5-2.33-1.69
			c-0.77-0.14-1.52-0.13-2.28,0.03c-0.3,0.06-0.58,0.16-0.86,0.3c-1.2,0.61-2.1,1.52-2.71,2.71c-0.21,0.4-0.44,0.8-0.5,1.27
			c-0.05,0.32,0.13,0.67,0.41,0.68C402.68,269.78,404.05,269.8,405.43,269.82z"/>
		<path class="st9" d="M497.1,272.6c-0.02-2.23,0.43-3.99,1.38-5.61c0.47-0.8,1.05-1.5,1.76-2.1c1.33-1.14,2.89-1.7,4.61-1.81
			c1.16-0.07,2.28,0.19,3.32,0.72c1.3,0.66,2.1,1.73,2.5,3.12c0.22,0.74,0.34,1.49,0.28,2.26c-0.13,2-0.54,3.93-1.63,5.67
			c-0.83,1.33-1.93,2.35-3.38,3c-0.42,0.19-0.85,0.35-1.31,0.41c-0.15,0.02-0.3,0.04-0.45,0.07c-0.91,0.19-1.82,0.14-2.73-0.01
			c-1.9-0.32-3.18-1.38-3.91-3.15c-0.2-0.5-0.37-1-0.4-1.55C497.13,273.16,497.11,272.7,497.1,272.6z M503.09,276.91
			c0.36-0.03,0.74-0.06,1.12-0.1c0.38-0.04,0.73-0.19,1.08-0.36c0.42-0.21,0.79-0.47,1.13-0.77c0.76-0.66,1.31-1.48,1.75-2.38
			c0.47-0.97,0.73-2.01,0.89-3.07c0.16-1.07,0.09-2.13-0.33-3.15c-0.54-1.3-1.45-2.12-2.87-2.32c-0.69-0.1-1.37-0.08-2.05,0.02
			c-0.55,0.08-1.03,0.29-1.48,0.58c-1.87,1.18-2.78,2.99-3.23,5.07c-0.23,1.05-0.24,2.12-0.05,3.19c0.16,0.93,0.56,1.74,1.27,2.37
			c0.46,0.41,1,0.71,1.62,0.8C502.31,276.84,502.69,276.86,503.09,276.91z"/>
		<path class="st9" d="M169.13,268.75c0.03,1.93-0.36,3.56-1.06,5.11c-0.64,1.42-1.6,2.6-2.93,3.45c-0.78,0.5-1.62,0.83-2.54,0.99
			c-1.07,0.18-2.13,0.17-3.19-0.04c-1.71-0.34-2.89-1.36-3.59-2.91c-0.34-0.77-0.53-1.59-0.56-2.44c-0.06-1.71,0.23-3.35,0.9-4.92
			c0.42-1,1.02-1.87,1.78-2.65c1.41-1.43,3.14-2.15,5.12-2.26c1.25-0.07,2.43,0.21,3.52,0.83c0.96,0.55,1.64,1.36,2.07,2.38
			C169.02,267.15,169.21,268.04,169.13,268.75z M167.27,269.28c0-0.23,0-0.46,0-0.69c-0.01-0.79-0.27-1.5-0.66-2.16
			c-0.36-0.61-0.86-1.06-1.5-1.37c-0.42-0.21-0.87-0.26-1.33-0.32c-1.9-0.25-3.44,0.42-4.68,1.84c-0.2,0.23-0.38,0.48-0.55,0.73
			c-0.87,1.38-1.4,2.87-1.44,4.52c-0.01,0.38,0.01,0.76,0.02,1.14c0.02,0.78,0.28,1.5,0.68,2.16c0.58,0.98,1.44,1.55,2.58,1.69
			c0.53,0.07,1.06,0.07,1.6,0.04c0.79-0.04,1.48-0.33,2.11-0.78c0.75-0.54,1.37-1.21,1.84-2.01
			C166.8,272.58,167.3,271,167.27,269.28z"/>
		<path class="st11" d="M141.8,257.94c0.15,0.01,0.31,0.01,0.46,0.03c0.24,0.02,0.45,0.12,0.56,0.33c0.18,0.33,0.35,0.68,0.51,1.03
			c1.06,2.37,2.12,4.75,3.18,7.12c0.16,0.35,0.33,0.69,0.5,1.03c0.09,0.18,0.42,0.24,0.56,0.1c0.21-0.22,0.44-0.42,0.64-0.65
			c1.71-2.06,3.41-4.13,5.12-6.2c0.58-0.71,1.2-1.39,1.75-2.13c0.42-0.57,0.96-0.71,1.61-0.66c0.23,0.02,0.45,0.04,0.68,0.08
			c0.15,0.03,0.21,0.16,0.16,0.35c-0.08,0.31-0.29,0.53-0.49,0.76c-1.72,2.05-3.45,4.1-5.18,6.15c-1.18,1.41-2.36,2.82-3.54,4.22
			c-0.2,0.24-0.36,0.5-0.43,0.8c-0.14,0.59-0.29,1.19-0.42,1.79c-0.36,1.64-0.7,3.29-1.07,4.93c-0.07,0.29-0.23,0.56-0.36,0.84
			c-0.03,0.06-0.11,0.1-0.18,0.12c-0.44,0.15-0.89,0.17-1.32-0.03c-0.15-0.07-0.21-0.22-0.21-0.38c0-0.15,0-0.31,0.03-0.45
			c0.44-2.02,0.89-4.03,1.32-6.05c0.1-0.44,0.35-0.88,0.23-1.34c-0.12-0.44-0.32-0.86-0.51-1.28c-1.26-2.79-2.53-5.57-3.8-8.35
			c-0.22-0.49-0.42-0.98-0.62-1.48c-0.14-0.35,0.03-0.64,0.37-0.66C141.49,257.96,141.65,257.95,141.8,257.94z"/>
		<path class="st10" d="M175.4,276.85c1.66,0.08,2.66-0.42,3.56-1.2c0.94-0.83,1.58-1.87,2.02-3.03c0.25-0.64,0.44-1.3,0.58-1.98
			c0.44-2.17,0.92-4.34,1.39-6.5c0.08-0.39,0.39-0.63,0.83-0.64c0.23-0.01,0.47,0,0.68,0.06c0.12,0.04,0.25,0.2,0.27,0.32
			c0.04,0.22,0.04,0.46-0.01,0.68c-0.8,3.58-1.57,7.17-2.31,10.76c-0.15,0.75-0.34,1.49-0.52,2.23c-0.06,0.25-0.37,0.5-0.69,0.53
			c-0.15,0.01-0.31-0.02-0.46-0.01c-0.33,0.03-0.54-0.34-0.54-0.62c0-0.23,0.06-0.46,0.05-0.68c0-0.17-0.1-0.29-0.22-0.32
			c-0.07-0.01-0.17,0-0.22,0.05c-0.36,0.28-0.71,0.58-1.07,0.85c-0.94,0.73-2.04,1.02-3.21,1.1c-0.62,0.05-1.22-0.12-1.82-0.22
			c-0.47-0.07-0.87-0.29-1.25-0.55c-0.52-0.35-0.89-0.82-1.13-1.4c-0.37-0.88-0.42-1.78-0.26-2.7c0.12-0.68,0.25-1.35,0.4-2.03
			c0.49-2.16,0.98-4.32,1.4-6.5c0.07-0.37,0.21-0.73,0.32-1.1c0.09-0.28,0.33-0.45,0.71-0.46c0.15-0.01,0.31-0.01,0.46,0
			c0.34,0.02,0.61,0.3,0.55,0.58c-0.31,1.5-0.62,2.99-0.94,4.49c-0.34,1.57-0.7,3.13-1.03,4.71c-0.08,0.37-0.1,0.76-0.09,1.14
			c0.02,0.9,0.41,1.62,1.2,2.08c0.2,0.11,0.41,0.21,0.63,0.25C175.07,276.83,175.45,276.85,175.4,276.85z"/>
		<path class="st9" d="M328.69,266.74c0.01,0.87-0.07,1.63-0.24,2.38c-0.63,2.76-1.2,5.53-1.79,8.3c-0.08,0.37-0.41,0.65-0.82,0.67
			c-0.23,0.01-0.47,0.01-0.68-0.05c-0.12-0.03-0.24-0.2-0.27-0.33c-0.04-0.22-0.05-0.46,0-0.68c0.51-2.39,1.03-4.78,1.57-7.17
			c0.17-0.75,0.29-1.5,0.38-2.26c0.05-0.38-0.01-0.76-0.09-1.14c-0.19-0.83-0.75-1.32-1.52-1.57c-0.9-0.28-1.82-0.26-2.72,0.02
			c-0.66,0.21-1.24,0.59-1.76,1.05c-0.76,0.67-1.33,1.48-1.74,2.4c-0.25,0.55-0.49,1.12-0.61,1.73c-0.28,1.35-0.59,2.69-0.89,4.03
			c-0.21,0.97-0.4,1.95-0.62,2.92c-0.05,0.22-0.15,0.43-0.23,0.64c-0.09,0.24-0.29,0.36-0.51,0.4c-0.22,0.03-0.46,0-0.68-0.01
			c-0.2-0.01-0.44-0.28-0.42-0.46c0.07-0.53,0.1-1.07,0.22-1.59c0.8-3.58,1.56-7.17,2.3-10.77c0.09-0.45,0.24-0.88,0.38-1.32
			c0.07-0.24,0.27-0.35,0.51-0.39c0.15-0.02,0.31-0.03,0.46-0.02c0.36,0.01,0.56,0.21,0.57,0.56c0.01,0.23-0.03,0.47,0.03,0.68
			c0.03,0.11,0.23,0.17,0.35,0.25c0.37-0.13,0.65-0.4,0.95-0.63c0.73-0.58,1.56-0.95,2.47-1.16c0.69-0.16,1.37-0.18,2.05-0.04
			c0.37,0.08,0.75,0.16,1.11,0.29c0.91,0.32,1.58,0.92,1.98,1.81c0.09,0.21,0.15,0.44,0.18,0.66
			C328.65,266.22,328.67,266.53,328.69,266.74z"/>
		<path class="st10" d="M426.25,267.34c-0.03,0.21-0.05,0.67-0.15,1.12c-0.49,2.32-1,4.63-1.52,6.95c-0.17,0.74-0.18,1.52-0.52,2.23
			c-0.12,0.26-0.38,0.46-0.72,0.46c-0.15,0-0.31,0-0.46-0.01c-0.08-0.01-0.17-0.01-0.22-0.06c-0.1-0.1-0.25-0.22-0.26-0.34
			c-0.05-0.62,0.12-1.22,0.25-1.81c0.51-2.39,1.05-4.78,1.59-7.16c0.13-0.6,0.17-1.21,0.14-1.82c-0.04-1.07-0.98-1.83-1.64-2
			c-0.83-0.22-1.66-0.22-2.5-0.03c-0.53,0.12-0.99,0.4-1.43,0.7c-0.84,0.57-1.46,1.34-1.97,2.21c-0.54,0.94-0.86,1.96-1.09,3.01
			c-0.35,1.57-0.66,3.14-1,4.71c-0.16,0.75-0.35,1.49-0.55,2.22c-0.03,0.12-0.19,0.25-0.31,0.3c-0.37,0.15-0.76,0.14-1.12,0
			c-0.11-0.04-0.17-0.24-0.23-0.37c-0.03-0.07-0.03-0.15-0.02-0.23c0.51-2.39,1.04-4.78,1.54-7.17c0.4-1.87,0.78-3.74,1.17-5.61
			c0.05-0.22,0.11-0.45,0.2-0.65c0.09-0.21,0.26-0.39,0.5-0.42c0.22-0.03,0.45-0.03,0.68-0.01c0.22,0.02,0.43,0.27,0.42,0.47
			c-0.02,0.3-0.01,0.61-0.01,0.91c0,0.07,0.04,0.21,0.06,0.21c0.14,0.01,0.32,0.03,0.41-0.05c0.46-0.4,0.92-0.81,1.45-1.13
			c0.4-0.23,0.81-0.42,1.24-0.58c1.3-0.45,2.57-0.35,3.83,0.1c0.82,0.29,1.44,0.83,1.85,1.63
			C426.16,265.73,426.26,266.4,426.25,267.34z"/>
		<path class="st10" d="M250.01,263.99c-0.05,0.26-0.1,0.53-0.16,0.79c-0.05,0.14-0.13,0.27-0.13,0.41c0,0.13,0.05,0.31,0.14,0.38
			c0.12,0.1,0.28,0.03,0.4-0.07c0.17-0.15,0.33-0.29,0.37-0.52c0.29-0.36,0.66-0.63,1.04-0.9c0.84-0.58,1.78-0.88,2.78-0.99
			c0.38-0.04,0.77-0.02,1.14,0.04c0.45,0.07,0.91,0.17,1.34,0.33c1.07,0.39,1.82,1.11,2.1,2.25c0.18,0.75,0.21,1.5,0.1,2.27
			c-0.16,1.06-0.41,2.1-0.64,3.15c-0.47,2.17-0.87,4.35-1.43,6.5c-0.07,0.25-0.27,0.37-0.5,0.41c-0.22,0.04-0.45,0.04-0.68,0.04
			c-0.33-0.01-0.6-0.3-0.55-0.58c0.16-0.98,0.39-1.95,0.59-2.92c0.46-2.17,0.93-4.34,1.39-6.51c0.05-0.22,0.1-0.45,0.1-0.68
			c-0.01-0.98-0.34-1.8-1.22-2.32c-0.13-0.08-0.27-0.14-0.42-0.18c-0.91-0.25-1.82-0.24-2.72,0.01c-0.15,0.04-0.29,0.1-0.42,0.17
			c-0.99,0.48-1.78,1.18-2.4,2.08c-0.66,0.96-1.11,2.01-1.36,3.14c-0.31,1.42-0.62,2.84-0.93,4.26c-0.21,0.97-0.42,1.94-0.63,2.91
			c-0.08,0.37-0.44,0.64-0.84,0.64c-0.15,0-0.31-0.01-0.46-0.02c-0.2-0.01-0.45-0.25-0.45-0.43c0-0.15-0.01-0.31,0.01-0.46
			c0.04-0.3,0.08-0.61,0.15-0.91c0.62-2.68,1.16-5.38,1.74-8.08c0.29-1.35,0.58-2.69,0.89-4.03c0.12-0.52,0.4-0.7,1.02-0.67
			c0.15,0.01,0.3,0.06,0.45,0.09C249.79,263.77,249.86,263.9,250.01,263.99z"/>
		<path class="st10" d="M222.18,278.08c0.02,0-0.13-0.01-0.28-0.03c-0.15-0.01-0.47-0.29-0.51-0.43c-0.04-0.15-0.1-0.29-0.12-0.44
			c-0.13-0.99-0.29-1.97-0.46-2.95c-0.4-2.42-0.73-4.85-1.11-7.27c-0.14-0.91-0.38-1.8-0.42-2.73c-0.01-0.15,0.04-0.3,0.08-0.44
			c0.02-0.07,0.06-0.18,0.11-0.19c0.45-0.14,0.91-0.16,1.35,0.02c0.12,0.05,0.24,0.22,0.27,0.35c0.17,0.98,0.35,1.96,0.46,2.95
			c0.14,1.22,0.35,2.43,0.49,3.65c0.16,1.45,0.44,2.88,0.61,4.33c0.02,0.13,0.17,0.21,0.34,0.24c0.06,0.01,0.14-0.03,0.19-0.07
			c0.32-0.24,0.45-0.61,0.63-0.94c1.55-2.82,3.08-5.65,4.62-8.48c0.33-0.6,0.68-1.2,1.02-1.8c0.13-0.23,0.35-0.3,0.58-0.31
			c0.3-0.02,0.61-0.01,0.92,0c0.19,0.01,0.38,0.35,0.3,0.52c-0.1,0.2-0.2,0.41-0.31,0.61c-2.33,4.14-4.66,8.28-6.99,12.42
			c-0.11,0.2-0.24,0.39-0.37,0.58c-0.18,0.27-0.44,0.42-0.77,0.42C222.66,278.09,222.51,278.08,222.18,278.08z"/>
		<path class="st9" d="M498.26,257.97c-0.17-0.02,0.14,0.02,0.44,0.04c0.25,0.02,0.51,0.4,0.47,0.69c-0.02,0.15-0.06,0.3-0.1,0.45
			c-0.1,0.3-0.24,0.44-0.46,0.41c-0.69-0.08-1.38-0.07-2.03,0.22c-0.2,0.09-0.41,0.23-0.55,0.4c-0.25,0.29-0.46,0.62-0.55,1
			c-0.14,0.59-0.25,1.2-0.37,1.8c-0.04,0.21,0.15,0.44,0.38,0.46c0.61,0.04,1.22,0.08,1.83,0.12c0.18,0.01,0.35,0.26,0.35,0.51
			c0,0.08-0.01,0.15-0.02,0.23c-0.07,0.46-0.33,0.71-0.74,0.73c-0.61,0.04-1.22,0.07-1.83,0.11c-0.14,0.01-0.48,0.3-0.52,0.42
			c-0.02,0.07-0.05,0.14-0.06,0.22c-0.29,1.27-0.59,2.54-0.86,3.81c-0.54,2.47-1.06,4.94-1.6,7.41c-0.05,0.22-0.15,0.43-0.23,0.65
			c-0.1,0.27-0.38,0.45-0.73,0.44c-0.23-0.01-0.47-0.01-0.68-0.09c-0.11-0.04-0.24-0.23-0.24-0.35c0.02-0.69,0.16-1.36,0.31-2.04
			c0.69-3.06,1.38-6.13,2.05-9.19c0.07-0.3,0.09-0.61,0.08-0.91c0-0.12-0.15-0.24-0.24-0.37c-0.53-0.05-1.06-0.11-1.6-0.16
			c-0.17-0.02-0.4-0.33-0.36-0.51c0.03-0.15,0.08-0.29,0.14-0.44c0.12-0.3,0.34-0.51,0.67-0.53c0.38-0.02,0.77-0.01,1.15-0.02
			c0.63-0.02,0.75-0.17,0.93-0.8c0.08-0.29,0.15-0.6,0.19-0.9c0.07-0.54,0.28-1.04,0.46-1.54c0.08-0.21,0.19-0.42,0.31-0.62
			c0.57-1.02,1.49-1.51,2.61-1.65C497.17,257.94,497.48,257.97,498.26,257.97z"/>
		<path class="st9" d="M264.84,278.21c-0.39-0.03-0.78-0.03-1.16-0.08c-0.47-0.06-0.88-0.29-1.2-0.63
			c-0.15-0.16-0.27-0.37-0.34-0.58c-0.13-0.36-0.17-0.75-0.12-1.13c0.09-0.68,0.17-1.37,0.31-2.04c0.53-2.55,1.08-5.09,1.61-7.64
			c0.03-0.15,0.02-0.3,0.04-0.46c0.02-0.18-0.2-0.49-0.36-0.52c-0.53-0.11-1.07,0.02-1.59-0.15c-0.17-0.05-0.25-0.15-0.29-0.32
			c-0.06-0.23,0-0.44,0.06-0.67c0.07-0.26,0.27-0.4,0.49-0.43c0.61-0.07,1.22-0.07,1.83-0.12c0.13-0.01,0.32-0.13,0.36-0.25
			c0.17-0.51,0.3-1.03,0.42-1.55c0.14-0.6,0.28-1.19,0.4-1.79c0.11-0.6,0.46-0.67,1.01-0.67c0.23,0,0.46,0.03,0.65,0.17
			c0.06,0.04,0.13,0.09,0.15,0.15c0.03,0.07,0.03,0.15,0.01,0.23c-0.22,1.05-0.44,2.1-0.65,3.15c-0.03,0.14,0,0.33,0.08,0.43
			c0.09,0.1,0.27,0.13,0.42,0.15c0.6,0.09,1.22-0.05,1.82,0.13c0.17,0.05,0.25,0.14,0.25,0.33c0,0.15,0.02,0.3,0.01,0.45
			c-0.03,0.31-0.32,0.62-0.56,0.64c-0.69,0.04-1.37,0.08-2.06,0.12c-0.15,0.01-0.49,0.27-0.52,0.4c-0.02,0.07-0.03,0.15-0.05,0.22
			c-0.03,0.15-0.07,0.3-0.1,0.45c-0.65,2.91-1.31,5.82-1.86,8.76c-0.06,0.3-0.08,0.6-0.03,0.91c0.06,0.34,0.42,0.77,0.74,0.78
			c0.53,0.01,1.07,0.01,1.6,0.01c0.29,0,0.53,0.35,0.43,0.65c-0.05,0.14-0.09,0.3-0.17,0.42c-0.12,0.19-0.26,0.38-0.52,0.4
			C265.59,278.16,265.21,278.19,264.84,278.21z"/>
		<path class="st11" d="M485.36,278.21c-0.4-0.03-0.79-0.04-1.17-0.08c-0.39-0.04-0.74-0.21-1.04-0.45
			c-0.37-0.29-0.61-0.68-0.67-1.16c-0.06-0.54-0.04-1.07,0.07-1.6c0.5-2.39,1.01-4.78,1.5-7.17c0.15-0.75,0.26-1.5,0.39-2.26
			c-0.1-0.11-0.18-0.3-0.29-0.32c-0.52-0.09-1.06-0.12-1.59-0.18c-0.29-0.03-0.49-0.41-0.38-0.69c0.06-0.14,0.1-0.29,0.17-0.42
			c0.12-0.2,0.28-0.36,0.53-0.37c0.46-0.02,0.92-0.02,1.37-0.04c0.15-0.01,0.31-0.03,0.44-0.1c0.13-0.07,0.29-0.18,0.32-0.3
			c0.26-1.11,0.5-2.23,0.74-3.35c0.06-0.28,0.33-0.5,0.67-0.52c0.23-0.02,0.46-0.01,0.69,0c0.24,0.01,0.46,0.23,0.44,0.43
			c-0.04,0.38-0.05,0.77-0.15,1.13c-0.2,0.74-0.35,1.49-0.42,2.25c-0.02,0.18,0.2,0.44,0.39,0.45c0.53,0.02,1.07,0.03,1.6,0.05
			c0.32,0.01,0.59,0.29,0.55,0.58c-0.03,0.22-0.08,0.46-0.18,0.66c-0.06,0.12-0.22,0.25-0.35,0.26c-0.61,0.05-1.22,0.05-1.83,0.08
			c-0.49,0.02-0.8,0.31-0.92,0.85c-0.59,2.76-1.19,5.52-1.78,8.28c-0.11,0.52-0.2,1.05-0.15,1.59c0.02,0.24,0.12,0.44,0.3,0.59
			c0.17,0.14,0.35,0.29,0.6,0.29c0.46-0.02,0.92-0.02,1.37-0.02c0.31,0,0.53,0.27,0.5,0.61c-0.01,0.08-0.01,0.15-0.03,0.23
			c-0.07,0.33-0.33,0.59-0.59,0.62C486.1,278.15,485.72,278.18,485.36,278.21z"/>
		<path class="st11" d="M431.92,278.21c-0.38-0.02-0.76-0.03-1.14-0.07c-0.39-0.04-0.75-0.2-1.05-0.43
			c-0.37-0.28-0.63-0.66-0.69-1.15c-0.07-0.54-0.05-1.07,0.06-1.6c0.34-1.65,0.7-3.29,1.03-4.93c0.31-1.5,0.7-2.97,0.85-4.5
			c0.01-0.11-0.13-0.3-0.24-0.35c-0.51-0.21-1.06-0.08-1.58-0.17c-0.28-0.05-0.52-0.4-0.43-0.67c0.05-0.14,0.09-0.29,0.17-0.42
			c0.11-0.2,0.24-0.39,0.51-0.4c0.46-0.02,0.92-0.03,1.37-0.05c0.15-0.01,0.3-0.04,0.45-0.08c0.15-0.04,0.29-0.13,0.33-0.29
			c0.26-0.95,0.47-1.92,0.67-2.89c0.05-0.22,0.1-0.45,0.17-0.66c0.05-0.14,0.17-0.24,0.33-0.29c0.37-0.11,0.75-0.13,1.12-0.02
			c0.16,0.05,0.24,0.19,0.26,0.34c0.05,0.39-0.03,0.77-0.13,1.13c-0.21,0.74-0.35,1.49-0.43,2.25c-0.02,0.19,0.18,0.48,0.35,0.49
			c0.61,0.02,1.22,0.03,1.83,0.08c0.11,0.01,0.27,0.17,0.3,0.29c0.11,0.38,0.04,0.75-0.25,1.05c-0.05,0.05-0.12,0.12-0.18,0.12
			c-0.69,0.04-1.37,0.07-2.06,0.1c-0.23,0.01-0.6,0.33-0.65,0.57c-0.17,0.74-0.35,1.49-0.5,2.23c-0.44,2.17-0.9,4.34-1.39,6.49
			c-0.1,0.45-0.13,0.9-0.12,1.37c0.01,0.42,0.46,0.87,0.87,0.91c0.53,0.05,1.07-0.08,1.6,0.02c0.15,0.03,0.24,0.14,0.28,0.31
			c0.06,0.23,0.01,0.44-0.06,0.66c-0.08,0.25-0.27,0.35-0.49,0.43c-0.14,0.05-0.3,0.06-0.45,0.07c-0.23,0.01-0.46,0-0.69,0
			C431.92,278.19,431.92,278.2,431.92,278.21z"/>
		<path class="st10" d="M516.51,264.7c0.01,0.15,0.01,0.3,0.03,0.45c0.01,0.06,0.06,0.13,0.11,0.15c0.07,0.03,0.16,0.03,0.23,0.01
			c0.13-0.06,0.27-0.13,0.38-0.23c0.29-0.25,0.55-0.54,0.85-0.77c0.68-0.53,1.44-0.86,2.31-0.92c0.46-0.03,0.91-0.09,1.37,0.02
			c0.18,0.04,0.26,0.13,0.29,0.31c0.06,0.39-0.01,0.76-0.2,1.1c-0.07,0.12-0.21,0.25-0.34,0.28c-0.37,0.07-0.76,0.1-1.14,0.12
			c-1.39,0.08-2.47,0.74-3.36,1.76c-0.61,0.7-1.03,1.52-1.32,2.4c-0.21,0.65-0.37,1.33-0.51,2c-0.36,1.64-0.69,3.29-1.04,4.94
			c-0.1,0.45-0.25,0.88-0.37,1.32c-0.07,0.26-0.28,0.35-0.5,0.41c-0.3,0.07-0.62,0.07-0.9-0.05c-0.12-0.05-0.22-0.21-0.26-0.34
			c-0.04-0.14-0.02-0.3,0.01-0.45c0.66-3.07,1.28-6.14,1.98-9.2c0.26-1.12,0.45-2.25,0.68-3.37c0.05-0.22,0.14-0.44,0.21-0.65
			c0.1-0.3,0.33-0.47,0.7-0.48c0.15-0.01,0.31,0.01,0.46,0.03c0.21,0.02,0.38,0.25,0.39,0.49c0,0.23,0,0.46,0,0.68
			C516.54,264.7,516.52,264.7,516.51,264.7z"/>
		<path class="st10" d="M190.27,265.38c0.26-0.38,0.59-0.7,0.95-0.99c0.74-0.59,1.56-0.97,2.52-1.01c0.46-0.02,0.92-0.1,1.36,0.06
			c0.15,0.05,0.24,0.16,0.25,0.34c0.02,0.39-0.06,0.76-0.29,1.08c-0.09,0.11-0.23,0.24-0.36,0.26c-0.38,0.06-0.76,0.08-1.14,0.1
			c-1.21,0.07-2.18,0.63-3.03,1.47c-0.67,0.66-1.11,1.47-1.45,2.32c-0.22,0.57-0.39,1.16-0.52,1.76c-0.35,1.57-0.66,3.15-1,4.72
			c-0.16,0.75-0.35,1.49-0.56,2.22c-0.03,0.12-0.19,0.25-0.32,0.29c-0.29,0.1-0.6,0.1-0.9,0.05c-0.2-0.04-0.44-0.28-0.43-0.46
			c0-0.08-0.03-0.16-0.01-0.23c0.68-3.14,1.36-6.28,2.04-9.42c0.27-1.27,0.53-2.55,0.8-3.82c0.08-0.37,0.42-0.62,0.84-0.63
			c0.08,0,0.15,0,0.23,0c0.37,0.02,0.56,0.23,0.57,0.56c0.01,0.48-0.16,0.9-0.31,1.33c-0.17,0.19-0.18,0.4-0.07,0.61
			c0.08,0.14,0.24,0.18,0.35,0.08C190.01,265.9,190.25,265.72,190.27,265.38z"/>
		<path class="st10" d="M461.96,278.09c-0.21-0.04-0.47,0-0.58-0.27c-0.05-0.14-0.09-0.29-0.1-0.43c-0.01-0.15,0.02-0.3,0.06-0.45
			c0.12-0.52,0.24-1.04,0.36-1.57c0.53-2.47,1.05-4.94,1.58-7.41c0.55-2.55,1.11-5.09,1.64-7.64c0.14-0.68,0.29-1.35,0.52-2
			c0.08-0.23,0.3-0.32,0.53-0.35c0.31-0.04,0.62-0.04,0.91,0.07c0.11,0.05,0.24,0.23,0.24,0.35c-0.02,0.77-0.24,1.51-0.4,2.25
			c-1.09,5.01-2.19,10.02-3.24,15.05c-0.12,0.6-0.27,1.19-0.41,1.79c-0.08,0.35-0.42,0.59-0.86,0.61
			C462.12,278.09,462.04,278.09,461.96,278.09z"/>
		<path class="st10" d="M550.77,261.6c-0.41,2.25-1.08,4.44-1.62,6.66c-0.27,1.11-0.56,2.21-0.87,3.31
			c-0.12,0.44-0.31,0.85-0.48,1.28c-0.08,0.2-0.24,0.23-0.6,0.16c-0.17-0.03-0.25-0.13-0.28-0.31c-0.08-0.46,0-0.92,0.09-1.36
			c0.46-2.39,0.76-4.82,1.26-7.2c0.25-1.19,0.5-2.39,0.75-3.58c0.14-0.67,0.29-1.34,0.45-2c0.09-0.39,0.41-0.61,0.84-0.62
			c0.15,0,0.31,0,0.46,0c0.08,0,0.15,0.03,0.22,0.04c0.22,0.04,0.43,0.28,0.39,0.48C551.18,259.51,550.97,260.56,550.77,261.6z"/>
		<path class="st8" d="M546.22,278.12c-0.19-0.02-0.41-0.03-0.64-0.05c-0.17-0.01-0.42-0.31-0.4-0.48c0.02-0.15-0.01-0.3,0.03-0.45
			c0.12-0.52,0.25-1.03,0.37-1.55c0.08-0.32,0.33-0.55,0.63-0.56c0.45-0.01,0.91,0,1.36,0c0.21,0,0.4,0.25,0.39,0.47
			c-0.01,0.77-0.22,1.5-0.5,2.21c-0.09,0.23-0.29,0.34-0.52,0.38C546.72,278.11,546.49,278.1,546.22,278.12z"/>
		<path class="st12" d="M250.65,264.97c-0.04,0.24-0.21,0.38-0.37,0.52c-0.12,0.1-0.28,0.17-0.4,0.07
			c-0.09-0.08-0.14-0.25-0.14-0.38c0-0.14,0.08-0.27,0.13-0.41C250.1,264.93,250.36,265,250.65,264.97z"/>
		<path class="st12" d="M379.68,265c-0.01,0.25-0.2,0.37-0.35,0.51c-0.12,0.11-0.24,0.16-0.37,0.12c-0.15-0.05-0.22-0.3-0.14-0.56
			c0.02-0.06,0.1-0.11,0.14-0.16C379.21,264.94,379.44,264.97,379.68,265z"/>
		<path class="st12" d="M190.27,265.38c-0.02,0.34-0.26,0.52-0.48,0.71c-0.12,0.1-0.27,0.06-0.35-0.08
			c-0.12-0.21-0.1-0.43,0.07-0.61C189.75,265.39,190.01,265.39,190.27,265.38z"/>
		<path class="st12" d="M250.01,263.99c-0.15-0.09-0.22-0.23-0.22-0.4c0.24-0.07,0.38,0.03,0.33,0.25
			C250.11,263.9,250.05,263.94,250.01,263.99z"/>
		<path class="st12" d="M126.97,74.52c2.03-0.11,3.95,0.35,5.88,0.93c2.02,0.61,3.81,1.6,5.41,2.95c0.23,0.2,0.46,0.41,0.68,0.61
			c0.13,0.11,0.12,0.51,0.02,0.64c-0.23,0.31-0.53,0.55-0.85,0.77c-1.7,1.18-3.4,2.36-5.1,3.55c-0.19,0.13-0.36,0.29-0.51,0.46
			c-0.09,0.11-0.14,0.27-0.18,0.41c-0.12,0.37,0.17,0.8,0.55,0.86c0.23,0.03,0.46,0.04,0.68-0.04c0.51-0.18,0.98-0.45,1.4-0.78
			c1.57-1.23,3.27-2.28,4.9-3.43c0.18-0.13,0.4-0.22,0.61-0.3c0.15-0.06,0.31-0.03,0.44,0.07c0.18,0.14,0.38,0.27,0.52,0.44
			c1.11,1.39,1.92,2.96,2.6,4.59c0.23,0.56,0.38,1.17,0.49,1.77c0.3,1.58,0.69,3.15,0.61,4.78c-0.03,0.61-0.03,1.22-0.2,1.82
			c-0.08,0.29-0.14,0.6-0.16,0.9c-0.09,1.24-0.49,2.4-0.96,3.53c-0.18,0.43-0.35,0.85-0.52,1.28c-0.65,1.58-1.52,3.01-2.77,4.19
			c-0.5,0.47-0.99,0.97-1.49,1.44c-1.59,1.49-3.42,2.57-5.46,3.33c-1.45,0.54-2.95,0.84-4.45,1.15c-0.3,0.06-0.61,0.07-0.92,0.08
			c-0.61,0.01-1.23,0.01-1.84,0.01c-0.77,0-1.53-0.05-2.28-0.26c-0.74-0.21-1.51-0.24-2.25-0.48c-2.21-0.73-4.27-1.75-6.1-3.17
			c-1.7-1.33-3.15-2.92-4.23-4.81c-0.19-0.33-0.3-0.7-0.46-1.05c-0.09-0.21-0.15-0.45-0.28-0.62c-0.59-0.74-0.79-1.65-1.09-2.52
			c-0.27-0.8-0.51-1.61-0.54-2.46c-0.01-0.38-0.1-0.76-0.18-1.13c-0.2-0.91-0.18-1.83-0.03-2.74c0.06-0.38,0.18-0.75,0.18-1.13
			c0.01-0.94,0.35-1.8,0.53-2.7c0.12-0.61,0.4-1.16,0.62-1.73c0.06-0.14,0.14-0.28,0.18-0.42c0.41-1.35,1.24-2.46,2.03-3.59
			c0.31-0.44,0.64-0.86,0.98-1.28c0.19-0.23,0.42-0.45,0.65-0.65c0.52-0.46,1.06-0.88,1.57-1.35c0.68-0.63,1.46-1.11,2.27-1.56
			c1.82-1.04,3.78-1.68,5.81-2.12c0.3-0.06,0.61-0.11,0.91-0.12C125.44,74.57,126.21,74.55,126.97,74.52z"/>
		<path class="st12" d="M297.65,261.82c-0.04-0.43,0.23-0.71,0.49-0.99c0.12-0.13,0.27-0.13,0.38-0.04
			c0.05,0.05,0.11,0.12,0.12,0.19c0.05,0.39,0.04,0.76-0.27,1.05C298.05,261.79,298.05,261.79,297.65,261.82z"/>
		<path class="st0" d="M297.65,261.82c0.4-0.03,0.4-0.03,0.71,0.22c-0.06,0.12-0.11,0.25-0.19,0.36c-0.1,0.14-0.42,0.22-0.51,0.14
			c-0.15-0.14-0.19-0.33-0.1-0.53C297.6,261.95,297.62,261.89,297.65,261.82z"/>
		<path class="st0" d="M526.05,264.72c-0.09,0.11-0.17,0.24-0.26,0.34c-0.1,0.11-0.24,0.16-0.36,0.1c-0.05-0.02-0.08-0.12-0.08-0.19
			c-0.02-0.29,0.02-0.57,0.18-0.82C525.7,264.34,525.88,264.53,526.05,264.72z"/>
		<path class="st13" d="M356.71,268.54c0.06,2.11-0.4,3.55-1.21,4.89c-0.36,0.59-0.82,1.1-1.34,1.57c-0.77,0.68-1.68,1.08-2.69,1.2
			c-1.81,0.21-3.55-0.81-4.04-2.67c-0.16-0.59-0.33-1.18-0.31-1.81c0.07-1.72,0.49-3.33,1.52-4.74c1.35-1.85,3.13-2.62,5.41-2.17
			c0.88,0.17,1.54,0.67,2.03,1.4c0.34,0.51,0.57,1.09,0.6,1.72C356.68,268.31,356.72,268.69,356.71,268.54z"/>
		<path class="st13" d="M452.02,267.78c-1.07-0.01-2.14-0.03-3.21-0.05c-0.26,0-0.52-0.36-0.49-0.64c0.03-0.23,0.04-0.46,0.09-0.68
			c0.46-2.09,0.92-4.17,1.38-6.25c0.04-0.17,0.31-0.4,0.48-0.42c0.08-0.01,0.15-0.03,0.23-0.03c1.91,0,3.82-0.01,5.73,0
			c0.3,0,0.61,0.03,0.91,0.09c1.12,0.22,1.96,0.8,2.37,1.91c0.36,0.97,0.36,1.93,0.05,2.91c-0.26,0.82-0.68,1.53-1.37,2.07
			c-0.61,0.48-1.28,0.82-2.06,0.94c-0.61,0.09-1.21,0.15-1.82,0.15c-0.76-0.01-1.53,0-2.29,0
			C452.02,267.77,452.02,267.78,452.02,267.78z"/>
		<path class="st14" d="M471.4,276.91c-0.32-0.03-0.7-0.05-1.07-0.11c-0.8-0.12-1.4-0.54-1.83-1.22c-0.17-0.26-0.26-0.55-0.29-0.85
			c-0.02-0.15-0.02-0.3-0.02-0.46c-0.03-1.12,0.58-1.87,1.5-2.37c0.6-0.33,1.25-0.56,1.95-0.61c0.61-0.05,1.21-0.09,1.82-0.17
			c0.98-0.12,1.96-0.26,2.94-0.4c0.3-0.04,0.55,0.24,0.48,0.56c-0.01,0.07-0.01,0.15-0.03,0.23c-0.14,0.59-0.27,1.19-0.44,1.77
			c-0.24,0.81-0.64,1.55-1.23,2.16c-0.76,0.79-1.68,1.3-2.79,1.4C472.07,276.86,471.77,276.88,471.4,276.91z"/>
		<path class="st14" d="M337.71,271.06c0.59-0.09,1.49-0.22,2.39-0.36c0.16-0.02,0.39,0.28,0.37,0.46
			c-0.09,0.84-0.31,1.65-0.59,2.43c-0.47,1.34-1.34,2.37-2.69,2.94c-0.28,0.12-0.57,0.21-0.87,0.26c-0.75,0.13-1.51,0.15-2.27,0.04
			c-0.88-0.13-1.57-0.55-2-1.34c-0.11-0.2-0.2-0.42-0.21-0.64c-0.03-0.38-0.03-0.76,0.01-1.13c0.02-0.22,0.12-0.44,0.22-0.64
			c0.24-0.49,0.65-0.85,1.11-1.11c0.6-0.33,1.24-0.58,1.93-0.65C335.88,271.23,336.63,271.16,337.71,271.06z"/>
		<path class="st14" d="M308.05,271.05c0.46-0.05,0.91-0.12,1.37-0.15c0.45-0.03,0.87-0.24,1.33-0.2c0.06,0,0.13,0.08,0.17,0.15
			c0.03,0.06,0.04,0.15,0.02,0.22c-0.16,0.74-0.3,1.5-0.51,2.22c-0.24,0.81-0.65,1.55-1.25,2.16c-0.77,0.79-1.69,1.28-2.81,1.39
			c-0.69,0.06-1.37,0.07-2.06-0.05c-0.71-0.13-1.27-0.49-1.69-1.08c-0.18-0.25-0.3-0.53-0.33-0.84c-0.02-0.23-0.03-0.46-0.04-0.69
			c-0.03-1.03,0.51-1.74,1.36-2.22c0.6-0.35,1.24-0.59,1.94-0.66c0.84-0.09,1.67-0.16,2.51-0.24
			C308.05,271.06,308.05,271.06,308.05,271.05z"/>
		<path class="st15" d="M238.4,269.77c-1.38,0-2.76,0-4.14,0c-0.31,0-0.49-0.33-0.4-0.65c0.3-1.05,0.82-1.98,1.57-2.77
			c1.46-1.54,3.22-2,5.24-1.47c0.52,0.14,0.97,0.44,1.35,0.84c0.43,0.45,0.74,0.97,0.88,1.59c0.14,0.6,0.26,1.2,0.2,1.82
			c-0.03,0.25-0.35,0.64-0.57,0.65c-0.23,0.01-0.46,0.03-0.69,0.03c-1.15,0-2.3,0-3.45,0C238.4,269.79,238.4,269.78,238.4,269.77z"
			/>
		<path class="st15" d="M367.62,269.81c-1.38-0.02-2.75-0.04-4.13-0.04c-0.24,0-0.53-0.38-0.43-0.66c0.03-0.07,0.01-0.15,0.04-0.22
			c0.56-1.66,1.56-2.96,3.15-3.76c0.28-0.14,0.55-0.25,0.86-0.31c0.76-0.16,1.51-0.17,2.28-0.04c1.14,0.2,1.94,0.86,2.45,1.87
			c0.42,0.84,0.55,1.74,0.38,2.68c-0.03,0.16-0.3,0.43-0.47,0.44c-0.23,0.01-0.46,0.04-0.69,0.04c-1.15,0-2.29,0-3.44,0
			C367.62,269.8,367.62,269.81,367.62,269.81z"/>
		<path class="st15" d="M405.43,269.82c-1.38-0.02-2.75-0.04-4.13-0.05c-0.27,0-0.45-0.36-0.41-0.68c0.07-0.47,0.3-0.87,0.5-1.27
			c0.61-1.19,1.51-2.1,2.71-2.71c0.28-0.14,0.56-0.24,0.86-0.3c0.76-0.16,1.51-0.17,2.28-0.03c1.06,0.19,1.81,0.78,2.33,1.69
			c0.51,0.9,0.62,1.87,0.45,2.88c-0.03,0.16-0.3,0.42-0.48,0.42c-0.99,0.01-1.99,0.03-2.98,0.04c-0.38,0-0.77,0-1.15,0
			C405.43,269.8,405.43,269.81,405.43,269.82z"/>
		<path class="st13" d="M503.09,276.91c-0.4-0.04-0.78-0.07-1.16-0.12c-0.62-0.09-1.16-0.39-1.62-0.8
			c-0.71-0.63-1.11-1.45-1.27-2.37c-0.19-1.07-0.18-2.14,0.05-3.19c0.45-2.08,1.36-3.88,3.23-5.07c0.45-0.29,0.94-0.5,1.48-0.58
			c0.69-0.1,1.36-0.12,2.05-0.02c1.43,0.2,2.34,1.02,2.87,2.32c0.42,1.02,0.49,2.08,0.33,3.15c-0.16,1.06-0.42,2.09-0.89,3.07
			c-0.43,0.9-0.99,1.72-1.75,2.38c-0.35,0.3-0.71,0.57-1.13,0.77c-0.35,0.17-0.69,0.32-1.08,0.36
			C503.84,276.85,503.46,276.88,503.09,276.91z"/>
		<path class="st13" d="M167.27,269.28c0.03,1.72-0.47,3.31-1.32,4.79c-0.46,0.81-1.08,1.47-1.84,2.01
			c-0.63,0.45-1.32,0.74-2.11,0.78c-0.54,0.03-1.07,0.03-1.6-0.04c-1.14-0.14-2-0.72-2.58-1.69c-0.39-0.66-0.66-1.38-0.68-2.16
			c-0.01-0.38-0.03-0.76-0.02-1.14c0.03-1.65,0.57-3.14,1.44-4.52c0.16-0.26,0.35-0.5,0.55-0.73c1.24-1.42,2.78-2.09,4.68-1.84
			c0.45,0.06,0.91,0.12,1.33,0.32c0.64,0.31,1.14,0.77,1.5,1.37c0.39,0.67,0.65,1.38,0.66,2.16
			C167.27,268.82,167.27,269.05,167.27,269.28z"/>
	</g>
</g>
</svg>
